<?xml version="1.0" encoding="UTF-8" standalone="no"?>
<!-- Created with Inkscape (http://www.inkscape.org/) -->

<svg
   xmlns:dc="http://purl.org/dc/elements/1.1/"
   xmlns:cc="http://creativecommons.org/ns#"
   xmlns:rdf="http://www.w3.org/1999/02/22-rdf-syntax-ns#"
   xmlns:svg="http://www.w3.org/2000/svg"
   xmlns="http://www.w3.org/2000/svg"
   xmlns:sodipodi="http://sodipodi.sourceforge.net/DTD/sodipodi-0.dtd"
   xmlns:inkscape="http://www.inkscape.org/namespaces/inkscape"
   width="21.448889mm"
   height="30.268478mm"
   viewBox="0 0 76 107.25051"
   id="svg2"
   version="1.1"
   inkscape:version="0.91 r"
   sodipodi:docname="currying_pathified.svg">
  <defs
     id="defs4" />
  <sodipodi:namedview
     id="base"
     pagecolor="#ffffff"
     bordercolor="#666666"
     borderopacity="1.0"
     inkscape:pageopacity="0.0"
     inkscape:pageshadow="2"
     inkscape:zoom="3.959798"
     inkscape:cx="59.003418"
     inkscape:cy="41.782087"
     inkscape:document-units="px"
     inkscape:current-layer="layer1"
     showgrid="false"
     inkscape:object-paths="true"
     inkscape:snap-intersection-paths="true"
     inkscape:object-nodes="true"
     inkscape:snap-smooth-nodes="true"
     inkscape:window-width="1920"
     inkscape:window-height="1028"
     inkscape:window-x="0"
     inkscape:window-y="0"
     inkscape:window-maximized="1"
     inkscape:snap-global="false"
     fit-margin-top="0"
     fit-margin-left="0"
     fit-margin-right="0"
     fit-margin-bottom="0">
    <inkscape:grid
       type="xygrid"
       id="grid4138"
       originx="-30.75"
       originy="-911.99948" />
  </sodipodi:namedview>
  <metadata
     id="metadata7">
    <rdf:RDF>
      <cc:Work
         rdf:about="">
        <dc:format>image/svg+xml</dc:format>
        <dc:type
           rdf:resource="http://purl.org/dc/dcmitype/StillImage" />
        <dc:title></dc:title>
      </cc:Work>
    </rdf:RDF>
  </metadata>
  <g
     inkscape:label="Layer 1"
     inkscape:groupmode="layer"
     id="layer1"
     transform="translate(-30.75,-33.112205)">
    <path
       id="ellipse4142"
       style="color:#000000;clip-rule:nonzero;display:inline;overflow:visible;visibility:visible;opacity:1;isolation:auto;mix-blend-mode:normal;color-interpolation:sRGB;color-interpolation-filters:linearRGB;solid-color:#000000;solid-opacity:1;fill:#e1b024;fill-opacity:1;fill-rule:nonzero;stroke:#000000;stroke-width:1;stroke-linecap:butt;stroke-linejoin:miter;stroke-miterlimit:4;stroke-dasharray:none;stroke-dashoffset:0;stroke-opacity:1;color-rendering:auto;image-rendering:auto;shape-rendering:auto;text-rendering:auto;enable-background:accumulate"
       d="m 106.25,46.112206 0,87.500004 0,-1e-5 c 0,2.23291 -7.147459,4.2962 -18.75,5.41266 -11.60254,1.11646 -25.89746,1.11646 -37.5,0 -11.602541,-1.11646 -18.750001,-3.17975 -18.75,-5.41265 l 0,-87.500004"
       inkscape:connector-curvature="0"
       sodipodi:nodetypes="cccsscc" />
    <path
       style="color:#000000;clip-rule:nonzero;display:inline;overflow:visible;visibility:visible;opacity:1;isolation:auto;mix-blend-mode:normal;color-interpolation:sRGB;color-interpolation-filters:linearRGB;solid-color:#000000;solid-opacity:1;fill:#2c8412;fill-opacity:1;fill-rule:nonzero;stroke:#000000;stroke-width:1;stroke-linecap:butt;stroke-linejoin:miter;stroke-miterlimit:4;stroke-dasharray:none;stroke-dashoffset:0;stroke-opacity:1;color-rendering:auto;image-rendering:auto;shape-rendering:auto;text-rendering:auto;enable-background:accumulate"
       d="m 31.25,39.862205 0,18.250001 c 0,3.45178 16.789324,6.25 37.5,6.25 20.710676,0 37.5,-2.79822 37.5,-6.25 l 0,-18.250001"
       id="ellipse4147"
       inkscape:connector-curvature="0"
       sodipodi:nodetypes="cscsc" />
    <ellipse
       style="color:#000000;clip-rule:nonzero;display:inline;overflow:visible;visibility:visible;opacity:1;isolation:auto;mix-blend-mode:normal;color-interpolation:sRGB;color-interpolation-filters:linearRGB;solid-color:#000000;solid-opacity:1;fill:#2c8412;fill-opacity:1;fill-rule:nonzero;stroke:#000000;stroke-width:1;stroke-linecap:butt;stroke-linejoin:miter;stroke-miterlimit:4;stroke-dasharray:none;stroke-dashoffset:0;stroke-opacity:1;color-rendering:auto;image-rendering:auto;shape-rendering:auto;text-rendering:auto;enable-background:accumulate"
       id="path4140"
       cx="68.75"
       cy="39.862206"
       rx="37.5"
       ry="6.250001" />
    <path
       id="path4229-3"
       style="color:#000000;clip-rule:nonzero;display:inline;overflow:visible;visibility:visible;opacity:1;isolation:auto;mix-blend-mode:normal;color-interpolation:sRGB;color-interpolation-filters:linearRGB;solid-color:#000000;solid-opacity:1;fill:#f6f0b7;fill-opacity:1;fill-rule:nonzero;stroke:#000000;stroke-width:1;stroke-linecap:butt;stroke-linejoin:miter;stroke-miterlimit:4;stroke-dasharray:none;stroke-dashoffset:0;stroke-opacity:1;color-rendering:auto;image-rendering:auto;shape-rendering:auto;text-rendering:auto;enable-background:accumulate"
       d="m 68.75,77.112201 c -20.71068,0 -37.499997,-2.798215 -37.5,-5.999996 l 0,49.999995 c 0,3.45178 16.789324,6.25 37.5,6.25 20.710676,0 37.5,-2.79822 37.5,-6.25 l 0,-49.999995 c 0,3.201781 -16.78932,5.999996 -37.5,5.999996 z"
       inkscape:connector-curvature="0"
       sodipodi:nodetypes="scssscs" />
    <g
       transform="matrix(2.2745984,0.0054111,-0.0054111,2.2745984,-335.66392,192.51068)"
       style="font-style:normal;font-weight:normal;font-size:15px;line-height:125%;font-family:sans-serif;letter-spacing:0px;word-spacing:0px;fill:#000000;fill-opacity:1;stroke:none;stroke-width:1px;stroke-linecap:butt;stroke-linejoin:miter;stroke-opacity:1"
       id="text4914-3-3-9-6-0-8">
      <path
         inkscape:connector-curvature="0"
         d="m 173.37233,-34.143101 3.75977,-9.185791 -0.45289,-1.367187 q -0.11108,-0.350342 -0.2478,-0.632324 -0.12817,-0.290528 -0.31616,-0.495606 -0.17944,-0.213623 -0.44434,-0.324707 -0.25634,-0.119629 -0.62378,-0.119629 -0.29052,0 -0.50415,0.03418 -0.21362,0.02563 -0.38452,0.06836 l 0,-1.239013 q 0.22217,-0.05981 0.50415,-0.10254 0.28199,-0.04272 0.58106,-0.04272 0.63232,0 1.07666,0.179443 0.45288,0.179444 0.78613,0.563965 0.3418,0.375977 0.60669,0.957031 0.27344,0.57251 0.53833,1.367188 l 2.80273,8.288574 q 0.15381,0.461426 0.35035,0.709229 0.19653,0.239257 0.52124,0.239257 0.11963,0 0.28198,-0.02563 0.16235,-0.03418 0.23071,-0.05981 l 0,1.136475 q -0.19653,0.102539 -0.43579,0.162353 -0.23071,0.05982 -0.54687,0.05982 -0.33326,0 -0.5896,-0.0769 -0.24781,-0.06836 -0.45288,-0.239257 -0.19654,-0.170899 -0.35889,-0.444336 -0.15381,-0.273438 -0.28198,-0.666504 l -1.15357,-3.571778 q -0.094,-0.281982 -0.22217,-0.683593 -0.11963,-0.401612 -0.23925,-0.811768 -0.11109,-0.418701 -0.20508,-0.786133 -0.094,-0.375976 -0.13672,-0.589599 l -0.0513,0 q -0.11108,0.657959 -0.3418,1.384277 -0.22217,0.726318 -0.48706,1.401367 l -1.95678,4.91333 -1.60645,0 z"
         style="font-style:normal;font-variant:normal;font-weight:normal;font-stretch:normal;font-size:17.5px;font-family:'Droid Sans';-inkscape-font-specification:'Droid Sans'"
         id="path4258" />
    </g>
    <path
       id="path4229-3-6"
       style="color:#000000;clip-rule:nonzero;display:inline;overflow:visible;visibility:visible;opacity:1;isolation:auto;mix-blend-mode:normal;color-interpolation:sRGB;color-interpolation-filters:linearRGB;solid-color:#000000;solid-opacity:1;fill:none;fill-opacity:1;fill-rule:nonzero;stroke:none;stroke-width:1;stroke-linecap:butt;stroke-linejoin:miter;stroke-miterlimit:4;stroke-dasharray:none;stroke-dashoffset:0;stroke-opacity:1;color-rendering:auto;image-rendering:auto;shape-rendering:auto;text-rendering:auto;enable-background:accumulate"
       d="m 31.250002,117.87236 c 0,3.45178 16.789328,6.25 37.499998,6.25 20.71068,0 37.5,-2.79822 37.5,-6.25"
       inkscape:connector-curvature="0"
       sodipodi:nodetypes="csc" />
    <path
       sodipodi:nodetypes="csc"
       inkscape:connector-curvature="0"
       d="m 31.250002,74.8622 c 0,3.45178 16.789328,6.25 37.499998,6.25 20.71068,0 37.5,-2.79822 37.5,-6.25"
       style="color:#000000;clip-rule:nonzero;display:inline;overflow:visible;visibility:visible;opacity:1;isolation:auto;mix-blend-mode:normal;color-interpolation:sRGB;color-interpolation-filters:linearRGB;solid-color:#000000;solid-opacity:1;fill:none;fill-opacity:1;fill-rule:nonzero;stroke:#000000;stroke-width:1;stroke-linecap:butt;stroke-linejoin:miter;stroke-miterlimit:4;stroke-dasharray:none;stroke-dashoffset:0;stroke-opacity:1;color-rendering:auto;image-rendering:auto;shape-rendering:auto;text-rendering:auto;enable-background:accumulate"
       id="path4938" />
    <g
       style="font-style:normal;font-weight:normal;font-size:15px;line-height:125%;font-family:sans-serif;letter-spacing:0px;word-spacing:0px;fill:#000000;fill-opacity:1;stroke:none;stroke-width:1px;stroke-linecap:butt;stroke-linejoin:miter;stroke-opacity:1"
       id="text4940">
      <path
         d="m 41.760714,121.7956 0.795295,0.12885 0.444718,-2.74497 -0.893296,0.0333 0.07184,-0.44344 0.888476,-0.0341 0.486816,0.0789 -0.51656,3.18841 0.795294,0.12884 -0.06637,0.4097 -2.072586,-0.33578 0.06638,-0.4097 z"
         style="font-size:5px;text-align:start;text-anchor:start"
         id="path5017" />
      <path
         d="m 46.228144,119.523 q -0.377711,-0.0489 -0.617231,0.29925 -0.236787,0.34601 -0.333275,1.09175 -0.09618,0.74331 0.04444,1.14062 0.143345,0.39519 0.521056,0.44406 0.380132,0.0492 0.616919,-0.29682 0.23952,-0.34812 0.335695,-1.09144 0.09649,-0.74574 -0.04686,-1.14093 -0.140612,-0.39731 -0.520744,-0.44649 z m 0.05012,-0.3874 q 0.607727,0.0786 0.864987,0.60181 0.259995,0.52107 0.141578,1.43629 -0.118104,0.9128 -0.502469,1.35296 -0.381629,0.43805 -0.989356,0.35942 -0.607728,-0.0786 -0.867722,-0.5997 -0.25726,-0.52318 -0.139156,-1.43598 0.118417,-0.91522 0.500047,-1.35327 0.384364,-0.44016 0.992091,-0.36153 z"
         style="font-size:5px;text-align:start;text-anchor:start"
         id="path5019" />
      <path
         d="m 49.309316,119.88028 q -0.378822,-0.0393 -0.609499,0.3147 -0.227997,0.35187 -0.305672,1.0998 -0.07742,0.7455 0.07315,1.13914 0.153254,0.39146 0.532075,0.4308 0.381251,0.0396 0.609247,-0.31227 0.230678,-0.35404 0.308101,-1.09955 0.07768,-0.74793 -0.07558,-1.13939 -0.150573,-0.39363 -0.531824,-0.43323 z m 0.04035,-0.38853 q 0.609515,0.0633 0.87987,0.57983 0.273036,0.51435 0.177706,1.43227 -0.09508,0.91548 -0.468234,1.36518 -0.370476,0.44753 -0.979991,0.38422 -0.609514,-0.0633 -0.88255,-0.57765 -0.270355,-0.51653 -0.175278,-1.43202 0.09533,-0.91791 0.465806,-1.36543 0.373157,-0.4497 0.982671,-0.3864 z"
         style="font-size:5px;text-align:start;text-anchor:start"
         id="path5021" />
      <path
         d="m 54.300511,122.03855 q -0.21176,-0.0165 -0.347497,0.15413 -0.133303,0.17082 -0.158339,0.49212 -0.02466,0.31642 0.08038,0.50827 0.107666,0.1896 0.319427,0.2061 0.206892,0.0161 0.340195,-0.1547 0.135926,-0.17307 0.160583,-0.4895 0.02485,-0.31885 -0.08282,-0.50846 -0.105042,-0.19184 -0.311935,-0.20796 z m 0.02409,-0.30912 q 0.384577,0.03 0.590078,0.31535 0.205501,0.28538 0.170033,0.74054 -0.03547,0.45516 -0.285131,0.70508 -0.247038,0.24767 -0.62918,0.21789 -0.389445,-0.0303 -0.595135,-0.3133 -0.205501,-0.28538 -0.170033,-0.74054 0.03566,-0.4576 0.282696,-0.70527 0.249662,-0.24991 0.636672,-0.21975 z m -2.396408,-1.67807 q -0.209326,-0.0163 -0.345252,0.15676 -0.133303,0.17083 -0.15796,0.48725 -0.02504,0.32129 0.08019,0.5107 0.105232,0.18941 0.316992,0.20592 0.211761,0.0165 0.345064,-0.15433 0.135737,-0.17063 0.160773,-0.49192 0.02447,-0.31399 -0.08301,-0.50603 -0.107476,-0.19203 -0.316803,-0.20835 z m 2.222015,-0.13785 0.389445,0.0303 -2.567179,3.59316 -0.389445,-0.0303 2.567179,-3.59316 z m -2.197927,-0.17127 q 0.384577,0.03 0.592512,0.31554 0.208124,0.28314 0.172656,0.7383 -0.03585,0.46003 -0.28532,0.70751 -0.247038,0.24767 -0.634048,0.21752 -0.387011,-0.0302 -0.592702,-0.31311 -0.203066,-0.28519 -0.167409,-0.74279 0.03528,-0.45273 0.282507,-0.70283 0.247228,-0.25011 0.631804,-0.22014 z"
         style="font-size:5px;text-align:start;text-anchor:start"
         id="path5023" />
      <path
         d="m 58.932408,120.10572 -0.01903,0.37305 -0.429129,-0.0219 q -0.241386,-0.0123 -0.341453,0.0804 -0.09763,0.0928 -0.110568,0.34638 l -0.01232,0.24139 0.738785,0.0377 -0.01779,0.34867 -0.738785,-0.0377 -0.121546,2.38216 -0.451073,-0.023 0.121546,-2.38215 -0.42913,-0.0219 0.01779,-0.34866 0.429129,0.0219 0.0097,-0.19018 q 0.02326,-0.45595 0.245965,-0.65238 0.222825,-0.19886 0.683651,-0.17535 l 0.424253,0.0217 z"
         style="font-size:5px;text-align:start;text-anchor:start"
         id="path5025" />
      <path
         d="m 59.104863,122.83679 0.06415,-1.65403 0.448881,0.0174 -0.06349,1.63695 q -0.01505,0.38789 0.128638,0.58893 0.143778,0.19859 0.446285,0.21032 0.363496,0.0141 0.582289,-0.20952 0.221232,-0.22353 0.23675,-0.62362 l 0.06009,-1.54913 0.448882,0.0174 -0.10598,2.73233 -0.448881,-0.0174 0.01628,-0.4196 q -0.173103,0.24249 -0.394956,0.35605 -0.219319,0.11121 -0.504749,0.10014 -0.470838,-0.0183 -0.70344,-0.32047 -0.232602,-0.30221 -0.210744,-0.86575 z m 1.196232,-1.67609 0,0 z"
         style="font-size:5px;text-align:start;text-anchor:start"
         id="path5027" />
      <path
         d="m 64.594642,122.43686 -0.03933,1.64992 -0.449091,-0.0107 0.03898,-1.63527 q 0.0093,-0.38808 -0.137476,-0.5845 -0.146728,-0.19643 -0.449376,-0.20364 -0.363666,-0.009 -0.579095,0.21819 -0.215429,0.22687 -0.224972,0.62714 l -0.03683,1.54497 -0.451532,-0.0108 0.06517,-2.7336 0.451532,0.0108 -0.01013,0.42468 q 0.166964,-0.24267 0.387097,-0.35953 0.222573,-0.1168 0.508137,-0.10999 0.471057,0.0112 0.705706,0.30988 0.234706,0.2962 0.221207,0.86245 z"
         style="font-size:5px;text-align:start;text-anchor:start"
         id="path5029" />
      <path
         d="m 67.451209,121.49177 -0.0044,0.4199 q -0.189318,-0.10697 -0.381641,-0.16026 -0.189856,-0.0557 -0.385158,-0.0578 -0.436988,-0.005 -0.681592,0.27119 -0.244578,0.27333 -0.249826,0.77379 -0.0052,0.50046 0.233521,0.7813 0.238793,0.2784 0.675781,0.28298 0.195302,0.002 0.386258,-0.0472 0.193424,-0.0517 0.384944,-0.15467 l -0.0044,0.41502 q -0.188899,0.0859 -0.391985,0.12773 -0.200645,0.0418 -0.427684,0.0395 -0.617642,-0.006 -0.977321,-0.39845 -0.35968,-0.39197 -0.352769,-1.05112 0.007,-0.66891 0.377224,-1.04835 0.372651,-0.37941 1.012264,-0.3727 0.207508,0.002 0.40479,0.0482 0.197308,0.0436 0.381949,0.13096 z"
         style="font-size:5px;text-align:start;text-anchor:start"
         id="path5031" />
      <path
         d="m 68.656764,120.61161 -9.4e-5,0.77636 0.925293,1.1e-4 -4.2e-5,0.34913 -0.925293,-1.2e-4 -1.78e-4,1.48438 q -4e-5,0.33447 0.09028,0.4297 0.09276,0.0952 0.373524,0.0953 l 0.461426,5e-5 -4.5e-5,0.37598 -0.461426,-6e-5 q -0.52002,-6e-5 -0.717751,-0.19295 -0.19773,-0.19534 -0.197668,-0.70803 l 1.78e-4,-1.48438 -0.32959,-4e-5 4.2e-5,-0.34912 0.32959,4e-5 9.4e-5,-0.77637 0.45166,6e-5 z"
         style="font-size:5px;text-align:start;text-anchor:start"
         id="path5033" />
      <path
         d="m 70.156849,121.38372 0.449207,-0.003 0.01974,2.73431 -0.449207,0.003 -0.01974,-2.73431 z m -0.0077,-1.06442 0.449207,-0.003 0.0041,0.56883 -0.449207,0.003 -0.0041,-0.56883 z"
         style="font-size:5px;text-align:start;text-anchor:start"
         id="path5035" />
      <path
         d="m 72.580041,121.67038 q -0.361275,0.006 -0.56636,0.29293 -0.205127,0.28432 -0.196731,0.77497 0.0084,0.49065 0.22073,0.77026 0.214733,0.27713 0.57845,0.2709 0.358834,-0.006 0.563919,-0.29289 0.205085,-0.28675 0.196731,-0.77496 -0.0083,-0.48577 -0.223087,-0.76534 -0.214817,-0.28201 -0.573652,-0.27587 z m -0.0065,-0.38081 q 0.585852,-0.01 0.926792,0.36506 0.340939,0.37508 0.352468,1.04881 0.01149,0.67129 -0.31638,1.06026 -0.327908,0.38652 -0.913759,0.39655 -0.588293,0.0101 -0.929233,-0.36502 -0.33854,-0.37756 -0.350027,-1.04885 -0.01153,-0.67373 0.313939,-1.06021 0.327908,-0.38653 0.9162,-0.3966 z"
         style="font-size:5px;text-align:start;text-anchor:start"
         id="path5037" />
      <path
         d="m 76.841152,122.32815 0.05186,1.64958 -0.448996,0.0141 -0.0514,-1.63493 q -0.0122,-0.38799 -0.16955,-0.57601 -0.157352,-0.18802 -0.459937,-0.17851 -0.36359,0.0114 -0.56616,0.24984 -0.20257,0.23842 -0.189989,0.63861 l 0.04856,1.54465 -0.451437,0.0142 -0.08591,-2.73302 0.451437,-0.0142 0.01335,0.42459 q 0.153306,-0.25152 0.366648,-0.38036 0.215783,-0.12891 0.501286,-0.13789 0.470959,-0.0148 0.721744,0.27043 0.250708,0.28278 0.268505,0.84891 z"
         style="font-size:5px;text-align:start;text-anchor:start"
         id="path5039" />
      <path
         d="m 78.971565,122.51139 q -0.543844,0.0253 -0.747786,0.15947 -0.203941,0.13415 -0.189972,0.43411 0.01113,0.239 0.173798,0.37318 0.164993,0.13163 0.435696,0.11902 0.373131,-0.0174 0.585231,-0.29121 0.214426,-0.27639 0.193983,-0.71536 l -0.0047,-0.1 -0.446294,0.0208 z m 0.886395,-0.22703 0.07257,1.55837 -0.448733,0.0209 -0.01931,-0.41459 q -0.142058,0.25591 -0.365736,0.38609 -0.223793,0.12773 -0.555464,0.14318 -0.419468,0.0195 -0.679124,-0.20301 -0.257332,-0.22508 -0.27573,-0.62016 -0.02147,-0.46093 0.274916,-0.70936 0.29882,-0.24855 0.91095,-0.27705 l 0.629201,-0.0293 -0.002,-0.0439 q -0.01442,-0.30972 -0.227116,-0.46846 -0.210367,-0.16129 -0.57862,-0.14414 -0.234122,0.0109 -0.453437,0.0773 -0.219315,0.0664 -0.418947,0.18815 l -0.01931,-0.41459 q 0.241886,-0.10658 0.47141,-0.16371 0.229411,-0.0596 0.4489,-0.0698 0.592619,-0.0276 0.899581,0.26606 0.306962,0.29365 0.336036,0.91797 z"
         style="font-size:5px;text-align:start;text-anchor:start"
         id="path5041" />
      <path
         d="m 80.636702,119.99716 0.448465,-0.026 0.219952,3.79245 -0.448465,0.026 -0.219952,-3.79245 z"
         style="font-size:5px;text-align:start;text-anchor:start"
         id="path5043" />
      <path
         d="m 85.673746,122.08368 q -0.03951,-0.49402 -0.266325,-0.75754 -0.224571,-0.26615 -0.579881,-0.23773 -0.355311,0.0284 -0.537157,0.32707 -0.179606,0.29603 -0.140092,0.79006 0.03952,0.49402 0.264086,0.76017 0.226811,0.26352 0.582121,0.2351 0.355311,-0.0284 0.534917,-0.32445 0.181846,-0.29865 0.142331,-0.79268 z m -1.599564,-0.8297 q 0.121686,-0.25465 0.326502,-0.38859 0.207056,-0.13657 0.506393,-0.16052 0.496461,-0.0397 0.837066,0.32982 0.343039,0.36933 0.394427,1.01181 0.05139,0.64248 -0.228583,1.06165 -0.277537,0.41897 -0.773999,0.45868 -0.299337,0.0239 -0.525274,-0.0755 -0.223697,-0.10212 -0.384313,-0.33419 l 0.0327,0.40885 -0.450222,0.036 -0.30288,-3.78674 0.450223,-0.036 0.117959,1.47478 z"
         style="font-size:5px;text-align:start;text-anchor:start"
         id="path5045" />
      <path
         d="m 86.635811,119.55239 0.447227,-0.0422 0.357294,3.78199 -0.447227,0.0422 -0.357294,-3.78199 z"
         style="font-size:5px;text-align:start;text-anchor:start"
         id="path5047" />
      <path
         d="m 90.53415,121.4763 0.02415,0.2184 -2.052916,0.22701 q 0.0801,0.45784 0.35445,0.67313 0.276507,0.21259 0.720577,0.16349 0.257222,-0.0284 0.49048,-0.1181 0.235685,-0.0899 0.45954,-0.24241 l 0.04669,0.42223 q -0.228965,0.12849 -0.47543,0.20978 -0.246465,0.0813 -0.506113,0.11 -0.650333,0.0719 -1.073171,-0.26451 -0.420412,-0.33669 -0.491788,-0.98217 -0.07379,-0.66732 0.242146,-1.09772 0.318096,-0.43309 0.929603,-0.50071 0.548415,-0.0606 0.905478,0.25849 0.359221,0.31644 0.426305,0.92309 z m -0.460988,-0.0817 q -0.04537,-0.36588 -0.27093,-0.56201 -0.223132,-0.19639 -0.553152,-0.15989 -0.373699,0.0413 -0.576029,0.27739 -0.199904,0.2358 -0.19148,0.62296 l 1.591591,-0.17845 z"
         style="font-size:5px;text-align:start;text-anchor:start"
         id="path5049" />
      <path
         d="m 93.453753,120.91267 0.224312,1.63508 -0.44505,0.0611 -0.222322,-1.62056 q -0.05276,-0.38458 -0.228936,-0.55509 -0.176177,-0.17051 -0.476102,-0.12936 -0.360394,0.0494 -0.536883,0.30776 -0.17649,0.25831 -0.122071,0.65499 l 0.210044,1.53107 -0.447469,0.0614 -0.371642,-2.70901 0.447469,-0.0614 0.05774,0.42086 q 0.126123,-0.26619 0.324801,-0.41666 0.201096,-0.15081 0.48409,-0.18963 0.466819,-0.064 0.746094,0.19336 0.278944,0.25498 0.355927,0.81613 z"
         style="font-size:5px;text-align:start;text-anchor:start"
         id="path5051" />
      <path
         d="m 95.948542,119.82191 -0.251375,-1.45798 0.442687,-0.0763 0.645446,3.74359 -0.442687,0.0763 -0.06969,-0.4042 q -0.09806,0.26465 -0.291862,0.41946 -0.191809,0.15199 -0.490142,0.20343 -0.488399,0.0842 -0.863555,-0.25246 -0.37275,-0.33708 -0.48226,-0.97224 -0.10951,-0.63516 0.128841,-1.07759 0.240757,-0.44286 0.729156,-0.52706 0.298333,-0.0514 0.530379,0.0299 0.234037,0.0786 0.41506,0.29509 z m -1.346313,1.2008 q 0.08421,0.4884 0.332015,0.73306 0.249799,0.24183 0.601062,0.18127 0.351263,-0.0606 0.505656,-0.37209 0.153978,-0.31393 0.06977,-0.80233 -0.08421,-0.4884 -0.334006,-0.73023 -0.250214,-0.24424 -0.601477,-0.18368 -0.351263,0.0606 -0.505241,0.37449 -0.151987,0.31111 -0.06778,0.79951 z"
         style="font-size:5px;text-align:start;text-anchor:start"
         id="path5053" />
    </g>
  </g>
</svg>
