<?xml version="1.0" encoding="UTF-8" standalone="no"?>
<svg
   xmlns:dc="http://purl.org/dc/elements/1.1/"
   xmlns:cc="http://creativecommons.org/ns#"
   xmlns:rdf="http://www.w3.org/1999/02/22-rdf-syntax-ns#"
   xmlns:svg="http://www.w3.org/2000/svg"
   xmlns="http://www.w3.org/2000/svg"
   version="1.1"
   id="svg2"
   viewBox="0 0 105.162 74.184998"
   height="74.184998"
   width="105.162">
  <metadata
     id="metadata20">
    <rdf:RDF>
      <cc:Work
         rdf:about="">
        <dc:format>image/svg+xml</dc:format>
        <dc:type
           rdf:resource="http://purl.org/dc/dcmitype/StillImage" />
        <dc:title></dc:title>
      </cc:Work>
    </rdf:RDF>
  </metadata>
  <defs
     id="defs18" />
  <path
     style="fill:#453a62"
     id="path10"
     d="M 0,74.185 24.744,37.093 0,0 18.558,0 43.302,37.093 18.558,74.185 0,74.185 Z m 0,0" />
  <path
     style="fill:#5e5086"
     id="path12"
     d="M 24.744,74.185 49.488,37.093 24.744,0 l 18.558,0 49.486,74.185 -18.556,0 -15.464,-23.182 -15.467,23.182 -18.557,0 z m 0,0" />
  <path
     style="fill:#8f4e8b"
     id="path14"
     d="m 84.542,52.548 -8.248,-12.365 28.868,0 0,12.366 -20.62,0 z M 72.17,34.003 63.922,21.638 l 41.24,0 0,12.365 -32.992,0 z m 0,0" />
</svg>
