<?xml version="1.0" encoding="UTF-8" standalone="no"?>
<svg
   xmlns:dc="http://purl.org/dc/elements/1.1/"
   xmlns:cc="http://creativecommons.org/ns#"
   xmlns:rdf="http://www.w3.org/1999/02/22-rdf-syntax-ns#"
   xmlns:svg="http://www.w3.org/2000/svg"
   xmlns="http://www.w3.org/2000/svg"
   xmlns:sodipodi="http://sodipodi.sourceforge.net/DTD/sodipodi-0.dtd"
   xmlns:inkscape="http://www.inkscape.org/namespaces/inkscape"
   width="105.162"
   height="74.184998"
   viewBox="0 0 105.162 74.184998"
   id="svg2"
   version="1.1"
   inkscape:version="0.91 r"
   sodipodi:docname="haskell-logo2-graphiconly.svg">
  <metadata
     id="metadata20">
    <rdf:RDF>
      <cc:Work
         rdf:about="">
        <dc:format>image/svg+xml</dc:format>
        <dc:type
           rdf:resource="http://purl.org/dc/dcmitype/StillImage" />
        <dc:title></dc:title>
      </cc:Work>
    </rdf:RDF>
  </metadata>
  <defs
     id="defs18" />
  <sodipodi:namedview
     pagecolor="#ffffff"
     bordercolor="#666666"
     borderopacity="1"
     objecttolerance="10"
     gridtolerance="10"
     guidetolerance="10"
     inkscape:pageopacity="0"
     inkscape:pageshadow="2"
     inkscape:window-width="1920"
     inkscape:window-height="1028"
     id="namedview16"
     showgrid="false"
     fit-margin-top="0"
     fit-margin-left="0"
     fit-margin-right="0"
     fit-margin-bottom="0"
     inkscape:zoom="11.417403"
     inkscape:cx="52.581001"
     inkscape:cy="37.092499"
     inkscape:window-x="0"
     inkscape:window-y="0"
     inkscape:window-maximized="1"
     inkscape:current-layer="svg2" />
  <path
     d="M 0,74.185 24.744,37.093 0,0 18.558,0 43.302,37.093 18.558,74.185 0,74.185 Z m 0,0"
     id="path10"
     inkscape:connector-curvature="0"
     style="fill:#453a62" />
  <path
     d="M 24.744,74.185 49.488,37.093 24.744,0 l 18.558,0 49.486,74.185 -18.556,0 -15.464,-23.182 -15.467,23.182 -18.557,0 z m 0,0"
     id="path12"
     inkscape:connector-curvature="0"
     style="fill:#5e5086" />
  <path
     d="m 84.542,52.548 -8.248,-12.365 28.868,0 0,12.366 -20.62,0 z M 72.17,34.003 63.922,21.638 l 41.24,0 0,12.365 -32.992,0 z m 0,0"
     id="path14"
     inkscape:connector-curvature="0"
     style="fill:#8f4e8b" />
</svg>
