<?xml version="1.0" encoding="UTF-8" standalone="no"?>
<svg
   xmlns:dc="http://purl.org/dc/elements/1.1/"
   xmlns:cc="http://creativecommons.org/ns#"
   xmlns:rdf="http://www.w3.org/1999/02/22-rdf-syntax-ns#"
   xmlns:svg="http://www.w3.org/2000/svg"
   xmlns="http://www.w3.org/2000/svg"
   xmlns:xlink="http://www.w3.org/1999/xlink"
   version="1.1"
   id="svg2"
   height="475.6503"
   width="545.56213">
  <defs
     id="defs4">
    <linearGradient
       id="linearGradient8707">
      <stop
         id="stop8709"
         offset="0.00000000"
         style="stop-color:#8de17a;stop-opacity:1.0000000;" />
      <stop
         id="stop8711"
         offset="1.0000000"
         style="stop-color:#a3f590;stop-opacity:1.0000000;" />
    </linearGradient>
    <linearGradient
       id="linearGradient7973">
      <stop
         style="stop-color:#71bc60;stop-opacity:1.0000000;"
         offset="0.00000000"
         id="stop7975" />
      <stop
         style="stop-color:#77ce64;stop-opacity:0.42352942;"
         offset="1.0000000"
         id="stop7977" />
    </linearGradient>
    <linearGradient
       id="linearGradient6509">
      <stop
         id="stop6511"
         offset="0.00000000"
         style="stop-color:#7a73de;stop-opacity:1.0000000;" />
      <stop
         style="stop-color:#a2c8e9;stop-opacity:0.98039216;"
         offset="0.50000000"
         id="stop6517" />
      <stop
         id="stop6513"
         offset="1.0000000"
         style="stop-color:#7a73de;stop-opacity:1.0000000;" />
    </linearGradient>
    <linearGradient
       id="linearGradient5773">
      <stop
         id="stop5775"
         offset="0.00000000"
         style="stop-color:#000000;stop-opacity:0.00000000;" />
      <stop
         style="stop-color:#616161;stop-opacity:1.0000000;"
         offset="0.50000000"
         id="stop5781" />
      <stop
         id="stop5777"
         offset="1"
         style="stop-color:#000000;stop-opacity:0;" />
    </linearGradient>
    <linearGradient
       id="linearGradient5037">
      <stop
         style="stop-color:#d6d1f9;stop-opacity:1.0000000;"
         offset="0.00000000"
         id="stop5039" />
      <stop
         style="stop-color:#9687fa;stop-opacity:1.0000000;"
         offset="1.0000000"
         id="stop5041" />
    </linearGradient>
    <linearGradient
       id="linearGradient4303">
      <stop
         id="stop4305"
         offset="0.00000000"
         style="stop-color:#d6d1f9;stop-opacity:1.0000000;" />
      <stop
         id="stop4307"
         offset="1.0000000"
         style="stop-color:#9687fa;stop-opacity:1.0000000;" />
    </linearGradient>
    <linearGradient
       id="linearGradient2115">
      <stop
         id="stop2117"
         offset="0.00000000"
         style="stop-color:#d2f1cb;stop-opacity:1.0000000;" />
      <stop
         id="stop2119"
         offset="1.0000000"
         style="stop-color:#cdf9c3;stop-opacity:0.42268041;" />
    </linearGradient>
    <linearGradient
       gradientUnits="userSpaceOnUse"
       y2="535.94427"
       x2="254.12024"
       y1="476.64795"
       x1="272.79681"
       id="linearGradient2121"
       xlink:href="#linearGradient2115" />
    <radialGradient
       gradientUnits="userSpaceOnUse"
       gradientTransform="matrix(1,0,0,0.960976,0,15.90946)"
       r="78.71347"
       fy="447.85394"
       fx="300.83069"
       cy="447.85394"
       cx="300.83069"
       id="radialGradient4309"
       xlink:href="#linearGradient4303" />
    <linearGradient
       gradientUnits="userSpaceOnUse"
       y2="543.98328"
       x2="253.46617"
       y1="641.64783"
       x1="225.8493"
       id="linearGradient5045"
       xlink:href="#linearGradient5037" />
    <linearGradient
       gradientUnits="userSpaceOnUse"
       y2="670.96942"
       x2="301.00812"
       y1="670.96942"
       x1="80.91246"
       id="linearGradient5779"
       xlink:href="#linearGradient5773" />
    <linearGradient
       gradientUnits="userSpaceOnUse"
       y2="428.55344"
       x2="579.09351"
       y1="428.55344"
       x1="456.6662"
       id="linearGradient6515"
       xlink:href="#linearGradient6509" />
    <linearGradient
       y2="554.4527"
       x2="272.07062"
       y1="609.15863"
       x1="209.93025"
       gradientUnits="userSpaceOnUse"
       id="linearGradient7979"
       xlink:href="#linearGradient7973" />
    <linearGradient
       gradientUnits="userSpaceOnUse"
       y2="501.72241"
       x2="201.15987"
       y1="630.79425"
       x1="202.42282"
       id="linearGradient8713"
       xlink:href="#linearGradient8707" />
    <clipPath
       id="clipPath5280"
       clipPathUnits="userSpaceOnUse">
      <rect
         ry="0"
         rx="0"
         y="319.53616"
         x="40.573822"
         height="475.6503"
         width="545.56213"
         id="rect5282"
         style="color:#000000;clip-rule:nonzero;display:inline;overflow:visible;visibility:visible;opacity:1;isolation:auto;mix-blend-mode:normal;color-interpolation:sRGB;color-interpolation-filters:linearRGB;solid-color:#000000;solid-opacity:1;fill:none;fill-opacity:1;fill-rule:nonzero;stroke:#000000;stroke-width:1;stroke-linecap:butt;stroke-linejoin:miter;stroke-miterlimit:4;stroke-dasharray:none;stroke-dashoffset:0;stroke-opacity:1;color-rendering:auto;image-rendering:auto;shape-rendering:auto;text-rendering:auto;enable-background:accumulate" />
    </clipPath>
  </defs>
  <metadata
     id="metadata7">
    <rdf:RDF>
      <cc:Work
         rdf:about="">
        <dc:format>image/svg+xml</dc:format>
        <dc:type
           rdf:resource="http://purl.org/dc/dcmitype/StillImage" />
        <dc:title></dc:title>
      </cc:Work>
    </rdf:RDF>
  </metadata>
  <g
     transform="translate(-40.573822,-319.53616)"
     id="layer1">
    <g
       clip-path="url(#clipPath5280)"
       id="g5187">
      <rect
         style="fill:#847ee0;fill-opacity:1;stroke:none;stroke-width:3;stroke-linecap:round;stroke-linejoin:round;stroke-miterlimit:4;stroke-dasharray:none;stroke-opacity:1"
         id="rect7982"
         width="444.29199"
         height="341.69943"
         x="49.641563"
         y="293.67365"
         rx="19.364426"
         ry="7.6283779" />
      <path
         style="color:#000000;display:inline;overflow:visible;visibility:visible;opacity:1;fill:url(#linearGradient5045);fill-opacity:1;fill-rule:nonzero;stroke:none;stroke-width:3.50611424;stroke-linecap:round;stroke-linejoin:round;stroke-miterlimit:4;stroke-dasharray:none;stroke-dashoffset:0;stroke-opacity:1;marker:none;marker-start:none;marker-mid:none;marker-end:none"
         d="M 444.63512,582.81521 C 334.05229,559.00919 278.76088,624.28377 218.09391,620.44409 157.42694,616.60441 100.59966,591.26251 63.738713,588.9587 38.058531,621.49574 5.7915156,674.44674 47.986844,705.8864 90.182172,737.32605 436.84575,727.39774 465.80333,700.92224 494.76091,674.44674 472.4222,599.9844 444.63512,582.81521 Z"
         id="path5050" />
      <path
         style="fill:#8ed97d;fill-opacity:1;fill-rule:evenodd;stroke:#3e7e42;stroke-width:2.98300004;stroke-linecap:butt;stroke-linejoin:miter;stroke-miterlimit:4;stroke-dasharray:none;stroke-opacity:1"
         d="m 142.76766,550.12665 c -6.61264,24.13966 -11.8087,80.44668 -15.07017,102.76314 -0.79833,-0.26403 -1.66218,-0.42708 -2.55084,-0.38784 -4.07635,0.18001 -7.21627,3.75729 -7.03003,7.97419 0.18623,4.21688 3.6279,7.47222 7.70424,7.29218 2.81933,-0.12453 5.11271,-1.91401 6.25061,-4.37379 1.21915,2.64877 3.9186,4.45646 7.00993,4.31993 4.07632,-0.18004 7.25229,-3.64945 7.07227,-7.7258 -0.18003,-4.07636 -3.64809,-7.22109 -7.72443,-7.04106 -0.0107,4.8e-4 -0.0205,8.6e-4 -0.0312,0.001 0.50714,-3.63566 10.59742,-70.7038 11.8144,-77.44174 1.25515,-6.94924 0.52045,-54.4578 -7.44476,-25.38059 z"
         id="path7191" />
      <path
         style="fill:#847ee0;fill-opacity:1;fill-rule:evenodd;stroke:#000000;stroke-width:4.19999981;stroke-linecap:butt;stroke-linejoin:miter;stroke-miterlimit:4;stroke-dasharray:none;stroke-opacity:1"
         d="m 451.73822,644.15714 c -33.92174,14.0651 -144.7879,22.3387 -206.83985,23.16606 C 182.84642,668.15056 97.628406,663.18641 60.397234,651.60337 41.37128,645.68419 23.04852,885.44927 31.322113,906.96061 39.595707,928.47195 384.07723,961.2663 456.0575,884.32188 c 71.98026,-76.94442 0.64488,-227.75435 -4.31928,-240.16474 z"
         id="path6528" />
      <path
         style="opacity:0.16666667;fill:url(#linearGradient5779);fill-opacity:1;fill-rule:evenodd;stroke:none;stroke-width:1px;stroke-linecap:butt;stroke-linejoin:miter;stroke-opacity:1"
         d="m 67.144386,666.93597 c 6.97604,14.08988 20.090209,15.81061 35.752214,12.50089 8.8234,-1.86458 37.49621,-3.78084 57.55233,4.0672 20.05611,7.84805 44.4378,-1.34783 73.21397,-3.09184 28.77616,-1.74401 37.53066,6.57986 56.71477,-3.01219 19.18411,-9.59206 63.65637,-12.20807 39.24023,-20.92812 -24.41614,-8.72005 -109.87263,-6.97604 -142.13682,-2.61602 -32.26418,4.36003 -103.768599,-16.56809 -115.976669,-11.33606 -12.948614,5.54941 -6.97604,12.20807 -4.360025,24.41614 z"
         id="path2123" />
      <path
         style="fill:none;fill-opacity:0.75;fill-rule:evenodd;stroke:none;stroke-width:1px;stroke-linecap:butt;stroke-linejoin:miter;stroke-opacity:1"
         d="m 70.112026,725.23378 c 126.667394,20.84959 246.471524,18.7376 368.230284,-2.58097"
         id="path3574" />
      <ellipse
         style="fill:url(#radialGradient4309);fill-opacity:1;stroke:none;stroke-width:3;stroke-linecap:round;stroke-linejoin:round;stroke-miterlimit:4;stroke-dasharray:none;stroke-opacity:1"
         id="path4320"
         transform="matrix(1.209432,0,0,1.129349,-77.09974,-97.35213)"
         cx="339.04388"
         cy="407.67966"
         rx="78.71347"
         ry="75.641724" />
      <path
         style="fill:#847ee0;fill-opacity:1;fill-rule:evenodd;stroke:#000000;stroke-width:4.19999981;stroke-linecap:butt;stroke-linejoin:miter;stroke-miterlimit:4;stroke-dasharray:none;stroke-opacity:1"
         d="m 457.99722,417.70211 c -33.92174,-14.0651 -144.7879,-22.3387 -206.83984,-23.16606 -62.05195,-0.82736 -147.26997,4.13679 -184.501141,15.71983 -19.02595,5.91918 -37.34871,-233.8459 -29.07512,-255.35724 8.27359,-21.51134 352.755111,-54.30569 424.735381,22.63873 71.98027,76.94442 0.64488,227.75435 -4.31928,240.16474 z"
         id="path3571" />
      <path
         id="path1336"
         style="fill:#ffffff;fill-opacity:1;fill-rule:evenodd;stroke:#000000;stroke-width:5.9000001;stroke-linecap:butt;stroke-linejoin:miter;stroke-miterlimit:4;stroke-dasharray:none;stroke-opacity:1"
         d="M 135.44492,353.99933 C 96.12916,389.20748 25.58968,730.47827 62.14911,761.13458 98.708538,791.79088 400.21822,795.35909 431.90555,758.97734 463.59288,722.59558 402.45644,387.16187 366.07469,355.47454 329.69293,323.78719 174.7607,318.79117 135.44492,353.99933 Z M -14.836285,231.54517 629.7647,233.1054 c 10.7279,0 19.36443,3.40225 19.36443,7.62837 l -7.1988,758.76805 c 0,4.22608 -8.63653,7.62838 -19.36443,7.62838 L -22.03509,1005.57 c -10.727891,0 -19.364425,-3.4023 -19.364425,-7.62841 l 7.198805,-758.76805 c 0,-4.22612 8.636534,-7.62837 19.364425,-7.62837 z" />
      <path
         style="color:#000000;display:inline;overflow:visible;visibility:visible;opacity:1;fill:url(#linearGradient6515);fill-opacity:1;fill-rule:nonzero;stroke:none;stroke-width:3;stroke-linecap:round;stroke-linejoin:round;stroke-miterlimit:4;stroke-dasharray:none;stroke-dashoffset:0;stroke-opacity:1;marker:none;marker-start:none;marker-mid:none;marker-end:none"
         d="m 456.66621,444.89871 c 18.61497,5.73515 36.84516,-6.01726 47.55693,0.7377 10.71176,6.75496 20.06188,16.41948 36.91404,14.87535 16.66794,-1.52725 37.95634,-9.5575 37.95634,-9.5575 0,0 -20.92313,-9.0258 -29.94912,-19.29193 -9.02601,-10.26612 -13.30975,-20.88639 -29.15219,-26.55472 -21.51435,-7.69771 -40.3773,-3.62749 -49.29134,-8.677 -11.2374,9.78098 -14.03466,48.4681 -14.03466,48.4681 z"
         id="path3572" />
      <path
         style="fill:none;fill-opacity:0.75;fill-rule:evenodd;stroke:#ffffff;stroke-width:4.86299992;stroke-linecap:round;stroke-linejoin:round;stroke-miterlimit:4;stroke-dasharray:none;stroke-opacity:1"
         d="m 476.70033,405.01034 -9.25388,33.26329 16.661,-1.93247"
         id="path3586" />
      <path
         style="fill:none;fill-opacity:0.75;fill-rule:evenodd;stroke:#ffffff;stroke-width:4.86299992;stroke-linecap:round;stroke-linejoin:round;stroke-miterlimit:4;stroke-dasharray:none;stroke-opacity:1"
         d="m 498.25829,406.72852 -5.64134,29.35932"
         id="path3588" />
      <path
         style="fill:none;fill-opacity:0.75;fill-rule:evenodd;stroke:#ffffff;stroke-width:4.86299992;stroke-linecap:round;stroke-linejoin:round;stroke-miterlimit:4;stroke-dasharray:none;stroke-opacity:1"
         d="m 523.32646,417.67134 c -3.5083,-5.14666 -16.64173,-13.01009 -17.99567,-1.93966 -1.35395,11.07046 20.0816,8.37001 14.77974,21.67162 -4.32011,10.83854 -18.21289,-3.72345 -18.21289,-3.72345"
         id="path3590" />
      <path
         style="fill:none;fill-opacity:0.75;fill-rule:evenodd;stroke:#ffffff;stroke-width:4.86299992;stroke-linecap:round;stroke-linejoin:round;stroke-miterlimit:4;stroke-dasharray:none;stroke-opacity:1"
         d="m 525.3614,451.003 5.99935,-27.93352 c 0,0 13.78364,10.04304 10.93077,16.70719 -3.87714,9.05678 -13.34011,-3.50266 -13.34011,-3.50266"
         id="path3592" />
      <g
         id="text2788"
         style="font-style:normal;font-variant:normal;font-weight:normal;font-stretch:normal;font-size:48px;line-height:125%;font-family:'Franklin Gothic Medium';text-align:start;writing-mode:lr-tb;text-anchor:start;fill:#ffffff;fill-opacity:1;stroke:#ffffff;stroke-width:1.82500005;stroke-linecap:round;stroke-linejoin:round;stroke-miterlimit:4;stroke-dasharray:none;stroke-opacity:1"
         transform="matrix(0.99982,-0.01898571,0.01898571,0.99982,-12.20996,-19.35574)">
        <path
           id="path5335"
           style="font-style:normal;font-variant:normal;font-weight:normal;font-stretch:normal;font-size:39.99998856px;line-height:125%;font-family:sans-serif;-inkscape-font-specification:sans-serif;text-align:start;writing-mode:lr-tb;text-anchor:start;fill:#ffffff;fill-opacity:1;stroke:#ffffff;stroke-width:1.82500005;stroke-linecap:round;stroke-linejoin:round;stroke-miterlimit:4;stroke-dasharray:none;stroke-opacity:1"
           d="m 78.272933,697.10123 5.814702,0.86647 4.435449,20.72379 10.323461,-18.52452 5.814705,0.86647 -4.2978,28.84169 -3.805634,-0.56709 3.773884,-25.32582 -10.385126,18.6733 -3.921542,-0.58436 -4.489692,-20.88985 -3.773884,25.32582 -3.786317,-0.56421 4.297794,-28.84169 z" />
        <path
           id="path5337"
           style="font-style:normal;font-variant:normal;font-weight:normal;font-stretch:normal;font-size:39.99998856px;line-height:125%;font-family:sans-serif;-inkscape-font-specification:sans-serif;text-align:start;writing-mode:lr-tb;text-anchor:start;fill:#ffffff;fill-opacity:1;stroke:#ffffff;stroke-width:1.82500005;stroke-linecap:round;stroke-linejoin:round;stroke-miterlimit:4;stroke-dasharray:none;stroke-opacity:1"
           d="m 119.19878,721.13684 q -4.32339,-0.52768 -6.11138,0.25758 -1.78799,0.78526 -2.07905,3.1699 -0.23189,1.89996 0.87166,3.17587 1.1253,1.25889 3.2773,1.52155 2.96627,0.36204 5.00546,-1.5141 2.06095,-1.89316 2.48688,-5.38289 l 0.097,-0.79488 -3.54789,-0.43303 z m 7.295,-0.60502 -1.51205,12.38854 -3.56727,-0.4354 0.40226,-3.29585 q -1.46276,1.82843 -3.40112,2.55599 -1.936,0.70816 -4.57268,0.38635 -3.33463,-0.407 -5.08498,-2.50955 -1.72859,-2.11957 -1.34526,-5.26032 0.44723,-3.66422 3.1172,-5.22725 2.68936,-1.56068 7.55559,-0.96674 l 5.00194,0.6105 0.0426,-0.34897 q 0.30052,-2.4622 -1.16475,-3.9987 -1.44351,-1.55351 -4.371,-1.91082 -1.86119,-0.22716 -3.67986,0.003 -1.81868,0.23058 -3.55607,0.92364 l 0.40227,-3.29586 q 2.05041,-0.51711 3.93717,-0.66068 1.88912,-0.16295 3.63399,0.05 4.71113,0.575 6.73946,3.30176 2.02834,2.72677 1.42257,7.68993 z" />
        <path
           id="path5339"
           style="font-style:normal;font-variant:normal;font-weight:normal;font-stretch:normal;font-size:39.99998856px;line-height:125%;font-family:sans-serif;-inkscape-font-specification:sans-serif;text-align:start;writing-mode:lr-tb;text-anchor:start;fill:#ffffff;fill-opacity:1;stroke:#ffffff;stroke-width:1.82500005;stroke-linecap:round;stroke-linejoin:round;stroke-miterlimit:4;stroke-dasharray:none;stroke-opacity:1"
           d="m 148.50978,716.69247 1.1651,-11.77845 3.5763,0.35376 -2.99158,30.24302 -3.57629,-0.35376 0.32299,-3.26531 q -1.31957,1.83213 -3.14361,2.6134 -1.80269,0.76375 -4.2128,0.52535 -3.94559,-0.39029 -6.12198,-3.78508 -2.15696,-3.39286 -1.64939,-8.52407 0.50756,-5.1312 3.28745,-8.03573 2.79932,-2.9026 6.7449,-2.51231 2.41011,0.2384 4.02631,1.35998 1.63755,1.10405 2.5726,3.1592 z m -12.93835,6.39416 q -0.39029,3.94558 0.99991,6.35978 1.41155,2.39668 4.24927,2.67739 2.83771,0.2807 4.69147,-1.79299 1.85567,-2.09312 2.24596,-6.03871 0.39029,-3.94558 -1.02127,-6.34227 -1.40963,-2.41612 -4.24734,-2.69682 -2.83771,-0.2807 -4.69339,1.81242 -1.83432,2.07561 -2.22461,6.0212 z" />
        <path
           id="path5341"
           style="font-style:normal;font-variant:normal;font-weight:normal;font-stretch:normal;font-size:39.99998856px;line-height:125%;font-family:sans-serif;-inkscape-font-specification:sans-serif;text-align:start;writing-mode:lr-tb;text-anchor:start;fill:#ffffff;fill-opacity:1;stroke:#ffffff;stroke-width:1.82500005;stroke-linecap:round;stroke-linejoin:round;stroke-miterlimit:4;stroke-dasharray:none;stroke-opacity:1"
           d="m 177.1841,725.75529 -0.13237,1.75282 -16.47652,-1.24419 q -0.0457,3.71805 1.79374,5.81563 1.86041,2.07959 5.42448,2.34872 2.06444,0.1559 4.03078,-0.20488 1.98582,-0.3593 3.97092,-1.22791 l -0.2559,3.38878 q -1.98987,0.67239 -4.04771,0.94791 -2.05784,0.27551 -4.14175,0.11815 -5.21951,-0.39414 -8.04778,-3.66326 -2.8088,-3.26765 -2.4176,-8.44822 0.40444,-5.35584 3.52364,-8.27378 3.14014,-2.93595 8.04804,-2.56534 4.40153,0.33238 6.73814,3.3685 2.35756,3.01812 1.98989,7.88707 z m -3.50413,-1.3223 q 0.18312,-2.94378 -1.30101,-4.81867 -1.46466,-1.87342 -4.11336,-2.07343 -2.99928,-0.22649 -4.93848,1.33113 -1.91972,1.5591 -2.42475,4.61568 l 12.7776,0.94529 z" />
        <path
           id="path5343"
           style="font-style:normal;font-variant:normal;font-weight:normal;font-stretch:normal;font-size:39.99998856px;line-height:125%;font-family:sans-serif;-inkscape-font-specification:sans-serif;text-align:start;writing-mode:lr-tb;text-anchor:start;fill:#ffffff;fill-opacity:1;stroke:#ffffff;stroke-width:1.82500005;stroke-linecap:round;stroke-linejoin:round;stroke-miterlimit:4;stroke-dasharray:none;stroke-opacity:1"
           d="m 193.60285,716.71098 3.59137,0.13076 3.8681,17.22246 5.0908,-16.89627 4.23548,0.15422 3.8681,17.22245 5.0908,-16.89626 3.59137,0.13076 -6.5148,21.65229 -4.23547,-0.15422 -4.05153,-18.08907 -5.37581,17.74583 -4.23548,-0.15422 -4.92293,-22.06873 z" />
        <path
           id="path5345"
           style="font-style:normal;font-variant:normal;font-weight:normal;font-stretch:normal;font-size:39.99998856px;line-height:125%;font-family:sans-serif;-inkscape-font-specification:sans-serif;text-align:start;writing-mode:lr-tb;text-anchor:start;fill:#ffffff;fill-opacity:1;stroke:#ffffff;stroke-width:1.82500005;stroke-linecap:round;stroke-linejoin:round;stroke-miterlimit:4;stroke-dasharray:none;stroke-opacity:1"
           d="m 227.95608,717.776 3.59331,0.0562 -0.34218,21.87232 -3.59331,-0.0562 0.34218,-21.87232 z m 0.13321,-8.51458 3.59331,0.0562 -0.0712,4.55022 -3.59331,-0.0562 0.0712,-4.55023 z" />
        <path
           id="path5347"
           style="font-style:normal;font-variant:normal;font-weight:normal;font-stretch:normal;font-size:39.99998856px;line-height:125%;font-family:sans-serif;-inkscape-font-specification:sans-serif;text-align:start;writing-mode:lr-tb;text-anchor:start;fill:#ffffff;fill-opacity:1;stroke:#ffffff;stroke-width:1.82500005;stroke-linecap:round;stroke-linejoin:round;stroke-miterlimit:4;stroke-dasharray:none;stroke-opacity:1"
           d="m 242.34429,711.71326 -0.0183,6.21091 7.40231,0.0218 -0.008,2.79296 -7.40231,-0.0218 -0.035,11.87494 q -0.008,2.67577 0.71251,3.43962 0.73994,0.7639 2.98602,0.77053 l 3.69139,0.0109 -0.009,3.0078 -3.69139,-0.0109 q -4.16014,-0.0123 -5.73761,-1.5599 -1.57741,-1.56716 -1.56531,-5.6687 l 0.035,-11.87495 -2.63671,-0.008 0.008,-2.79295 2.63671,0.008 0.0183,-6.2109 3.61326,0.0106 z" />
        <path
           id="path5349"
           style="font-style:normal;font-variant:normal;font-weight:normal;font-stretch:normal;font-size:39.99998856px;line-height:125%;font-family:sans-serif;-inkscape-font-specification:sans-serif;text-align:start;writing-mode:lr-tb;text-anchor:start;fill:#ffffff;fill-opacity:1;stroke:#ffffff;stroke-width:1.82500005;stroke-linecap:round;stroke-linejoin:round;stroke-miterlimit:4;stroke-dasharray:none;stroke-opacity:1"
           d="m 272.37389,726.30772 0.21749,13.20132 -3.59327,0.0592 -0.21555,-13.08416 q -0.0512,-3.10504 -1.28735,-4.62785 -1.23619,-1.52282 -3.65773,-1.48292 -2.90976,0.0479 -4.55866,1.93082 -1.64889,1.88289 -1.59613,5.08558 l 0.20365,12.3616 -3.61279,0.0595 -0.5006,-30.3865 3.61279,-0.0595 0.19625,11.91245 q 1.25639,-1.99363 2.97835,-2.99869 1.74149,-1.00539 4.02633,-1.04303 3.76902,-0.0621 5.74096,2.24949 1.97162,2.29205 2.04626,6.82269 z" />
        <path
           id="path5351"
           style="font-style:normal;font-variant:normal;font-weight:normal;font-stretch:normal;font-size:39.99998856px;line-height:125%;font-family:sans-serif;-inkscape-font-specification:sans-serif;text-align:start;writing-mode:lr-tb;text-anchor:start;fill:#ffffff;fill-opacity:1;stroke:#ffffff;stroke-width:1.82500005;stroke-linecap:round;stroke-linejoin:round;stroke-miterlimit:4;stroke-dasharray:none;stroke-opacity:1"
           d="m 305.38513,716.89766 0.17022,3.39417 q -1.56065,-0.70397 -3.21878,-1.01193 -1.65813,-0.30795 -3.41374,-0.21991 -2.67242,0.13402 -3.9773,1.02081 -1.28537,0.8858 -1.20319,2.52437 0.0626,1.24843 1.05463,1.92224 0.99105,0.65431 3.91033,1.15325 l 1.24262,0.21146 q 3.86441,0.62754 5.53929,2.04934 1.6934,1.40131 1.82743,4.07373 0.15261,3.04305 -2.1772,4.93947 -2.3103,1.89544 -6.52376,2.10675 -1.7556,0.088 -3.68487,-0.1672 -1.90879,-0.23672 -4.04975,-0.81381 l -0.18588,-3.70627 q 2.04154,0.93407 3.99912,1.3639 1.9566,0.41033 3.84875,0.31543 2.53588,-0.12717 3.85831,-1.05395 1.32144,-0.94628 1.2422,-2.52633 -0.0734,-1.463 -1.10734,-2.19338 -1.01447,-0.73135 -4.38632,-1.28582 l -1.2631,-0.22999 q -3.37087,-0.53495 -4.92577,-1.9041 -1.55589,-1.38866 -1.68306,-3.92453 -0.15457,-3.08207 1.94605,-4.86921 2.10062,-1.78715 6.11901,-1.98867 1.98968,-0.0998 3.75996,0.10477 1.77028,0.20455 3.28214,0.71541 z" />
        <path
           id="path5353"
           style="font-style:normal;font-variant:normal;font-weight:normal;font-stretch:normal;font-size:39.99998856px;line-height:125%;font-family:sans-serif;-inkscape-font-specification:sans-serif;text-align:start;writing-mode:lr-tb;text-anchor:start;fill:#ffffff;fill-opacity:1;stroke:#ffffff;stroke-width:1.82500005;stroke-linecap:round;stroke-linejoin:round;stroke-miterlimit:4;stroke-dasharray:none;stroke-opacity:1"
           d="m 331.17344,724.55904 0.12493,1.75336 -16.48164,1.1744 q 0.49753,3.68489 2.6235,5.49149 2.14406,1.78572 5.70924,1.53168 2.06508,-0.14715 3.95769,-0.79111 1.91209,-0.64534 3.74912,-1.79444 l 0.24155,3.38984 q -1.8704,0.95567 -3.86597,1.52864 -1.99558,0.57297 -4.08013,0.72151 -5.22114,0.37203 -8.49635,-2.4492 -3.25572,-2.82261 -3.62498,-8.00478 -0.38175,-5.35751 2.27807,-8.69954 2.67791,-3.3629 7.58734,-3.71272 4.4029,-0.31372 7.15769,2.34877 2.77289,2.64163 3.11994,7.5121 z m -3.65962,-0.7966 q -0.24858,-2.93898 -1.99051,-4.57713 -1.72245,-1.63954 -4.37198,-1.45074 -3.00021,0.21378 -4.69125,2.0378 -1.67156,1.82263 -1.72497,4.9202 l 12.77871,-0.93013 z" />
        <path
           id="path5355"
           style="font-style:normal;font-variant:normal;font-weight:normal;font-stretch:normal;font-size:39.99998856px;line-height:125%;font-family:sans-serif;-inkscape-font-specification:sans-serif;text-align:start;writing-mode:lr-tb;text-anchor:start;fill:#ffffff;fill-opacity:1;stroke:#ffffff;stroke-width:1.82500005;stroke-linecap:round;stroke-linejoin:round;stroke-miterlimit:4;stroke-dasharray:none;stroke-opacity:1"
           d="m 351.62584,713.45351 0.3099,3.34505 q -1.59441,-0.69573 -3.16864,-0.9618 -1.55658,-0.28731 -3.11241,-0.14317 -3.48119,0.32251 -5.20114,2.71795 -1.72175,2.37599 -1.35239,6.36283 0.36936,3.98683 2.50011,6.02552 2.12895,2.01925 5.61013,1.69673 1.55584,-0.14414 3.03494,-0.69308 1.49675,-0.57019 2.93622,-1.54699 l 0.3063,3.30615 q -1.43263,0.83886 -3.01438,1.33847 -1.56231,0.49781 -3.37097,0.66537 -4.92033,0.45584 -8.10455,-2.36792 -3.18423,-2.82377 -3.6707,-8.07471 -0.49368,-5.32875 2.14064,-8.65234 2.65376,-3.32539 7.74913,-3.79745 1.65308,-0.15315 3.26079,0.051 1.60592,0.18467 3.14702,0.72842 z" />
        <path
           id="path5357"
           style="font-style:normal;font-variant:normal;font-weight:normal;font-stretch:normal;font-size:39.99998856px;line-height:125%;font-family:sans-serif;-inkscape-font-specification:sans-serif;text-align:start;writing-mode:lr-tb;text-anchor:start;fill:#ffffff;fill-opacity:1;stroke:#ffffff;stroke-width:1.82500005;stroke-linecap:round;stroke-linejoin:round;stroke-miterlimit:4;stroke-dasharray:none;stroke-opacity:1"
           d="m 370.40129,713.9407 q -0.64019,-0.28345 -1.37558,-0.35998 -0.7181,-0.0981 -1.57235,-0.004 -3.02871,0.3322 -4.44234,2.49139 -1.39635,2.13764 -0.99175,5.82646 l 1.25641,11.45473 -3.59174,0.39396 -2.38504,-21.74458 3.59174,-0.39396 0.37053,3.37818 q 0.90885,-2.10383 2.61008,-3.2532 1.69911,-1.16878 4.28127,-1.452 0.36889,-0.0405 0.82181,-0.0312 0.4508,-0.0101 1.00507,0.0273 l 0.42189,3.66727 z" />
        <path
           id="path5359"
           style="font-style:normal;font-variant:normal;font-weight:normal;font-stretch:normal;font-size:39.99998856px;line-height:125%;font-family:sans-serif;-inkscape-font-specification:sans-serif;text-align:start;writing-mode:lr-tb;text-anchor:start;fill:#ffffff;fill-opacity:1;stroke:#ffffff;stroke-width:1.82500005;stroke-linecap:round;stroke-linejoin:round;stroke-miterlimit:4;stroke-dasharray:none;stroke-opacity:1"
           d="m 392.41127,717.88761 0.22249,1.74368 -16.39054,2.0914 q 0.70219,3.65143 2.92557,5.33669 2.24028,1.66341 5.78575,1.21102 2.05366,-0.26205 3.90743,-1.01051 1.87314,-0.75094 3.64326,-2.00067 l 0.43014,3.37111 q -1.81421,1.05845 -3.77474,1.74178 -1.96052,0.68333 -4.03356,0.94785 -5.19227,0.66253 -8.61967,-1.97172 -3.40802,-2.63672 -4.0656,-7.79025 -0.67983,-5.32789 1.78954,-8.81301 2.48627,-3.50696 7.36856,-4.12993 4.37856,-0.55869 7.2775,1.94609 2.91585,2.48293 3.53387,7.32647 z m -3.69834,-0.59133 q -0.41203,-2.92056 -2.24258,-4.45905 -1.81117,-1.54096 -4.44606,-1.20475 -2.98362,0.3807 -4.57034,2.29616 -1.56735,1.91299 -1.448,5.00872 l 12.70698,-1.64108 z" />
        <path
           id="path5361"
           style="font-style:normal;font-variant:normal;font-weight:normal;font-stretch:normal;font-size:39.99998856px;line-height:125%;font-family:sans-serif;-inkscape-font-specification:sans-serif;text-align:start;writing-mode:lr-tb;text-anchor:start;fill:#ffffff;fill-opacity:1;stroke:#ffffff;stroke-width:1.82500005;stroke-linecap:round;stroke-linejoin:round;stroke-miterlimit:4;stroke-dasharray:none;stroke-opacity:1"
           d="m 399.22695,700.47248 0.89285,6.14642 7.32546,-1.06412 0.4015,2.76396 -7.32545,1.06412 1.70708,11.75166 q 0.38466,2.64798 1.20931,3.29791 0.84398,0.64711 3.06674,0.32422 l 3.65307,-0.53065 0.43238,2.97657 -3.65306,0.53065 q -4.11694,0.59805 -5.90435,-0.70147 -1.79022,-1.31885 -2.37984,-5.37781 l -1.70709,-11.75165 -2.60933,0.37904 -0.4015,-2.76396 2.60933,-0.37904 -0.89285,-6.14643 3.57575,-0.51942 z" />
      </g>
      <path
         style="fill:url(#linearGradient8713);fill-opacity:1;fill-rule:evenodd;stroke:#3e7e42;stroke-width:2.98300004;stroke-linecap:butt;stroke-linejoin:miter;stroke-miterlimit:4;stroke-dasharray:none;stroke-opacity:1"
         d="m 270.51899,473.63452 c -84.48716,-0.30568 -153.18488,34.98882 -162.42524,63.68629 -7.67125,23.8244 -18.247313,91.41314 -22.490216,113.56397 -0.785899,-0.29899 -1.641718,-0.5 -2.53125,-0.5 -4.080315,-2e-5 -7.375003,3.43524 -7.375,7.65625 -2e-6,4.22099 3.294687,7.62501 7.375,7.625 2.822088,-2e-5 5.192182,-1.68657 6.4375,-4.09375 1.101096,2.69997 3.718166,4.62501 6.8125,4.625 4.080306,-2e-5 7.406246,-3.32592 7.406246,-7.40625 0,-4.08033 -3.32594,-7.37501 -7.406246,-7.375 -0.01072,0 -0.02054,-5e-5 -0.03125,0 0.667053,-3.60975 10.758396,-60.59529 15.325656,-70.32716 3.00016,-6.39269 127.22495,-12.23076 129.13331,-6.36181 2.75651,8.47741 -4.47186,62.38166 -6.11522,83.94307 -0.3885,-0.0524 -0.75118,-0.1696 -1.15625,-0.15625 -4.0781,0.13438 -7.264,3.68753 -7.125,7.90625 0.139,4.21873 3.54691,7.50937 7.625,7.375 2.82055,-0.093 5.11588,-1.86562 6.28125,-4.3125 1.18942,2.66225 3.8761,4.50816 6.96875,4.40625 4.0781,-0.13436 7.29062,-3.57813 7.15625,-7.65625 -0.13436,-4.0781 -3.54689,-7.25938 -7.625,-7.125 -0.34978,0.0115 -0.66792,0.12804 -1,0.1875 1.16455,-16.54846 9.33895,-82.75082 13.66414,-87.65204 2.95554,-3.34917 27.68438,-4.86044 28.46466,0.49621 0.68474,4.70097 11.45474,75.28627 10.14516,82.6735 -7.93678,-0.25954 -11.10001,11.85267 -6.88858,11.56849 l 24.40026,-1.64647 c 4.07105,-0.2747 1.2576,-9.18711 -8.51168,-10.29702 3.84381,-16.68234 -3.91755,-90.47097 -2.56499,-92.46074 1.56055,-2.29572 9.37599,-15.31716 10.15625,-24.5 0.1078,-1.2687 0.0949,-3.55331 -0.0625,-6.3125 24.40538,4.68285 40.79401,7.82437 51.5779,1.9003 15.26167,-8.38392 18.13662,-14.58872 33.6721,-24.80655 19.34658,-12.72443 33.86428,-5.09763 43.1346,-6.99773 9.27033,-1.90005 4.98098,-14.29243 10.57688,-23.75778 6.0758,-10.27709 -21.48155,-17.51528 -27.80412,-9.41405 -7.86826,10.08175 -6.45784,17.11332 -13.54677,19.57532 -9.29566,3.22839 -29.48169,15.55796 -36.08607,20.2185 -11.18799,7.89507 -21.22561,14.49785 -41.24327,6.87574 -14.80382,-7.38448 -11.61477,-23.91178 -31.03125,-32.125 -9.42266,-4.84362 -18.54124,-8.66535 -25.875,-9.9375 -0.38196,-0.0865 -0.76654,-0.14265 -1.15625,-0.21875 -0.45413,-0.063 -0.90584,-0.11608 -1.34375,-0.15625 -1.7146,-0.27746 -3.05479,1.38268 -4.91851,1.31371 z"
         id="path1306" />
      <path
         transform="matrix(0.989097,0.147266,-0.270564,0.962702,0,0)"
         style="fill:#e0773e;fill-opacity:1;stroke:#000000;stroke-width:2.73355603;stroke-miterlimit:4;stroke-opacity:1"
         d="m 560.34112,321.05953 c 2.26531,0 4.27992,1.62816 4.27992,5.82085 l -0.62543,114.7305 c 0,4.19269 -1.40199,5.44195 -3.6673,5.44195 -2.2653,0 -4.5107,-1.24926 -4.5107,-5.44195 l 0.62543,-114.7305 c 0,-4.19269 1.63278,-5.82085 3.89808,-5.82085 z"
         id="rect2844" />
      <path
         style="fill:#ffffff;fill-opacity:1;fill-rule:evenodd;stroke:none;stroke-width:1px;stroke-linecap:butt;stroke-linejoin:miter;stroke-opacity:1"
         d="m 246.1431,509.1111 c -5.12191,17.72966 8.86483,23.24556 8.86483,23.24556 0,0 5.5159,3.54593 9.84981,4.72791 4.33392,1.18198 21.81734,6.20538 23.24556,-13.19875 -6.64862,-1.87146 -41.9602,-14.77472 -41.9602,-14.77472 z"
         id="path9395" />
      <path
         style="color:#000000;display:inline;overflow:visible;visibility:visible;opacity:1;fill:#a3a3a3;fill-opacity:1;fill-rule:evenodd;stroke:#000000;stroke-width:4.19999981;stroke-linecap:butt;stroke-linejoin:miter;stroke-miterlimit:4;stroke-dasharray:none;stroke-dashoffset:0;stroke-opacity:1;marker:none;marker-start:none;marker-mid:none;marker-end:none"
         d="m 327.79129,662.887 -46.90016,3.56849"
         id="path7193" />
      <path
         style="fill:none;fill-opacity:0.75;fill-rule:evenodd;stroke:#000000;stroke-width:1px;stroke-linecap:butt;stroke-linejoin:miter;stroke-opacity:1"
         d="m 281.99642,521.91586 -3.74293,16.54768"
         id="path10849" />
      <path
         style="fill:none;fill-opacity:0.75;fill-rule:evenodd;stroke:#000000;stroke-width:1px;stroke-linecap:butt;stroke-linejoin:miter;stroke-opacity:1"
         d="m 275.88954,520.33989 -4.13693,18.12365"
         id="path10851" />
      <path
         style="fill:none;fill-opacity:0.75;fill-rule:evenodd;stroke:#000000;stroke-width:1px;stroke-linecap:butt;stroke-linejoin:miter;stroke-opacity:1"
         d="m 270.17664,517.97593 -4.13692,18.71465"
         id="path10853" />
      <path
         style="fill:none;fill-opacity:0.75;fill-rule:evenodd;stroke:#000000;stroke-width:1px;stroke-linecap:butt;stroke-linejoin:miter;stroke-opacity:1"
         d="m 264.66075,516.00597 -4.13692,18.71464 4.13692,-18.71464 z"
         id="path10855" />
      <path
         style="fill:none;fill-opacity:0.75;fill-rule:evenodd;stroke:#000000;stroke-width:1px;stroke-linecap:butt;stroke-linejoin:miter;stroke-opacity:1"
         d="m 258.94785,514.03601 -3.93992,18.32065"
         id="path10857" />
      <path
         style="fill:none;fill-opacity:0.75;fill-rule:evenodd;stroke:#000000;stroke-width:1px;stroke-linecap:butt;stroke-linejoin:miter;stroke-opacity:1"
         d="m 254.02295,512.26304 -3.74293,15.9567"
         id="path10859" />
      <path
         style="fill:none;fill-opacity:0.75;fill-rule:evenodd;stroke:#000000;stroke-width:1px;stroke-linecap:butt;stroke-linejoin:miter;stroke-opacity:1"
         d="m 249.49203,510.09608 -2.95494,12.21377"
         id="path10861" />
      <path
         style="fill:none;fill-opacity:0.75;fill-rule:evenodd;stroke:#000000;stroke-width:1px;stroke-linecap:butt;stroke-linejoin:miter;stroke-opacity:1"
         d="m 286.52734,531.37168 c -12.60777,-0.39399 -33.09538,-7.28886 -41.56622,-14.18373"
         id="path10863" />
      <path
         style="color:#000000;display:inline;overflow:visible;visibility:visible;opacity:1;fill:none;fill-opacity:1;fill-rule:evenodd;stroke:#3e7e42;stroke-width:2.98300004;stroke-linecap:butt;stroke-linejoin:miter;stroke-miterlimit:4;stroke-dasharray:none;stroke-dashoffset:0;stroke-opacity:1;marker:none;marker-start:none;marker-mid:none;marker-end:none"
         d="M 314.73918,531.21038 C 287.29383,524.26287 246.5086,508.8887 246.5086,508.8887 c 0,0 -9.85664,22.22523 22.81659,29.2595 18.24929,3.9289 18.79631,-13.89076 18.79631,-13.89076"
         id="path1334" />
      <path
         style="color:#000000;display:inline;overflow:visible;visibility:visible;opacity:1;fill:#9af286;fill-opacity:1;fill-rule:evenodd;stroke:#3e7e42;stroke-width:2.98300004;stroke-linecap:round;stroke-linejoin:miter;stroke-miterlimit:4;stroke-dasharray:none;stroke-dashoffset:0;stroke-opacity:1;marker:none;marker-start:none;marker-mid:none;marker-end:none"
         d="m 448.05225,488.20443 c 9.49254,1.22673 12.30691,-9.45061 9.03192,-14.51678 -2.98426,-4.61643 -13.23681,-9.63863 -15.84524,-3.274 -1.95575,4.77208 3.21281,7.4826 7.52625,7.03783"
         id="path1319" />
      <path
         style="color:#000000;display:inline;overflow:visible;visibility:visible;opacity:1;fill:#9af286;fill-opacity:1;fill-rule:evenodd;stroke:#3e7e42;stroke-width:2.98300004;stroke-linecap:round;stroke-linejoin:miter;stroke-miterlimit:4;stroke-dasharray:none;stroke-dashoffset:0;stroke-opacity:1;marker:none;marker-start:none;marker-mid:none;marker-end:none"
         d="m 444.43069,493.83066 c -3.87281,-2.0276 -9.26866,-1.59952 -6.84526,-8.26922 1.7913,-4.93005 7.69086,-1.14693 15.59606,4.26081 7.90521,5.40773 -0.29336,12.10016 -9.89445,11.27085"
         id="path1317" />
      <path
         style="color:#000000;display:inline;overflow:visible;visibility:visible;opacity:1;fill:#9af286;fill-opacity:1;fill-rule:evenodd;stroke:#3e7e42;stroke-width:2.98300004;stroke-linecap:round;stroke-linejoin:miter;stroke-miterlimit:4;stroke-dasharray:none;stroke-dashoffset:0;stroke-opacity:1;marker:none;marker-start:none;marker-mid:none;marker-end:none"
         d="m 419.57651,478.78648 c 3.24366,-5.76566 4.19563,-11.58586 7.71095,-12.79303 3.39406,-1.16551 11.51772,-7.10401 14.43778,-5.53476 2.92001,1.56926 5.25102,7.17499 -4.13314,11.68676 -4.47504,2.15154 -4.66421,7.82618 -8.30039,10.07632"
         id="path1315" />
      <path
         style="fill:#54de61;fill-opacity:1;fill-rule:evenodd;stroke:none;stroke-width:0.20767665px;stroke-linecap:butt;stroke-linejoin:miter;stroke-opacity:1"
         d="m 204.67588,506.38984 c 0,0 19.71233,-3.21079 18.04934,-14.46353 -1.39777,-9.45814 -15.59487,-7.34933 -22.73259,-5.55203 0.45256,5.73548 1.21771,8.8887 -5.33953,11.64678 6.59465,-0.13557 8.10559,1.82627 10.02278,8.36878 z"
         id="path15231" />
      <path
         id="path15959"
         d="m 206.84427,528.80171 c 0,0 19.96989,-0.29796 19.96785,-11.67292 -0.002,-9.56087 -14.35456,-9.54773 -21.67822,-8.81195 -0.38979,5.74009 -0.0933,8.97124 -6.98297,10.74226 6.54376,0.82884 7.75204,2.99028 8.69334,9.74261 z"
         style="fill:#54de61;fill-opacity:1;fill-rule:evenodd;stroke:none;stroke-width:0.20767665px;stroke-linecap:butt;stroke-linejoin:miter;stroke-opacity:1" />
      <path
         style="fill:#54de61;fill-opacity:1;fill-rule:evenodd;stroke:none;stroke-width:0.20767665px;stroke-linecap:butt;stroke-linejoin:miter;stroke-opacity:1"
         d="m 207.00459,552.07477 c 0,0 19.93283,1.25188 20.8131,-10.08896 0.73989,-9.5322 -13.57075,-10.63238 -20.92942,-10.46687 -0.83384,5.69256 -0.78884,8.93698 -7.79515,10.16827 6.45976,1.33391 7.49675,3.58256 7.91147,10.38756 z"
         id="path15961" />
      <path
         style="fill:#54de61;fill-opacity:1;fill-rule:evenodd;stroke:none;stroke-width:0.20767665px;stroke-linecap:butt;stroke-linejoin:miter;stroke-opacity:1"
         d="m 206.34375,554.53125 c -1.20474,5.62574 -1.3656,8.88632 -8.4375,9.65625 5.39806,1.48903 6.79673,3.54147 7.09375,8.25 6.46987,-0.0967 12.37346,-0.0898 17.5,0.0312 2.08495,-1.34381 3.62602,-3.31029 4.03125,-6.125 1.36241,-9.46328 -12.83377,-11.49586 -20.1875,-11.8125 z"
         id="path15963" />
      <path
         style="fill:#54de61;fill-opacity:1;fill-rule:evenodd;stroke:none;stroke-width:0.20767665px;stroke-linecap:butt;stroke-linejoin:miter;stroke-opacity:1"
         d="m 196.03125,482.84375 c -8.50678,2.19908 -16.60526,4.72212 -24.15625,7.5 4.49225,0.94642 5.69246,3.11174 6.5,8.625 0,-10e-6 19.75065,-0.57018 19.75,-11.28125 -1.2e-4,-2.09028 -0.82895,-3.63898 -2.09375,-4.84375 z"
         id="path15965" />
      <path
         id="path15967"
         d="m 182.5581,519.59489 c 0,0 19.73583,-0.50615 19.76401,-11.21718 0.0237,-9.00286 -14.16044,-8.82837 -21.39994,-8.0528 -0.40042,5.40947 -0.11595,8.44869 -6.92934,10.19419 6.46462,0.70653 7.65295,2.72819 8.56527,9.07579 z"
         style="fill:#54de61;fill-opacity:1;fill-rule:evenodd;stroke:none;stroke-width:0.20767665px;stroke-linecap:butt;stroke-linejoin:miter;stroke-opacity:1" />
      <path
         style="fill:#54de61;fill-opacity:1;fill-rule:evenodd;stroke:none;stroke-width:0.20767665px;stroke-linecap:butt;stroke-linejoin:miter;stroke-opacity:1"
         d="m 184.40776,541.79081 c 0,0 19.73583,-0.50615 19.76401,-11.21718 0.0237,-9.00286 -14.16044,-8.82837 -21.39994,-8.0528 -0.40042,5.40947 -0.11595,8.44869 -6.92934,10.19419 6.46462,0.70653 7.65295,2.72819 8.56527,9.07579 z"
         id="path15971" />
      <path
         id="path15973"
         d="m 184.54511,562.8763 c 0,0 19.71057,1.11917 20.61982,-9.55324 0.76424,-8.97039 -13.38616,-9.96338 -20.66492,-9.78601 -0.84409,5.3582 -0.81061,8.41052 -7.7445,9.58958 6.38458,1.23596 7.40257,3.34853 7.7896,9.74967 z"
         style="fill:#54de61;fill-opacity:1;fill-rule:evenodd;stroke:none;stroke-width:0.20767665px;stroke-linecap:butt;stroke-linejoin:miter;stroke-opacity:1" />
      <path
         style="fill:#54de61;fill-opacity:1;fill-rule:evenodd;stroke:none;stroke-width:0.20767665px;stroke-linecap:butt;stroke-linejoin:miter;stroke-opacity:1"
         d="m 182.96875,564.8125 c -0.64452,4.09133 -0.85507,6.81112 -3.96875,8.40625 8.45278,-0.38594 16.60321,-0.64579 24.34375,-0.78125 -1.58487,-6.90857 -13.75063,-7.78642 -20.375,-7.625 z"
         id="path15975" />
      <path
         id="path15977"
         d="m 159.98437,513.0556 c 0,0 19.56461,-2.64291 18.43134,-13.29386 -0.95253,-8.95236 -14.33938,-5.75232 -21.45211,-4.19642 0.18842,5.42101 0.10598,6.92272 -6.47801,9.39662 6.50312,10e-4 7.90363,1.88239 9.49878,8.09366 z"
         style="fill:#54de61;fill-opacity:1;fill-rule:evenodd;stroke:none;stroke-width:0.20767665px;stroke-linecap:butt;stroke-linejoin:miter;stroke-opacity:1" />
      <path
         style="fill:#54de61;fill-opacity:1;fill-rule:evenodd;stroke:none;stroke-width:0.20767665px;stroke-linecap:butt;stroke-linejoin:miter;stroke-opacity:1"
         d="m 162.14231,533.71013 c 0,0 19.56461,-2.64291 18.43134,-13.29386 -0.95253,-8.95236 -15.03413,-7.24107 -22.14686,-5.68517 0.18842,5.42101 0.80073,8.41147 -5.78326,10.88537 6.50312,10e-4 7.90363,1.88239 9.49878,8.09366 z"
         id="path15979" />
      <path
         id="path15981"
         d="m 161.73793,553.35464 c 0,0 19.74229,0.0327 20.06281,-10.67356 0.26941,-8.99886 -13.9142,-9.21158 -21.17216,-8.6339 -0.54793,5.39654 -0.34651,8.44239 -7.20501,10.00126 6.44293,0.88272 7.57563,2.93607 8.31436,9.3062 z"
         style="fill:#54de61;fill-opacity:1;fill-rule:evenodd;stroke:none;stroke-width:0.20767665px;stroke-linecap:butt;stroke-linejoin:miter;stroke-opacity:1" />
      <path
         style="fill:#54de61;fill-opacity:1;fill-rule:evenodd;stroke:none;stroke-width:0.20767665px;stroke-linecap:butt;stroke-linejoin:miter;stroke-opacity:1"
         d="m 160.85077,573.63589 c 0,0 19.70416,1.22681 20.67169,-9.44047 0.81323,-8.96609 -13.33154,-10.03634 -20.61116,-9.89874 -0.87334,5.35351 -0.85653,8.40597 -7.79676,9.54713 6.37774,1.27083 7.38416,3.38894 7.73623,9.79208 z"
         id="path15983" />
      <path
         id="path15987"
         d="m 141.03633,527.19872 c 0,0 18.22519,-4.06432 16.27702,-14.07624 -1.63748,-8.41524 -14.77082,-5.67105 -21.34745,-3.62907 0.62545,5.12667 1.4497,7.9143 -4.55265,10.78489 6.1306,-0.5163 7.60624,1.1562 9.62308,6.92042 z"
         style="fill:#54de61;fill-opacity:1;fill-rule:evenodd;stroke:none;stroke-width:0.20767665px;stroke-linecap:butt;stroke-linejoin:miter;stroke-opacity:1" />
      <path
         style="fill:#54de61;fill-opacity:1;fill-rule:evenodd;stroke:none;stroke-width:0.20767665px;stroke-linecap:butt;stroke-linejoin:miter;stroke-opacity:1"
         d="m 141.31895,546.24122 c 0,0 18.53475,-2.26703 17.57255,-12.42125 -0.80875,-8.53484 -14.14715,-7.08492 -20.89161,-5.69424 0.12235,5.16323 0.67073,8.01798 -5.58302,10.28934 6.15172,0.0842 7.45717,1.89268 8.90208,7.82615 z"
         id="path15989" />
      <path
         id="path15991"
         d="m 140.64248,564.70916 c 0,0 18.64962,-0.93181 18.4182,-11.12889 -0.19452,-8.57087 -13.60256,-8.08136 -20.4294,-7.178 -0.24829,5.15871 0.0939,8.04544 -6.30663,9.8624 6.12984,0.52522 7.30222,2.42267 8.31783,8.44449 z"
         style="fill:#54de61;fill-opacity:1;fill-rule:evenodd;stroke:none;stroke-width:0.20767665px;stroke-linecap:butt;stroke-linejoin:miter;stroke-opacity:1" />
      <path
         style="fill:#54de61;fill-opacity:1;fill-rule:evenodd;stroke:none;stroke-width:0.20767665px;stroke-linecap:butt;stroke-linejoin:miter;stroke-opacity:1"
         d="m 139.8125,565.5 c -0.74141,5.11119 -0.67355,8.02338 -7.21875,9.21875 1.91659,0.35158 3.20636,0.83676 4.25,1.46875 6.8258,-0.69893 14.41597,-1.29968 22.59375,-1.84375 0.31862,-8.28861 -12.81857,-9.08618 -19.625,-8.84375 z"
         id="path15995" />
      <path
         id="path15997"
         d="m 120.55759,539.29735 c 0,0 18.01551,-2.7125 16.73877,-12.1848 -1.07316,-7.9617 -14.04393,-6.17953 -20.58065,-4.66305 0.29109,4.82819 0.92126,7.48238 -5.10722,9.80741 6.00721,-0.1173 7.34151,1.53358 8.9491,7.04044 z"
         style="fill:#54de61;fill-opacity:1;fill-rule:evenodd;stroke:none;stroke-width:0.20767665px;stroke-linecap:butt;stroke-linejoin:miter;stroke-opacity:1" />
      <path
         style="fill:#54de61;fill-opacity:1;fill-rule:evenodd;stroke:none;stroke-width:0.20767665px;stroke-linecap:butt;stroke-linejoin:miter;stroke-opacity:1"
         d="m 120.0033,557.06167 c 0,0 18.19371,-0.95128 17.84229,-10.50277 -0.2954,-8.02827 -13.3779,-7.51333 -20.03094,-6.6384 -0.17886,4.83364 0.19074,7.53646 -6.03493,9.26545 5.99024,0.46626 7.15802,2.23884 8.22358,7.87572 z"
         id="path15999" />
      <path
         id="path16003"
         d="m 120.31158,575.55827 c 0,0 18.19371,-0.95128 17.84229,-10.50277 -0.2954,-8.02827 -13.3779,-7.51333 -20.03094,-6.6384 -0.17886,4.83364 0.19074,7.53646 -6.03493,9.26545 5.99024,0.46626 7.15802,2.23884 8.22358,7.87572 z"
         style="fill:#54de61;fill-opacity:1;fill-rule:evenodd;stroke:none;stroke-width:0.20767665px;stroke-linecap:butt;stroke-linejoin:miter;stroke-opacity:1" />
      <path
         id="path16013"
         d="m 196.03125,482.84375 c -8.50678,2.19908 -16.60526,4.72212 -24.15625,7.5 4.49225,0.94642 5.69246,3.11174 6.5,8.625 0,-10e-6 19.75065,-0.57018 19.75,-11.28125 -1.2e-4,-2.09028 -0.82895,-3.63898 -2.09375,-4.84375 z"
         style="fill:#54de61;fill-opacity:1;fill-rule:evenodd;stroke:none;stroke-width:0.20767665px;stroke-linecap:butt;stroke-linejoin:miter;stroke-opacity:1" />
      <path
         style="color:#000000;display:inline;overflow:visible;visibility:visible;opacity:0.85;fill:url(#linearGradient2121);fill-opacity:1;fill-rule:evenodd;stroke:none;stroke-width:2.98300004;stroke-linecap:butt;stroke-linejoin:miter;stroke-miterlimit:4;stroke-dasharray:none;stroke-dashoffset:0;stroke-opacity:1;marker:none;marker-start:none;marker-mid:none;marker-end:none"
         d="m 118.59268,523.92715 c -11.33606,19.18411 -6.97604,18.3121 2.61602,15.69609 9.59205,-2.61602 78.48045,-17.4401 88.0725,-14.82409 9.59206,2.61602 23.54414,-0.872 26.16015,-11.33606 2.61602,-10.46406 3.333,-15.92002 14.80686,-11.47387 18.91206,7.32847 54.95354,14.08988 68.90562,16.7059 13.95208,2.61601 29.64817,14.82408 52.3203,1.74401 22.67214,-13.08008 41.0754,-24.04852 49.70429,-30.52018 1.74401,-1.308 7.45115,-14.15542 9.32958,-18.57166 0.93921,-2.20811 8.88486,-6.48044 8.44296,-7.60395 -0.4419,-1.1235 -5.01418,0.81236 -9.71333,3.9258 -4.85546,3.217 -7.96536,18.55063 -14.06939,21.16665 -6.10404,2.61601 -25.382,13.29123 -33.23004,19.39527 -7.84805,6.10403 -28.77617,18.3121 -42.72825,11.33606 -13.95208,-6.97604 -19.18411,-20.05611 -30.52018,-27.90416 -11.33606,-7.84804 -60.16834,-23.54414 -118.59268,-4.36002 -58.42433,19.18411 -61.04035,26.16015 -71.50441,36.62421 z"
         id="path1387" />
      <path
         id="path16018"
         d="m 139.8125,565.5 c -0.74141,5.11119 -0.67355,8.02338 -7.21875,9.21875 1.91659,0.35158 3.20636,0.83676 4.25,1.46875 6.8258,-0.69893 14.41597,-1.29968 22.59375,-1.84375 0.31862,-8.28861 -12.81857,-9.08618 -19.625,-8.84375 z"
         style="fill:#54de61;fill-opacity:1;fill-rule:evenodd;stroke:none;stroke-width:0.20767665px;stroke-linecap:butt;stroke-linejoin:miter;stroke-opacity:1" />
      <path
         id="path16023"
         d="m 182.96875,564.8125 c -0.64452,4.09133 -0.85507,6.81112 -3.96875,8.40625 8.45278,-0.38594 16.60321,-0.64579 24.34375,-0.78125 -1.58487,-6.90857 -13.75063,-7.78642 -20.375,-7.625 z"
         style="fill:#54de61;fill-opacity:1;fill-rule:evenodd;stroke:none;stroke-width:0.20767665px;stroke-linecap:butt;stroke-linejoin:miter;stroke-opacity:1" />
      <path
         id="path16026"
         d="m 277.9375,472.69581 c -0.38196,-0.0865 -0.76654,-0.14265 -1.15625,-0.21875 -0.45413,-0.063 -0.90584,-0.11608 -1.34375,-0.15625 -1.7146,-0.27746 -3.05479,1.38268 -4.91851,1.31371 -84.48716,-0.30568 -153.18488,34.98882 -162.42524,63.68629 -7.67125,23.8244 -18.247313,91.41314 -22.490216,113.56397 -0.785899,-0.29899 -1.641718,-0.5 -2.53125,-0.5 -4.080315,-2e-5 -7.375003,3.43524 -7.375,7.65625 -2e-6,4.22099 3.294687,7.62501 7.375,7.625 2.822088,-2e-5 5.192182,-1.68657 6.4375,-4.09375 1.101096,2.69997 3.718166,4.62501 6.8125,4.625 4.080306,-2e-5 7.406246,-3.32592 7.406246,-7.40625 0,-4.08033 -3.32594,-7.37501 -7.406246,-7.375 -0.01072,0 -0.02054,-5e-5 -0.03125,0 0.667053,-3.60975 10.758396,-60.59529 15.325656,-70.32716 3.00016,-6.39269 127.22495,-12.23076 129.13331,-6.36181"
         style="fill:none;fill-opacity:1;fill-rule:evenodd;stroke:#3e7e42;stroke-width:2.98300004;stroke-linecap:butt;stroke-linejoin:miter;stroke-miterlimit:4;stroke-dasharray:none;stroke-opacity:1" />
      <path
         style="fill:#ffffff;fill-opacity:1;fill-rule:evenodd;stroke:#000000;stroke-width:1.43499994;stroke-linecap:butt;stroke-linejoin:miter;stroke-miterlimit:4;stroke-dasharray:none;stroke-opacity:1"
         d="m 264.369,453.69048 c -10.2438,0.19699 -16.15369,8.86482 -11.42578,15.95669 4.72791,7.09187 22.85157,6.10688 25.21553,-1.18198 2.36395,-7.28886 -7.68286,-15.5627 -13.78975,-14.77471 z"
         id="path7197" />
      <path
         id="path7933"
         d="m 267.08631,465.4898 c 5.65305,-1.14065 4.41836,-4.67407 2.19782,-7.44565 -2.22053,-2.77159 -7.49266,-1.13802 -7.38277,2.16241 0.10988,3.30043 1.06667,4.84419 5.18495,5.28324 z"
         style="fill:#000000;fill-opacity:1;fill-rule:evenodd;stroke:none;stroke-width:1px;stroke-linecap:butt;stroke-linejoin:miter;stroke-opacity:1" />
      <path
         style="fill:#ffffff;fill-opacity:1;fill-rule:evenodd;stroke:#000000;stroke-width:1.43499994;stroke-linecap:butt;stroke-linejoin:miter;stroke-miterlimit:4;stroke-dasharray:none;stroke-opacity:1"
         d="m 297.07874,475.12108 c 2.17084,-10.60036 -3.61811,-15.14337 -13.02513,-15.90053 -9.40703,-0.75718 -20.9849,3.78584 -16.6432,11.35751 4.3417,7.5717 23.15575,18.17205 29.66833,4.54302 z"
         id="path1323" />
      <path
         style="fill:#ffffff;fill-opacity:1;fill-rule:evenodd;stroke:#000000;stroke-width:1.43499994;stroke-linecap:butt;stroke-linejoin:miter;stroke-miterlimit:4;stroke-dasharray:none;stroke-opacity:1"
         d="m 242.3953,460.52578 c -8.78622,5.27034 -9.59683,15.72983 -1.96596,19.52689 7.63087,3.79705 22.8589,-6.0794 21.28064,-13.57772 -1.57827,-7.49832 -14.41054,-9.67267 -19.31468,-5.94917 z"
         id="path7199" />
      <path
         style="fill:#000000;fill-opacity:1;fill-rule:evenodd;stroke:none;stroke-width:1px;stroke-linecap:butt;stroke-linejoin:miter;stroke-opacity:1"
         d="m 243.68431,469.83581 c 1.59818,5.5411 5.01906,4.02218 7.60017,1.58286 2.58113,-2.43931 0.52275,-7.56055 -2.7577,-7.18168 -3.28045,0.37887 -4.74098,1.45845 -4.84247,5.59882 z"
         id="path7935" />
      <path
         style="fill:#ffffff;fill-opacity:1;fill-rule:evenodd;stroke:#000000;stroke-width:1.43499994;stroke-linecap:butt;stroke-linejoin:miter;stroke-miterlimit:4;stroke-dasharray:none;stroke-opacity:1"
         d="m 271.68386,472.17278 c -6.15076,-5.67878 -18.81405,-9.08603 -22.43214,-2.27152 -3.61808,6.8145 -1.44724,20.44356 11.57787,19.68638 13.02512,-0.75717 17.005,-11.73609 10.85427,-17.41486 z"
         id="path1321" />
      <path
         style="fill:#ffffff;fill-opacity:1;fill-rule:evenodd;stroke:#000000;stroke-width:1.43499994;stroke-linecap:butt;stroke-linejoin:miter;stroke-miterlimit:4;stroke-dasharray:none;stroke-opacity:1"
         d="m 277.96176,469.45019 c -7.68285,0.59099 -12.60776,9.45583 -6.89487,13.39575 5.71289,3.93993 17.53267,3.93993 18.51765,-3.54593 0.98498,-7.48586 -5.3189,-10.04681 -11.62278,-9.84982 z"
         id="path7195" />
      <path
         style="fill:#000000;fill-opacity:1;fill-rule:evenodd;stroke:none;stroke-width:1px;stroke-linecap:butt;stroke-linejoin:miter;stroke-opacity:1"
         d="m 262.20205,471.61714 c -5.71289,-0.78798 -5.71289,2.95495 -4.53091,6.30388 1.18197,3.34894 6.69787,3.54594 7.68285,0.394 0.98498,-3.15194 0.59099,-4.92491 -3.15194,-6.69788 z"
         id="path7927" />
      <path
         id="path7929"
         d="m 283.40203,472.86341 c -4.42216,-0.56573 -4.42216,2.12154 -3.50722,4.52592 0.91491,2.40439 5.18459,2.54583 5.94703,0.28287 0.76243,-2.26295 0.45747,-3.53587 -2.43981,-4.80879 z"
         style="fill:#000000;fill-opacity:1;fill-rule:evenodd;stroke:none;stroke-width:0.7454837px;stroke-linecap:butt;stroke-linejoin:miter;stroke-opacity:1" />
      <path
         style="fill:#000000;fill-opacity:1;fill-rule:evenodd;stroke:none;stroke-width:1px;stroke-linecap:butt;stroke-linejoin:miter;stroke-opacity:1"
         d="m 287.01749,462.95586 c -5.07169,2.74518 -2.85694,5.76253 0.0775,7.76286 2.93446,2.00035 7.49765,-1.10468 6.42664,-4.22844 -1.07102,-3.12375 -2.43773,-4.3199 -6.50417,-3.53442 z"
         id="path7931" />
      <g
         id="text3555"
         style="font-style:normal;font-variant:normal;font-weight:normal;font-stretch:normal;font-size:48px;line-height:125%;font-family:'Franklin Gothic Medium';text-align:start;writing-mode:lr-tb;text-anchor:start;fill:#ffffff;fill-opacity:1;stroke:#ffffff;stroke-width:1.82500005;stroke-linecap:round;stroke-linejoin:round;stroke-miterlimit:4;stroke-dasharray:none;stroke-opacity:1"
         transform="matrix(0.999797,-0.02014218,0.02014218,0.999797,-6.189382,24.41989)">
        <path
           id="path5304"
           style="font-style:normal;font-variant:normal;font-weight:normal;font-stretch:normal;font-size:40.00000381px;line-height:125%;font-family:sans-serif;-inkscape-font-specification:sans-serif;text-align:start;writing-mode:lr-tb;text-anchor:start;fill:#ffffff;fill-opacity:1;stroke:#ffffff;stroke-width:1.82500005;stroke-linecap:round;stroke-linejoin:round;stroke-miterlimit:4;stroke-dasharray:none;stroke-opacity:1"
           d="m 85.322898,716.51159 q -4.305011,-0.66105 -6.116422,0.0686 -1.811411,0.72962 -2.176026,3.10413 -0.290507,1.89189 0.773079,3.2013 1.085856,1.29306 3.228709,1.62211 2.953663,0.45354 5.049872,-1.35868 2.118478,-1.82855 2.652062,-5.30345 l 0.121538,-0.7915 -3.532812,-0.54248 z m 7.31022,-0.37926 -1.894223,12.33588 -3.552117,-0.54544 0.503941,-3.28185 q -1.518579,1.78236 -3.4785,2.44965 -1.956958,0.64799 -4.582436,0.24484 -3.320457,-0.50987 -5.004987,-2.66551 -1.662261,-2.17199 -1.182035,-5.29939 0.560263,-3.64864 3.277269,-5.12841 2.736311,-1.47681 7.581862,-0.73276 l 4.980685,0.76481 0.05336,-0.34749 q 0.376473,-2.45174 -1.040605,-4.03279 -1.394809,-1.59739 -4.309861,-2.045 -1.853279,-0.28458 -3.678213,-0.11032 -1.824933,0.17426 -3.582912,0.81328 l 0.50394,-3.28185 q 2.065413,-0.45349 3.95571,-0.53867 1.89326,-0.10449 3.630709,0.1623 4.691111,0.72034 6.6342,3.50849 1.943089,2.78815 1.184214,7.73023 z" />
        <path
           id="path5306"
           style="font-style:normal;font-variant:normal;font-weight:normal;font-stretch:normal;font-size:40.00000381px;line-height:125%;font-family:sans-serif;-inkscape-font-specification:sans-serif;text-align:start;writing-mode:lr-tb;text-anchor:start;fill:#ffffff;fill-opacity:1;stroke:#ffffff;stroke-width:1.82500005;stroke-linecap:round;stroke-linejoin:round;stroke-miterlimit:4;stroke-dasharray:none;stroke-opacity:1"
           d="m 102.22806,699.37593 3.5603,0.48919 -4.1368,30.10776 -3.560303,-0.48919 4.136803,-30.10776 z" />
        <path
           id="path5308"
           style="font-style:normal;font-variant:normal;font-weight:normal;font-stretch:normal;font-size:40.00000381px;line-height:125%;font-family:sans-serif;-inkscape-font-specification:sans-serif;text-align:start;writing-mode:lr-tb;text-anchor:start;fill:#ffffff;fill-opacity:1;stroke:#ffffff;stroke-width:1.82500005;stroke-linecap:round;stroke-linejoin:round;stroke-miterlimit:4;stroke-dasharray:none;stroke-opacity:1"
           d="m 111.84806,709.25659 3.56501,0.45362 -2.76113,21.70004 -3.56501,-0.45361 2.76113,-21.70005 z m 1.07487,-8.44751 3.56501,0.45361 -0.57441,4.51439 -3.56501,-0.45362 0.57441,-4.51438 z" />
        <path
           id="path5310"
           style="font-style:normal;font-variant:normal;font-weight:normal;font-stretch:normal;font-size:40.00000381px;line-height:125%;font-family:sans-serif;-inkscape-font-specification:sans-serif;text-align:start;writing-mode:lr-tb;text-anchor:start;fill:#ffffff;fill-opacity:1;stroke:#ffffff;stroke-width:1.82500005;stroke-linecap:round;stroke-linejoin:round;stroke-miterlimit:4;stroke-dasharray:none;stroke-opacity:1"
           d="m 139.99311,722.64689 -0.1935,1.74713 -16.42302,-1.81892 q -0.17555,3.71418 1.58953,5.87474 1.78664,2.1433 5.33913,2.53675 2.05773,0.2279 4.03548,-0.064 1.99715,-0.28973 4.01139,-1.08848 l -0.37411,3.37779 q -2.01214,0.60247 -4.07835,0.80595 -2.0662,0.20347 -4.14335,-0.0266 -5.20256,-0.57621 -7.91493,-3.94212 -2.69295,-3.36376 -2.12105,-8.5275 0.59126,-5.33845 3.81047,-8.14567 3.24077,-2.82448 8.13274,-2.28267 4.38723,0.4859 6.61638,3.60179 2.2507,3.09862 1.71319,7.95176 z m -3.4558,-1.44388 q 0.28582,-2.9356 -1.13192,-4.86118 -1.39832,-1.92343 -4.03843,-2.21584 -2.98953,-0.3311 -4.98195,1.15784 -1.97301,1.49109 -2.58449,4.52817 l 12.73679,1.39101 z" />
        <path
           id="path5312"
           style="font-style:normal;font-variant:normal;font-weight:normal;font-stretch:normal;font-size:40.00000381px;line-height:125%;font-family:sans-serif;-inkscape-font-specification:sans-serif;text-align:start;writing-mode:lr-tb;text-anchor:start;fill:#ffffff;fill-opacity:1;stroke:#ffffff;stroke-width:1.82500005;stroke-linecap:round;stroke-linejoin:round;stroke-miterlimit:4;stroke-dasharray:none;stroke-opacity:1"
           d="m 163.82684,723.41068 -1.15036,13.15292 -3.58008,-0.31311 1.14014,-13.03618 q 0.27058,-3.09366 -0.80132,-4.73627 -1.0719,-1.6426 -3.48457,-1.85362 -2.89908,-0.25355 -4.73405,1.44852 -1.83496,1.70206 -2.11404,4.89301 l -1.07718,12.31626 -3.59954,-0.31481 1.90591,-21.79182 3.59954,0.31482 -0.2961,3.38551 q 1.45604,-1.85284 3.27279,-2.67424 1.83622,-0.81969 4.11268,-0.62059 3.7552,0.32843 5.47724,2.83174 1.72373,2.48384 1.32894,6.99786 z" />
        <path
           id="path5314"
           style="font-style:normal;font-variant:normal;font-weight:normal;font-stretch:normal;font-size:40.00000381px;line-height:125%;font-family:sans-serif;-inkscape-font-specification:sans-serif;text-align:start;writing-mode:lr-tb;text-anchor:start;fill:#ffffff;fill-opacity:1;stroke:#ffffff;stroke-width:1.82500005;stroke-linecap:round;stroke-linejoin:round;stroke-miterlimit:4;stroke-dasharray:none;stroke-opacity:1"
           d="m 187.69618,710.07003 -0.3482,6.20117 7.3907,0.415 -0.15659,2.78858 -7.3907,-0.41501 -0.66575,11.85633 q -0.15002,2.67157 0.5288,3.47261 0.69831,0.80213 2.94087,0.92805 l 3.6856,0.20695 -0.16862,3.00309 -3.68561,-0.20696 q -4.15361,-0.23323 -5.64665,-1.86247 -1.49194,-1.64873 -1.26199,-5.74385 l 0.66575,-11.85632 -2.63257,-0.14782 0.15659,-2.78858 2.63257,0.14782 0.34821,-6.20117 3.60759,0.20258 z" />
        <path
           id="path5316"
           style="font-style:normal;font-variant:normal;font-weight:normal;font-stretch:normal;font-size:40.00000381px;line-height:125%;font-family:sans-serif;-inkscape-font-specification:sans-serif;text-align:start;writing-mode:lr-tb;text-anchor:start;fill:#ffffff;fill-opacity:1;stroke:#ffffff;stroke-width:1.82500005;stroke-linecap:round;stroke-linejoin:round;stroke-miterlimit:4;stroke-dasharray:none;stroke-opacity:1"
           d="m 217.38952,727.6293 -0.0651,1.75661 -16.51209,-0.61224 q 0.0967,3.71707 2.01516,5.74267 1.93869,2.00681 5.51046,2.13924 2.06889,0.0767 4.01997,-0.35911 1.9706,-0.43509 3.92098,-1.3791 l -0.12592,3.39611 q -1.96266,0.7481 -4.00844,1.10223 -2.04578,0.35413 -4.13418,0.27669 -5.23079,-0.19394 -8.18219,-3.35235 -2.93189,-3.15768 -2.73939,-8.34942 0.19902,-5.36741 3.20417,-8.40267 3.0254,-3.05406 7.94389,-2.87169 4.41104,0.16355 6.86221,3.10796 2.47142,2.92561 2.2905,7.80507 z m -3.5522,-1.18712 q 0.0702,-2.94864 -1.48461,-4.76531 -1.53533,-1.81595 -4.18976,-1.91437 -3.00574,-0.11145 -4.88386,1.5193 -1.85861,1.63147 -2.2462,4.70516 l 12.80443,0.45522 z" />
        <path
           id="path5318"
           style="font-style:normal;font-variant:normal;font-weight:normal;font-stretch:normal;font-size:40.00000381px;line-height:125%;font-family:sans-serif;-inkscape-font-specification:sans-serif;text-align:start;writing-mode:lr-tb;text-anchor:start;fill:#ffffff;fill-opacity:1;stroke:#ffffff;stroke-width:1.82500005;stroke-linecap:round;stroke-linejoin:round;stroke-miterlimit:4;stroke-dasharray:none;stroke-opacity:1"
           d="m 238.90422,718.78133 -0.0503,3.359 q -1.51068,-0.86257 -3.04734,-1.29579 -1.51683,-0.45245 -3.07915,-0.47585 -3.49571,-0.0524 -5.46243,2.14499 -1.96643,2.17783 -2.02639,6.18129 -0.06,4.00345 1.84006,6.25873 1.90033,2.23574 5.39603,2.2881 1.56232,0.0234 3.09173,-0.3639 1.54923,-0.40653 3.08508,-1.22346 l -0.0497,3.31994 q -1.51427,0.68052 -3.14044,1.00777 -1.60665,0.32753 -3.42286,0.30033 -4.94085,-0.074 -7.80417,-3.22271 -2.86332,-3.1487 -2.78434,-8.42155 0.0802,-5.35096 3.05543,-8.37315 2.99481,-3.02189 8.11143,-2.94526 1.65997,0.0249 3.23655,0.40008 1.57689,0.35569 3.05086,1.06144 z" />
        <path
           id="path5320"
           style="font-style:normal;font-variant:normal;font-weight:normal;font-stretch:normal;font-size:40.00000381px;line-height:125%;font-family:sans-serif;-inkscape-font-specification:sans-serif;text-align:start;writing-mode:lr-tb;text-anchor:start;fill:#ffffff;fill-opacity:1;stroke:#ffffff;stroke-width:1.82500005;stroke-linecap:round;stroke-linejoin:round;stroke-miterlimit:4;stroke-dasharray:none;stroke-opacity:1"
           d="m 262.96326,726.50377 0.0986,13.20276 -3.59365,0.0268 -0.0978,-13.08558 q -0.0232,-3.10538 -1.24564,-4.63926 -1.22243,-1.53388 -3.64424,-1.51578 -2.91007,0.0217 -4.57585,1.88971 -1.66578,1.86796 -1.64185,5.071 l 0.0924,12.36294 -3.61318,0.027 -0.22705,-30.38978 3.61318,-0.027 0.089,11.91373 q 1.27429,-1.98223 3.00523,-2.97176 1.75046,-0.98966 4.03556,-1.00674 3.76942,-0.0282 5.72047,2.30108 1.95091,2.30971 1.98476,6.84083 z" />
        <path
           id="path5322"
           style="font-style:normal;font-variant:normal;font-weight:normal;font-stretch:normal;font-size:40.00000381px;line-height:125%;font-family:sans-serif;-inkscape-font-specification:sans-serif;text-align:start;writing-mode:lr-tb;text-anchor:start;fill:#ffffff;fill-opacity:1;stroke:#ffffff;stroke-width:1.82500005;stroke-linecap:round;stroke-linejoin:round;stroke-miterlimit:4;stroke-dasharray:none;stroke-opacity:1"
           d="m 288.02822,725.79441 0.41454,13.19662 -3.59198,0.11283 -0.41086,-13.07948 q -0.0975,-3.10394 -1.35629,-4.60813 -1.25879,-1.50419 -3.67947,-1.42815 -2.90872,0.0914 -4.52932,1.99866 -1.6206,1.9073 -1.52003,5.10884 l 0.38817,12.35719 -3.6115,0.11345 -0.68682,-21.86422 3.6115,-0.11345 0.10671,3.39676 q 1.22649,-2.01215 2.93325,-3.04281 1.72628,-1.03127 4.01031,-1.10302 3.76768,-0.11835 5.7739,2.16353 2.00562,2.26237 2.14789,6.79138 z" />
        <path
           id="path5324"
           style="font-style:normal;font-variant:normal;font-weight:normal;font-stretch:normal;font-size:40.00000381px;line-height:125%;font-family:sans-serif;-inkscape-font-specification:sans-serif;text-align:start;writing-mode:lr-tb;text-anchor:start;fill:#ffffff;fill-opacity:1;stroke:#ffffff;stroke-width:1.82500005;stroke-linecap:round;stroke-linejoin:round;stroke-miterlimit:4;stroke-dasharray:none;stroke-opacity:1"
           d="m 303.04936,718.88099 q -2.88631,0.15798 -4.43966,2.51202 -1.55442,2.33454 -1.33986,6.25446 0.21456,3.91991 1.99606,6.09142 1.79994,2.15093 4.70575,1.99188 2.8668,-0.15692 4.42015,-2.51096 1.55335,-2.35404 1.33986,-6.25445 -0.21243,-3.88091 -2.01343,-6.05135 -1.80207,-2.18994 -4.66887,-2.03302 z m -0.16653,-3.04232 q 4.68049,-0.2562 7.5188,2.63988 2.83831,2.89608 3.13293,8.27865 0.29355,5.36307 -2.21064,8.57113 -2.50525,3.18857 -7.18575,3.44476 -4.69999,0.25726 -7.5383,-2.63882 -2.81987,-2.91665 -3.11343,-8.27971 -0.29462,-5.38257 2.19114,-8.57007 2.50525,-3.18856 7.20525,-3.44582 z" />
        <path
           id="path5326"
           style="font-style:normal;font-variant:normal;font-weight:normal;font-stretch:normal;font-size:40.00000381px;line-height:125%;font-family:sans-serif;-inkscape-font-specification:sans-serif;text-align:start;writing-mode:lr-tb;text-anchor:start;fill:#ffffff;fill-opacity:1;stroke:#ffffff;stroke-width:1.82500005;stroke-linecap:round;stroke-linejoin:round;stroke-miterlimit:4;stroke-dasharray:none;stroke-opacity:1"
           d="m 317.89362,706.90352 3.58467,-0.25534 2.15929,30.31382 -3.58467,0.25534 -2.15929,-30.31382 z" />
        <path
           id="path5328"
           style="font-style:normal;font-variant:normal;font-weight:normal;font-stretch:normal;font-size:40.00000381px;line-height:125%;font-family:sans-serif;-inkscape-font-specification:sans-serif;text-align:start;writing-mode:lr-tb;text-anchor:start;fill:#ffffff;fill-opacity:1;stroke:#ffffff;stroke-width:1.82500005;stroke-linecap:round;stroke-linejoin:round;stroke-miterlimit:4;stroke-dasharray:none;stroke-opacity:1"
           d="m 337.87464,716.40063 q -2.87961,0.2521 -4.35531,2.65558 -1.4774,2.38403 -1.13502,6.29485 0.34238,3.91082 2.1938,6.02303 1.86918,2.09105 4.76825,1.83724 2.86015,-0.25039 4.33585,-2.65388 1.47569,-2.40348 1.13502,-6.29485 -0.33897,-3.87191 -2.20985,-5.98241 -1.87259,-2.12996 -4.73274,-1.87956 z m -0.26573,-3.03527 q 4.66964,-0.40881 7.60096,2.3931 2.93131,2.8019 3.40144,8.17199 0.46843,5.35063 -1.92973,8.63871 -2.39986,3.26863 -7.0695,3.67744 -4.68909,0.41051 -7.62041,-2.39139 -2.91356,-2.82307 -3.38198,-8.17369 -0.47014,-5.37009 1.91027,-8.63701 2.39986,-3.26863 7.08895,-3.67915 z" />
        <path
           id="path5330"
           style="font-style:normal;font-variant:normal;font-weight:normal;font-stretch:normal;font-size:40.00000381px;line-height:125%;font-family:sans-serif;-inkscape-font-specification:sans-serif;text-align:start;writing-mode:lr-tb;text-anchor:start;fill:#ffffff;fill-opacity:1;stroke:#ffffff;stroke-width:1.82500005;stroke-linecap:round;stroke-linejoin:round;stroke-miterlimit:4;stroke-dasharray:none;stroke-opacity:1"
           d="m 368.55449,721.50887 q -0.42759,-3.88278 -2.27412,-5.84086 -1.82712,-1.96021 -4.71979,-1.64165 -2.87325,0.31642 -4.24943,2.6294 -1.35676,2.31084 -0.92916,6.19362 0.42545,3.86336 2.25257,5.82357 1.84653,1.95808 4.71978,1.64166 2.89267,-0.31856 4.24943,-2.6294 1.37618,-2.31298 0.95072,-6.17634 z m 4.50004,8.03223 q 0.61146,5.55237 -1.55693,8.52243 -2.16624,2.98946 -7.25268,3.54961 -1.88315,0.20739 -3.58481,0.10004 -1.69953,-0.0879 -3.33619,-0.49716 l -0.3827,-3.47509 q 1.6666,0.68104 3.24519,0.91983 1.5786,0.23879 3.17053,0.0635 3.51392,-0.38697 5.05806,-2.42371 1.54628,-2.01732 1.13793,-5.72537 l -0.19456,-1.76666 q -0.89493,2.04384 -2.51801,3.1854 -1.62307,1.14156 -4.03039,1.40666 -3.99926,0.44043 -6.78107,-2.33817 -2.78182,-2.77859 -3.33555,-7.80679 -0.55587,-5.04761 1.55461,-8.36497 2.11049,-3.31737 6.10975,-3.75779 2.40732,-0.26511 4.23992,0.49589 1.83259,0.761 3.15085,2.56111 l -0.36346,-3.30036 3.57215,-0.39339 2.09736,19.04502 z" />
        <path
           id="path5332"
           style="font-style:normal;font-variant:normal;font-weight:normal;font-stretch:normal;font-size:40.00000381px;line-height:125%;font-family:sans-serif;-inkscape-font-specification:sans-serif;text-align:start;writing-mode:lr-tb;text-anchor:start;fill:#ffffff;fill-opacity:1;stroke:#ffffff;stroke-width:1.82500005;stroke-linecap:round;stroke-linejoin:round;stroke-miterlimit:4;stroke-dasharray:none;stroke-opacity:1"
           d="m 389.98839,732.16123 q -0.99938,4.07196 -2.27643,5.44219 -1.27705,1.37022 -3.67812,1.68702 l -2.84642,0.37556 -0.39344,-2.98197 2.09125,-0.27592 q 1.47162,-0.19417 2.19291,-0.99855 0.72129,-0.80439 1.36648,-3.52938 l 0.42439,-1.71084 -11.58704,-20.18118 3.77587,-0.49819 9.01522,16.06819 4.53918,-17.85656 3.77587,-0.49819 -6.39972,24.95782 z" />
      </g>
      <path
         style="fill:none;fill-opacity:0.75;fill-rule:evenodd;stroke:none;stroke-width:1px;stroke-linecap:butt;stroke-linejoin:miter;stroke-opacity:1"
         d="m 157.32993,388.01687 c 82.73221,-4.31928 129.99374,-0.82426 188.21271,2.05526"
         id="path3573" />
      <g
         id="text3575"
         style="font-style:normal;font-variant:normal;font-weight:normal;font-stretch:normal;font-size:48px;line-height:125%;font-family:'Franklin Gothic Medium';text-align:start;writing-mode:lr-tb;text-anchor:start;fill:#ffffff;fill-opacity:1;stroke:#ffffff;stroke-width:1.82500005;stroke-linecap:round;stroke-linejoin:round;stroke-miterlimit:4;stroke-dasharray:none;stroke-opacity:1"
         transform="translate(-1.648516,-3.495025)">
        <path
           id="path5364"
           style="font-style:normal;font-variant:normal;font-weight:normal;font-stretch:normal;font-size:40px;font-family:sans-serif;-inkscape-font-specification:sans-serif"
           d="m 181.89696,359.94413 0.18124,4.15621 q -2.07113,-1.76691 -4.3746,-2.58531 -2.28395,-0.81924 -4.8206,-0.70862 -4.99526,0.21783 -7.51539,3.39705 -2.52099,3.1597 -2.26912,8.93546 0.25101,5.75625 3.03834,8.70402 2.78646,2.92826 7.78172,2.71043 2.53665,-0.11062 4.74062,-1.12557 2.22348,-1.0158 4.13294,-2.9563 l 0.17954,4.11718 q -2.00708,1.49511 -4.29846,2.29883 -2.27187,0.80286 -4.84755,0.91518 -6.6148,0.28846 -10.59592,-3.58475 -3.98196,-3.89271 -4.28744,-10.89777 -0.30632,-7.02458 3.32252,-11.22963 3.62799,-4.22457 10.24279,-4.51303 2.6147,-0.11402 4.94784,0.48803 2.35179,0.58169 4.44153,1.87859 z" />
        <path
           id="path5366"
           style="font-style:normal;font-variant:normal;font-weight:normal;font-stretch:normal;font-size:40px;font-family:sans-serif;-inkscape-font-specification:sans-serif"
           d="m 198.31823,361.12628 -4.99149,14.63948 10.71938,-0.26485 -5.72789,-14.37463 z m -2.32189,-3.83053 4.47129,-0.11048 11.83015,28.87676 -4.10031,0.10131 -2.84021,-7.41258 -13.14052,0.32467 -2.47067,7.5438 -4.15889,0.10276 10.40916,-29.42624 z" />
        <path
           id="path5368"
           style="font-style:normal;font-variant:normal;font-weight:normal;font-stretch:normal;font-size:40px;font-family:sans-serif;-inkscape-font-specification:sans-serif"
           d="m 216.00312,356.8669 3.96483,-0.0113 0.0506,17.71477 q 0.0134,4.68748 1.71851,6.75293 1.70507,2.04592 5.51365,2.03505 3.78905,-0.0108 5.4824,-2.06645 1.6933,-2.07516 1.67991,-6.76264 l -0.0506,-17.71477 3.96483,-0.0113 0.052,18.20305 q 0.0163,5.7031 -2.80742,8.62134 -2.80417,2.91817 -8.31196,2.93391 -5.52732,0.0158 -8.36765,-2.88627 -2.82081,-2.90211 -2.8371,-8.60521 l -0.052,-18.20305 z" />
        <path
           id="path5370"
           style="font-style:normal;font-variant:normal;font-weight:normal;font-stretch:normal;font-size:40px;font-family:sans-serif;-inkscape-font-specification:sans-serif"
           d="m 242.32882,356.82403 24.66374,0.45682 -0.0615,3.31974 -10.34979,-0.1917 -0.47852,25.83542 -3.96416,-0.0734 0.47852,-25.83541 -10.34979,-0.1917 0.0615,-3.31974 z" />
        <path
           id="path5372"
           style="font-style:normal;font-variant:normal;font-weight:normal;font-stretch:normal;font-size:40px;font-family:sans-serif;-inkscape-font-specification:sans-serif"
           d="m 271.20562,357.45975 3.94332,0.12545 -0.92715,29.14541 -3.94332,-0.12544 0.92715,-29.14542 z" />
        <path
           id="path5374"
           style="font-style:normal;font-variant:normal;font-weight:normal;font-stretch:normal;font-size:40px;font-family:sans-serif;-inkscape-font-specification:sans-serif"
           d="m 295.04799,361.04029 q -4.29278,-0.18744 -6.96915,2.90188 -2.65686,3.09016 -2.89798,8.61225 -0.24027,5.50257 2.13714,8.81255 2.39692,3.31084 6.6897,3.49828 4.29279,0.18744 6.93013,-2.90358 2.65687,-3.09017 2.89713,-8.59274 0.24112,-5.52208 -2.13629,-8.83207 -2.35789,-3.30913 -6.65068,-3.49657 z m 0.13973,-3.20008 q 6.12698,0.26753 9.61559,4.54488 3.48945,4.25784 3.18785,11.16532 -0.30076,6.88796 -4.14891,10.84496 -3.8473,3.93748 -9.97428,3.66995 -6.14648,-0.26838 -9.65546,-4.52706 -3.48946,-4.25784 -3.18785,-11.16532 0.30161,-6.90748 4.14891,-10.84496 3.86767,-3.95615 10.01415,-3.68777 z" />
        <path
           id="path5376"
           style="font-style:normal;font-variant:normal;font-weight:normal;font-stretch:normal;font-size:40px;font-family:sans-serif;-inkscape-font-specification:sans-serif"
           d="m 315.00381,359.31501 5.30556,0.27131 11.66701,25.02301 1.24581,-24.3627 3.82313,0.1955 -1.48918,29.1221 -5.30557,-0.2713 -11.66701,-25.02301 -1.24581,24.3627 -3.82313,-0.1955 1.48919,-29.12211 z" />
        <path
           id="path5378"
           style="font-style:normal;font-variant:normal;font-weight:normal;font-stretch:normal;font-size:40px;font-family:sans-serif;-inkscape-font-specification:sans-serif"
           d="m 186.95312,-4.9609375 4.1211,0 0,4.9609375 -4.1211,0 0,-4.9609375 z m 0,-15.7226565 4.1211,0 0,4.960938 -4.1211,0 0,-4.960938 z" />
      </g>
      <path
         style="color:#000000;display:inline;overflow:visible;visibility:visible;opacity:0.52777782;fill:url(#linearGradient7979);fill-opacity:1;fill-rule:evenodd;stroke:none;stroke-width:2.98300004;stroke-linecap:butt;stroke-linejoin:miter;stroke-miterlimit:4;stroke-dasharray:none;stroke-dashoffset:0;stroke-opacity:1;marker:none;marker-start:none;marker-mid:none;marker-end:none"
         d="m 299.17307,535.22016 c 8.5478,3.41913 4.2739,28.20775 -8.5478,29.91731 -12.82171,1.70956 -99.15451,4.2739 -114.54055,5.12868 -15.38604,0.85478 -56.41549,5.98346 -56.41549,5.98346 0,0 -5.98346,-5.12868 -6.83824,-10.25736 -0.85478,-5.12868 56.41549,-14.53126 76.93021,-15.38604 20.51473,-0.85478 58.4971,-12.808 64.10851,-10.25736 18.80518,8.5478 40.17468,-3.41913 45.30336,-5.12869 z"
         id="path7245" />
      <path
         style="fill:#86d973;fill-opacity:1;fill-rule:evenodd;stroke:none;stroke-width:1px;stroke-linecap:butt;stroke-linejoin:miter;stroke-opacity:1"
         d="m 453.19526,478.54252 c -2.9743,0.11016 -4.62669,-0.33048 -5.17749,1.54223 -0.5508,1.87271 1.43207,5.3978 2.64382,5.72828 1.21176,0.33048 4.84701,-2.09302 5.06733,-3.74541 0.22032,-1.65239 -0.77112,-2.86414 -2.53366,-3.5251 z"
         id="path8715" />
      <path
         style="fill:#86d973;fill-opacity:1;fill-rule:evenodd;stroke:none;stroke-width:1px;stroke-linecap:butt;stroke-linejoin:miter;stroke-opacity:1"
         d="m 451.76319,491.54131 c -2.20319,-1.32191 -6.60956,-1.8727 -7.27052,-0.99143 -0.66095,0.88128 2.86414,1.43207 2.09303,3.19462 -0.77111,1.76255 -2.31334,1.54223 -2.86414,2.31334 -0.5508,0.77112 -1.54223,2.09303 -0.44064,2.86415 1.10159,0.77111 8.9229,-0.66096 9.58386,-1.76255 0.66095,-1.1016 2.75398,-3.74542 -1.10159,-5.61813 z"
         id="path8717" />
    </g>
  </g>
</svg>
