<?xml version="1.0" encoding="UTF-8" standalone="no"?>
<svg
   xmlns:dc="http://purl.org/dc/elements/1.1/"
   xmlns:cc="http://creativecommons.org/ns#"
   xmlns:rdf="http://www.w3.org/1999/02/22-rdf-syntax-ns#"
   xmlns:svg="http://www.w3.org/2000/svg"
   xmlns="http://www.w3.org/2000/svg"
   version="1.1"
   id="svg2"
   viewBox="0 0 153.9669 56.035546"
   height="15.814476mm"
   width="43.452881mm">
  <defs
     id="defs4" />
  <metadata
     id="metadata7">
    <rdf:RDF>
      <cc:Work
         rdf:about="">
        <dc:format>image/svg+xml</dc:format>
        <dc:type
           rdf:resource="http://purl.org/dc/dcmitype/StillImage" />
        <dc:title></dc:title>
      </cc:Work>
    </rdf:RDF>
  </metadata>
  <g
     id="layer1"
     transform="translate(-19.234811,-11.188043)">
    <g
       id="text4914-3-3-9-6-0-8-3-7"
       style="font-style:normal;font-weight:normal;font-size:15px;line-height:125%;font-family:sans-serif;letter-spacing:0px;word-spacing:0px;fill:#808080;fill-opacity:1;stroke:none;stroke-width:1px;stroke-linecap:butt;stroke-linejoin:miter;stroke-opacity:1"
       transform="matrix(0.99968164,0.02522889,-0.02522889,0.99968164,-34.153707,75.889585)">
      <path
         id="path4258-3-6-5"
         style="font-style:normal;font-variant:normal;font-weight:normal;font-stretch:normal;font-size:17.5px;font-family:'Droid Sans';-inkscape-font-specification:'Droid Sans';fill:#808080;fill-opacity:1"
         d="m 173.37233,-34.143101 3.75977,-9.185791 -0.45289,-1.367187 q -0.11108,-0.350342 -0.2478,-0.632324 -0.12817,-0.290528 -0.31616,-0.495606 -0.17944,-0.213623 -0.44434,-0.324707 -0.25634,-0.119629 -0.62378,-0.119629 -0.29052,0 -0.50415,0.03418 -0.21362,0.02563 -0.38452,0.06836 l 0,-1.239013 q 0.22217,-0.05981 0.50415,-0.10254 0.28199,-0.04272 0.58106,-0.04272 0.63232,0 1.07666,0.179443 0.45288,0.179444 0.78613,0.563965 0.3418,0.375977 0.60669,0.957031 0.27344,0.57251 0.53833,1.367188 l 2.80273,8.288574 q 0.15381,0.461426 0.35035,0.709229 0.19653,0.239257 0.52124,0.239257 0.11963,0 0.28198,-0.02563 0.16235,-0.03418 0.23071,-0.05981 l 0,1.136475 q -0.19653,0.102539 -0.43579,0.162353 -0.23071,0.05982 -0.54687,0.05982 -0.33326,0 -0.5896,-0.0769 -0.24781,-0.06836 -0.45288,-0.239257 -0.19654,-0.170899 -0.35889,-0.444336 -0.15381,-0.273438 -0.28198,-0.666504 l -1.15357,-3.571778 q -0.094,-0.281982 -0.22217,-0.683593 -0.11963,-0.401612 -0.23925,-0.811768 -0.11109,-0.418701 -0.20508,-0.786133 -0.094,-0.375976 -0.13672,-0.589599 l -0.0513,0 q -0.11108,0.657959 -0.3418,1.384277 -0.22217,0.726318 -0.48706,1.401367 l -1.95678,4.91333 -1.60645,0 z" />
    </g>
    <g
       id="text4914-3-3-9-6-0-8-3"
       style="font-style:normal;font-weight:normal;font-size:15px;line-height:125%;font-family:sans-serif;letter-spacing:0px;word-spacing:0px;fill:#808080;fill-opacity:1;stroke:none;stroke-width:1px;stroke-linecap:butt;stroke-linejoin:miter;stroke-opacity:1"
       transform="matrix(0.99968164,0.02522889,-0.02522889,0.99968164,-86.201121,71.092587)">
      <path
         id="path4258-3-6"
         style="font-style:normal;font-variant:normal;font-weight:normal;font-stretch:normal;font-size:17.5px;font-family:'Droid Sans';-inkscape-font-specification:'Droid Sans';fill:#808080;fill-opacity:1"
         d="m 173.37233,-34.143101 3.75977,-9.185791 -0.45289,-1.367187 q -0.11108,-0.350342 -0.2478,-0.632324 -0.12817,-0.290528 -0.31616,-0.495606 -0.17944,-0.213623 -0.44434,-0.324707 -0.25634,-0.119629 -0.62378,-0.119629 -0.29052,0 -0.50415,0.03418 -0.21362,0.02563 -0.38452,0.06836 l 0,-1.239013 q 0.22217,-0.05981 0.50415,-0.10254 0.28199,-0.04272 0.58106,-0.04272 0.63232,0 1.07666,0.179443 0.45288,0.179444 0.78613,0.563965 0.3418,0.375977 0.60669,0.957031 0.27344,0.57251 0.53833,1.367188 l 2.80273,8.288574 q 0.15381,0.461426 0.35035,0.709229 0.19653,0.239257 0.52124,0.239257 0.11963,0 0.28198,-0.02563 0.16235,-0.03418 0.23071,-0.05981 l 0,1.136475 q -0.19653,0.102539 -0.43579,0.162353 -0.23071,0.05982 -0.54687,0.05982 -0.33326,0 -0.5896,-0.0769 -0.24781,-0.06836 -0.45288,-0.239257 -0.19654,-0.170899 -0.35889,-0.444336 -0.15381,-0.273438 -0.28198,-0.666504 l -1.15357,-3.571778 q -0.094,-0.281982 -0.22217,-0.683593 -0.11963,-0.401612 -0.23925,-0.811768 -0.11109,-0.418701 -0.20508,-0.786133 -0.094,-0.375976 -0.13672,-0.589599 l -0.0513,0 q -0.11108,0.657959 -0.3418,1.384277 -0.22217,0.726318 -0.48706,1.401367 l -1.95678,4.91333 -1.60645,0 z" />
    </g>
    <g
       id="text4914-3-3-9-6-0-8"
       style="font-style:normal;font-weight:normal;font-size:15px;line-height:125%;font-family:sans-serif;letter-spacing:0px;word-spacing:0px;fill:#808080;fill-opacity:1;stroke:none;stroke-width:1px;stroke-linecap:butt;stroke-linejoin:miter;stroke-opacity:1"
       transform="matrix(0.99968164,0.02522889,-0.02522889,0.99968164,-138.72823,54.303099)">
      <path
         id="path4258-3"
         style="font-style:normal;font-variant:normal;font-weight:normal;font-stretch:normal;font-size:17.5px;font-family:'Droid Sans';-inkscape-font-specification:'Droid Sans';fill:#808080;fill-opacity:1"
         d="m 173.37233,-34.143101 3.75977,-9.185791 -0.45289,-1.367187 q -0.11108,-0.350342 -0.2478,-0.632324 -0.12817,-0.290528 -0.31616,-0.495606 -0.17944,-0.213623 -0.44434,-0.324707 -0.25634,-0.119629 -0.62378,-0.119629 -0.29052,0 -0.50415,0.03418 -0.21362,0.02563 -0.38452,0.06836 l 0,-1.239013 q 0.22217,-0.05981 0.50415,-0.10254 0.28199,-0.04272 0.58106,-0.04272 0.63232,0 1.07666,0.179443 0.45288,0.179444 0.78613,0.563965 0.3418,0.375977 0.60669,0.957031 0.27344,0.57251 0.53833,1.367188 l 2.80273,8.288574 q 0.15381,0.461426 0.35035,0.709229 0.19653,0.239257 0.52124,0.239257 0.11963,0 0.28198,-0.02563 0.16235,-0.03418 0.23071,-0.05981 l 0,1.136475 q -0.19653,0.102539 -0.43579,0.162353 -0.23071,0.05982 -0.54687,0.05982 -0.33326,0 -0.5896,-0.0769 -0.24781,-0.06836 -0.45288,-0.239257 -0.19654,-0.170899 -0.35889,-0.444336 -0.15381,-0.273438 -0.28198,-0.666504 l -1.15357,-3.571778 q -0.094,-0.281982 -0.22217,-0.683593 -0.11963,-0.401612 -0.23925,-0.811768 -0.11109,-0.418701 -0.20508,-0.786133 -0.094,-0.375976 -0.13672,-0.589599 l -0.0513,0 q -0.11108,0.657959 -0.3418,1.384277 -0.22217,0.726318 -0.48706,1.401367 l -1.95678,4.91333 -1.60645,0 z" />
    </g>
    <path
       style="fill:#ffffff;fill-opacity:1;fill-rule:evenodd;stroke:#000000;stroke-width:1px;stroke-linecap:butt;stroke-linejoin:miter;stroke-opacity:1"
       d="m 173.06134,56.842468 c -12.48762,-2.988704 -12.7352,-10.560896 -30.12962,-10.250282 -17.39441,0.310615 -12.11397,8.386594 -20.18995,8.386594 -8.07597,0 -18.32626,-13.356427 -30.129615,-13.356427 -11.80335,0 -13.66704,11.49274 -25.15978,11.49274 -11.49274,0 -13.35642,-27.955313 -26.09162,-28.265928 -12.7352,-0.310614 -17.39442,6.522907 -17.39442,8.697209 0,2.174302 8.3866,7.765364 11.80336,7.765364 3.41676,0 13.83025,21.067558 21.99427,21.067558 31.64537,0 22.86899,-10.237134 34.98295,-10.237134 12.113975,0 16.021115,11.246787 30.305475,10.912597 10.39655,-0.243233 7.91839,-10.045817 18.90657,-10.689556 13.1602,-0.770985 31.10238,4.477265 31.10238,4.477265 z"
       id="path4136" />
    <path
       style="fill:none;fill-rule:evenodd;stroke:#000000;stroke-width:1px;stroke-linecap:butt;stroke-linejoin:miter;stroke-opacity:1"
       d="m 146.13593,46.619476 c 3.59774,0.4797 4.07744,3.477823 4.07744,3.477823"
       id="path4167" />
    <path
       style="fill:none;fill-rule:evenodd;stroke:#000000;stroke-width:1px;stroke-linecap:butt;stroke-linejoin:miter;stroke-opacity:1"
       d="m 139.77991,46.859326 c 3.23797,0.4797 3.59774,3.237973 3.59774,3.237973"
       id="path4169" />
    <path
       style="fill:none;fill-rule:evenodd;stroke:#000000;stroke-width:1px;stroke-linecap:butt;stroke-linejoin:miter;stroke-opacity:1"
       d="m 134.14343,47.818725 c 2.75828,0.119925 3.23798,2.278574 3.23798,2.278574"
       id="path4171" />
    <path
       style="fill:none;fill-rule:evenodd;stroke:#000000;stroke-width:1px;stroke-linecap:butt;stroke-linejoin:miter;stroke-opacity:1"
       d="m 129.94606,50.337149 c 2.3985,0.719549 2.99812,1.678949 2.99812,1.678949"
       id="path4173" />
    <path
       style="fill:none;fill-rule:evenodd;stroke:#000000;stroke-width:1px;stroke-linecap:butt;stroke-linejoin:miter;stroke-opacity:1"
       d="m 126.46824,53.814971 c 2.15865,0.959399 2.8782,2.158649 2.8782,2.158649"
       id="path4175" />
    <path
       style="fill:none;fill-rule:evenodd;stroke:#000000;stroke-width:1px;stroke-linecap:butt;stroke-linejoin:miter;stroke-opacity:1"
       d="m 122.87049,54.894296 c 1.67895,1.079324 2.3985,2.998123 2.3985,2.998123"
       id="path4177" />
    <path
       style="fill:none;fill-rule:evenodd;stroke:#000000;stroke-width:1px;stroke-linecap:butt;stroke-linejoin:miter;stroke-opacity:1"
       d="m 119.75244,54.294671 c 0.4797,1.559024 0.11993,3.118048 0.11993,3.118048"
       id="path4179" />
    <path
       style="fill:none;fill-rule:evenodd;stroke:#000000;stroke-width:1px;stroke-linecap:butt;stroke-linejoin:miter;stroke-opacity:1"
       d="m 115.675,52.136022 c 0,1.678949 -0.71955,3.237973 -0.71955,3.237973"
       id="path4181" />
    <path
       style="fill:none;fill-rule:evenodd;stroke:#000000;stroke-width:1px;stroke-linecap:butt;stroke-linejoin:miter;stroke-opacity:1"
       d="m 111.71747,50.097299 c 0.23985,1.918799 -0.71955,3.357898 -0.71955,3.357898"
       id="path4183" />
    <path
       style="fill:none;fill-rule:evenodd;stroke:#000000;stroke-width:1px;stroke-linecap:butt;stroke-linejoin:miter;stroke-opacity:1"
       d="m 107.64003,47.219101 c 0.83947,2.278573 -0.59963,3.357897 -0.59963,3.357897"
       id="path4185" />
    <path
       style="fill:none;fill-rule:evenodd;stroke:#000000;stroke-width:1px;stroke-linecap:butt;stroke-linejoin:miter;stroke-opacity:1"
       d="m 103.92235,45.060452 c 0.9594,1.678949 -0.4797,3.357898 -0.4797,3.357898"
       id="path4187" />
    <path
       style="fill:none;fill-rule:evenodd;stroke:#000000;stroke-width:1px;stroke-linecap:butt;stroke-linejoin:miter;stroke-opacity:1"
       d="m 99.605057,43.261578 c 0.599623,1.439099 0,3.357898 0,3.357898"
       id="path4189" />
    <path
       style="fill:none;fill-rule:evenodd;stroke:#000000;stroke-width:1px;stroke-linecap:butt;stroke-linejoin:miter;stroke-opacity:1"
       d="m 94.208435,41.822479 c 1.07932,1.798874 0.59963,3.837598 0.59963,3.837598"
       id="path4191" />
    <path
       style="fill:none;fill-rule:evenodd;stroke:#000000;stroke-width:1px;stroke-linecap:butt;stroke-linejoin:miter;stroke-opacity:1"
       d="m 88.212185,42.062329 c 1.31918,1.199249 1.31918,3.477823 1.31918,3.477823"
       id="path4193" />
    <path
       style="fill:none;fill-rule:evenodd;stroke:#000000;stroke-width:1px;stroke-linecap:butt;stroke-linejoin:miter;stroke-opacity:1"
       d="m 83.055415,44.820602 c 1.4391,1.439099 1.55903,3.357898 1.55903,3.357898"
       id="path4195" />
    <path
       style="fill:none;fill-rule:evenodd;stroke:#000000;stroke-width:1px;stroke-linecap:butt;stroke-linejoin:miter;stroke-opacity:1"
       d="m 78.738125,48.058575 c 1.4391,1.439099 1.31917,2.758273 1.31917,2.758273"
       id="path4197" />
    <path
       style="fill:none;fill-rule:evenodd;stroke:#000000;stroke-width:1px;stroke-linecap:butt;stroke-linejoin:miter;stroke-opacity:1"
       d="m 51.874935,33.30781 c -2.63835,0.119924 -3.95752,2.758273 -3.95752,2.758273"
       id="path4199" />
    <path
       style="fill:none;fill-rule:evenodd;stroke:#000000;stroke-width:1px;stroke-linecap:butt;stroke-linejoin:miter;stroke-opacity:1"
       d="m 48.517045,29.110438 c -2.99812,0.359775 -3.71767,2.878198 -3.71767,2.878198"
       id="path4201" />
    <path
       style="fill:none;fill-rule:evenodd;stroke:#000000;stroke-width:1px;stroke-linecap:butt;stroke-linejoin:miter;stroke-opacity:1"
       d="m 54.033595,37.265333 c -2.3985,0.479699 -2.99813,2.158648 -2.99813,2.158648"
       id="path4203" />
    <path
       style="fill:none;fill-rule:evenodd;stroke:#000000;stroke-width:1px;stroke-linecap:butt;stroke-linejoin:miter;stroke-opacity:1"
       d="m 56.072315,41.34278 c -2.15865,0.959399 -2.63835,2.278573 -2.63835,2.278573"
       id="path4205" />
    <path
       style="fill:none;fill-rule:evenodd;stroke:#000000;stroke-width:1px;stroke-linecap:butt;stroke-linejoin:miter;stroke-opacity:1"
       d="m 69.623835,52.855572 0,2.998123"
       id="path4207" />
    <path
       style="fill:none;fill-rule:evenodd;stroke:#000000;stroke-width:1px;stroke-linecap:butt;stroke-linejoin:miter;stroke-opacity:1"
       d="m 74.300915,51.656323 c 0.95941,0.959399 1.19925,2.398498 1.19925,2.398498"
       id="path4209" />
    <path
       style="fill:none;fill-rule:evenodd;stroke:#000000;stroke-width:1px;stroke-linecap:butt;stroke-linejoin:miter;stroke-opacity:1"
       d="m 65.906155,52.615722 c -0.71955,1.199249 -0.9594,2.758273 -0.9594,2.758273"
       id="path4211" />
    <path
       style="fill:none;fill-rule:evenodd;stroke:#000000;stroke-width:1px;stroke-linecap:butt;stroke-linejoin:miter;stroke-opacity:1"
       d="m 62.548245,51.056699 c -1.67895,1.079324 -2.03873,2.998123 -2.03873,2.998123"
       id="path4213" />
    <path
       style="fill:none;fill-rule:evenodd;stroke:#000000;stroke-width:1px;stroke-linecap:butt;stroke-linejoin:miter;stroke-opacity:1"
       d="m 59.909895,48.178501 c -2.63835,0.959399 -2.8782,2.278573 -2.8782,2.278573"
       id="path4215" />
    <path
       style="fill:none;fill-rule:evenodd;stroke:#000000;stroke-width:1px;stroke-linecap:butt;stroke-linejoin:miter;stroke-opacity:1"
       d="m 58.111035,44.820602 c -1.79887,0.23985 -3.23797,2.038724 -3.23797,2.038724"
       id="path4217" />
    <path
       d="M 21.457826,66.44947 35.766327,49.091139 33.228325,45.972483 c -0.416327,-0.532967 -0.874023,-1.013 -1.373088,-1.440097 -0.470202,-0.440543 -1.040226,-0.814365 -1.710071,-1.121468 -0.640969,-0.320548 -1.42543,-0.56076 -2.353381,-0.720637 -0.899042,-0.173324 -1.985218,-0.252697 -3.258527,-0.238118 -1.006771,0.01153 -1.878786,0.04774 -2.616045,0.108653 -0.737964,0.04779 -1.401149,0.107849 -1.989556,0.180166 l -0.16657,-2.850708 c 0.764549,-0.100555 1.63349,-0.189197 2.606825,-0.265927 0.973382,-0.07672 1.978263,-0.121005 3.014642,-0.132868 2.191251,-0.02509 4.06482,0.211093 5.620708,0.468708 1.585489,0.257274 3.812365,1.033975 5.841153,1.49063 5.646254,6.537333 8.350838,10.964819 10.941493,13.794062 l 4.290397,4.872244 c 0.574383,0.70166 3.491799,2.317962 4.195101,2.690259 0.702496,0.359188 4.374639,0.969563 5.499882,0.95668 0.414576,-0.0047 0.902009,-0.02998 1.4623,-0.07575 0.559545,-0.05887 0.95662,-0.109314 1.191225,-0.15134 l 0.152765,2.61479 c -0.671869,0.165078 -1.419686,0.298236 -2.243451,0.399476 -0.794136,0.100908 -1.739012,0.157634 -2.834627,0.170176 -1.154877,0.01322 -2.179919,-0.03406 -3.075126,-0.14184 C 55.559488,66.484554 54.76406,66.310041 54.038089,66.056046 52.02707,65.183528 49.664747,64.207342 48.398784,63.178603 46.59991,61.979354 44.080832,59.029351 44.080832,59.029351 43.7298,58.60056 43.314205,58.080699 42.834047,57.469769 42.38349,56.8585 41.93256,56.240678 41.481257,55.616301 41.058756,54.97848 40.668184,54.37964 40.30954,53.81978 39.950084,53.246815 39.686764,52.797347 39.519579,52.471375 l -0.26666,0.0031 c -0.325965,1.013625 -0.856154,2.082049 -1.590568,3.205272 -0.704807,1.122885 -1.485927,2.207297 -2.343361,3.253237 l -5.510852,7.420994 -8.350459,0.09561 z"
       style="font-style:normal;font-variant:normal;font-weight:normal;font-stretch:normal;font-size:17.5px;line-height:125%;font-family:'Droid Sans';-inkscape-font-specification:'Droid Sans';letter-spacing:0px;word-spacing:0px;fill:#cac9ff;fill-opacity:1;stroke:#000000;stroke-width:1px;stroke-linecap:butt;stroke-linejoin:miter;stroke-opacity:1"
       id="path4258" />
    <circle
       style="color:#000000;clip-rule:nonzero;display:inline;overflow:visible;visibility:visible;opacity:1;isolation:auto;mix-blend-mode:normal;color-interpolation:sRGB;color-interpolation-filters:linearRGB;solid-color:#000000;solid-opacity:1;fill:#000000;fill-opacity:1;fill-rule:nonzero;stroke:#000000;stroke-width:1.61399996;stroke-linecap:butt;stroke-linejoin:miter;stroke-miterlimit:4;stroke-dasharray:none;stroke-dashoffset:0;stroke-opacity:1;color-rendering:auto;image-rendering:auto;shape-rendering:auto;text-rendering:auto;enable-background:accumulate"
       id="path4161"
       cx="-36.11969"
       cy="31.589027"
       r="1.6418211"
       transform="scale(-1,1)" />
    <circle
       style="color:#000000;clip-rule:nonzero;display:inline;overflow:visible;visibility:visible;opacity:1;isolation:auto;mix-blend-mode:normal;color-interpolation:sRGB;color-interpolation-filters:linearRGB;solid-color:#000000;solid-opacity:1;fill:#ffffff;fill-opacity:1;fill-rule:nonzero;stroke:none;stroke-width:1.61399996;stroke-linecap:butt;stroke-linejoin:miter;stroke-miterlimit:4;stroke-dasharray:none;stroke-dashoffset:0;stroke-opacity:1;color-rendering:auto;image-rendering:auto;shape-rendering:auto;text-rendering:auto;enable-background:accumulate"
       id="path4163"
       cx="-35.509918"
       cy="30.977562"
       r="0.96313089"
       transform="scale(-1,1)" />
    <circle
       r="0.49015415"
       cy="32.60812"
       cx="-37.066925"
       id="circle4165"
       style="color:#000000;clip-rule:nonzero;display:inline;overflow:visible;visibility:visible;opacity:1;isolation:auto;mix-blend-mode:normal;color-interpolation:sRGB;color-interpolation-filters:linearRGB;solid-color:#000000;solid-opacity:1;fill:#ffffff;fill-opacity:1;fill-rule:nonzero;stroke:none;stroke-width:1.61399996;stroke-linecap:butt;stroke-linejoin:miter;stroke-miterlimit:4;stroke-dasharray:none;stroke-dashoffset:0;stroke-opacity:1;color-rendering:auto;image-rendering:auto;shape-rendering:auto;text-rendering:auto;enable-background:accumulate"
       transform="scale(-1,1)" />
  </g>
</svg>
