<?xml version="1.0" encoding="UTF-8" standalone="no"?>
<svg
   xmlns:dc="http://purl.org/dc/elements/1.1/"
   xmlns:cc="http://creativecommons.org/ns#"
   xmlns:rdf="http://www.w3.org/1999/02/22-rdf-syntax-ns#"
   xmlns:svg="http://www.w3.org/2000/svg"
   xmlns="http://www.w3.org/2000/svg"
   enable-background="new 0 0 511.875 511.824"
   x="0px"
   y="0px"
   version="1.1"
   width="511.88px"
   viewBox="0 0 511.875 511.824"
   height="511.82px"
   xml:space="preserve"
   id="circle_pieces"><metadata
     id="metadata11"><rdf:RDF><cc:Work
         rdf:about=""><dc:format>image/svg+xml</dc:format><dc:type
           rdf:resource="http://purl.org/dc/dcmitype/StillImage" /><dc:title></dc:title></cc:Work></rdf:RDF></metadata><defs
     id="defs9" /><circle
     fill="#fff"
     r="253.09"
     cx="256.25"
     cy="255.99"
     id="circle" /><path
     fill="#3E5BA9"
     d="m455.4 412.2c33.792-43.021 53.946-97.262 53.946-156.21 0-139.78-113.31-253.09-253.09-253.09-30.406 0-59.558 5.367-86.566 15.197 102.75 53.892 238.66 229.74 285.71 394.1z"
     id="blue-piece" /><path
     fill="#9F1D20"
     d="m220 164.34c-39.481-42.533-83.695-76.312-130.52-98.715-52.907 46.385-86.321 114.46-86.321 190.36 0 63.814 23.626 122.1 62.597 166.62 34.354-103.21 98.944-202.69 154.24-258.26z"
     id="left-red-piece" /><path
     fill="#9F1D20"
     d="m266.64 221.73c-54.792 59.051-109.39 162.42-129.15 257.79 35.419 18.857 75.84 29.559 118.77 29.559 44.132 0 85.618-11.306 121.74-31.163-20.83-96.21-60.13-184.32-111.36-256.19z"
     id="bottom-red-piece" /></svg>