<?xml version="1.0" encoding="UTF-8" standalone="no"?>
<!-- Generator: Adobe Illustrator 15.1.0, SVG Export Plug-In . SVG Version: 6.00 Build 0)  -->
<!DOCTYPE svg  PUBLIC '-//W3C//DTD SVG 1.1//EN'  'http://www.w3.org/Graphics/SVG/1.1/DTD/svg11.dtd'>
<svg id="circle_pieces" xmlns="http://www.w3.org/2000/svg" xml:space="preserve" height="511.82px" viewBox="0 0 511.875 511.824" width="511.88px" version="1.1" y="0px" x="0px" xmlns:xlink="http://www.w3.org/1999/xlink" enable-background="new 0 0 511.875 511.824">
<circle id="circle" cy="255.99" cx="256.25" r="253.09" fill="#fff"/>
<path id="blue-piece" d="m455.4 412.2c33.792-43.021 53.946-97.262 53.946-156.21 0-139.78-113.31-253.09-253.09-253.09-30.406 0-59.558 5.367-86.566 15.197 102.75 53.892 238.66 229.74 285.71 394.1z" fill="#3E5BA9"/>
<path id="left-red-piece" d="m220 164.34c-39.481-42.533-83.695-76.312-130.52-98.715-52.907 46.385-86.321 114.46-86.321 190.36 0 63.814 23.626 122.1 62.597 166.62 34.354-103.21 98.944-202.69 154.24-258.26z" fill="#9F1D20"/>
<path id="bottom-red-piece" d="m266.64 221.73c-54.792 59.051-109.39 162.42-129.15 257.79 35.419 18.857 75.84 29.559 118.77 29.559 44.132 0 85.618-11.306 121.74-31.163-20.83-96.21-60.13-184.32-111.36-256.19z" fill="#9F1D20"/>
</svg>
