<?xml version="1.0" encoding="UTF-8" standalone="no"?>
<svg
   xmlns:dc="http://purl.org/dc/elements/1.1/"
   xmlns:cc="http://creativecommons.org/ns#"
   xmlns:rdf="http://www.w3.org/1999/02/22-rdf-syntax-ns#"
   xmlns:svg="http://www.w3.org/2000/svg"
   xmlns="http://www.w3.org/2000/svg"
   version="1.1"
   id="svg2"
   viewBox="0 0 149.73538 39.22306"
   height="11.069619mm"
   width="42.258652mm">
  <defs
     id="defs4" />
  <metadata
     id="metadata7">
    <rdf:RDF>
      <cc:Work
         rdf:about="">
        <dc:format>image/svg+xml</dc:format>
        <dc:type
           rdf:resource="http://purl.org/dc/dcmitype/StillImage" />
        <dc:title></dc:title>
      </cc:Work>
    </rdf:RDF>
  </metadata>
  <g
     transform="translate(-23.466335,-24.338937)"
     id="layer1">
    <path
       id="path4136"
       d="m 23.606708,56.842468 c 12.48762,-2.988704 12.735198,-10.560896 30.129615,-10.250282 17.394416,0.310615 12.113969,8.386594 20.189948,8.386594 8.075979,0 18.32626,-13.356427 30.129619,-13.356427 11.80335,0 13.66704,11.49274 25.15978,11.49274 11.49274,0 13.35642,-27.955313 26.09162,-28.265928 12.7352,-0.310614 17.39442,6.522907 17.39442,8.697209 0,2.174302 -8.3866,7.765364 -11.80336,7.765364 -3.41676,0 -13.83025,21.067558 -21.99427,21.067558 -31.64537,0 -22.86899,-10.237134 -34.98295,-10.237134 -12.113977,0 -16.021112,11.246787 -30.305474,10.912597 C 63.219109,62.811526 65.69727,53.008942 54.709083,52.365203 41.548886,51.594218 23.606708,56.842468 23.606708,56.842468 Z"
       style="fill:none;fill-rule:evenodd;stroke:#000000;stroke-width:1px;stroke-linecap:butt;stroke-linejoin:miter;stroke-opacity:1" />
    <circle
       r="1.6418211"
       cy="31.589027"
       cx="160.54836"
       id="path4161"
       style="color:#000000;clip-rule:nonzero;display:inline;overflow:visible;visibility:visible;opacity:1;isolation:auto;mix-blend-mode:normal;color-interpolation:sRGB;color-interpolation-filters:linearRGB;solid-color:#000000;solid-opacity:1;fill:#000000;fill-opacity:1;fill-rule:nonzero;stroke:#000000;stroke-width:1.61399996;stroke-linecap:butt;stroke-linejoin:miter;stroke-miterlimit:4;stroke-dasharray:none;stroke-dashoffset:0;stroke-opacity:1;color-rendering:auto;image-rendering:auto;shape-rendering:auto;text-rendering:auto;enable-background:accumulate" />
    <circle
       r="0.96313089"
       cy="30.977562"
       cx="161.15813"
       id="path4163"
       style="color:#000000;clip-rule:nonzero;display:inline;overflow:visible;visibility:visible;opacity:1;isolation:auto;mix-blend-mode:normal;color-interpolation:sRGB;color-interpolation-filters:linearRGB;solid-color:#000000;solid-opacity:1;fill:#ffffff;fill-opacity:1;fill-rule:nonzero;stroke:none;stroke-width:1.61399996;stroke-linecap:butt;stroke-linejoin:miter;stroke-miterlimit:4;stroke-dasharray:none;stroke-dashoffset:0;stroke-opacity:1;color-rendering:auto;image-rendering:auto;shape-rendering:auto;text-rendering:auto;enable-background:accumulate" />
    <circle
       style="color:#000000;clip-rule:nonzero;display:inline;overflow:visible;visibility:visible;opacity:1;isolation:auto;mix-blend-mode:normal;color-interpolation:sRGB;color-interpolation-filters:linearRGB;solid-color:#000000;solid-opacity:1;fill:#ffffff;fill-opacity:1;fill-rule:nonzero;stroke:none;stroke-width:1.61399996;stroke-linecap:butt;stroke-linejoin:miter;stroke-miterlimit:4;stroke-dasharray:none;stroke-dashoffset:0;stroke-opacity:1;color-rendering:auto;image-rendering:auto;shape-rendering:auto;text-rendering:auto;enable-background:accumulate"
       id="circle4165"
       cx="159.60112"
       cy="32.60812"
       r="0.49015415" />
    <path
       id="path4167"
       d="m 50.53212,46.619476 c -3.597748,0.4797 -4.077447,3.477823 -4.077447,3.477823"
       style="fill:none;fill-rule:evenodd;stroke:#000000;stroke-width:1px;stroke-linecap:butt;stroke-linejoin:miter;stroke-opacity:1" />
    <path
       id="path4169"
       d="m 56.88814,46.859326 c -3.237972,0.4797 -3.597747,3.237973 -3.597747,3.237973"
       style="fill:none;fill-rule:evenodd;stroke:#000000;stroke-width:1px;stroke-linecap:butt;stroke-linejoin:miter;stroke-opacity:1" />
    <path
       id="path4171"
       d="m 62.524612,47.818725 c -2.758273,0.119925 -3.237973,2.278574 -3.237973,2.278574"
       style="fill:none;fill-rule:evenodd;stroke:#000000;stroke-width:1px;stroke-linecap:butt;stroke-linejoin:miter;stroke-opacity:1" />
    <path
       id="path4173"
       d="m 66.721984,50.337149 c -2.398498,0.719549 -2.998123,1.678949 -2.998123,1.678949"
       style="fill:none;fill-rule:evenodd;stroke:#000000;stroke-width:1px;stroke-linecap:butt;stroke-linejoin:miter;stroke-opacity:1" />
    <path
       id="path4175"
       d="M 70.199807,53.814971 C 68.041158,54.77437 67.321609,55.97362 67.321609,55.97362"
       style="fill:none;fill-rule:evenodd;stroke:#000000;stroke-width:1px;stroke-linecap:butt;stroke-linejoin:miter;stroke-opacity:1" />
    <path
       id="path4177"
       d="m 73.797555,54.894296 c -1.678949,1.079324 -2.398499,2.998123 -2.398499,2.998123"
       style="fill:none;fill-rule:evenodd;stroke:#000000;stroke-width:1px;stroke-linecap:butt;stroke-linejoin:miter;stroke-opacity:1" />
    <path
       id="path4179"
       d="m 76.915602,54.294671 c -0.4797,1.559024 -0.119925,3.118048 -0.119925,3.118048"
       style="fill:none;fill-rule:evenodd;stroke:#000000;stroke-width:1px;stroke-linecap:butt;stroke-linejoin:miter;stroke-opacity:1" />
    <path
       id="path4181"
       d="m 80.993049,52.136022 c 0,1.678949 0.71955,3.237973 0.71955,3.237973"
       style="fill:none;fill-rule:evenodd;stroke:#000000;stroke-width:1px;stroke-linecap:butt;stroke-linejoin:miter;stroke-opacity:1" />
    <path
       id="path4183"
       d="m 84.950572,50.097299 c -0.23985,1.918799 0.719549,3.357898 0.719549,3.357898"
       style="fill:none;fill-rule:evenodd;stroke:#000000;stroke-width:1px;stroke-linecap:butt;stroke-linejoin:miter;stroke-opacity:1" />
    <path
       id="path4185"
       d="m 89.028019,47.219101 c -0.839474,2.278573 0.599624,3.357897 0.599624,3.357897"
       style="fill:none;fill-rule:evenodd;stroke:#000000;stroke-width:1px;stroke-linecap:butt;stroke-linejoin:miter;stroke-opacity:1" />
    <path
       id="path4187"
       d="m 92.745691,45.060452 c -0.959399,1.678949 0.4797,3.357898 0.4797,3.357898"
       style="fill:none;fill-rule:evenodd;stroke:#000000;stroke-width:1px;stroke-linecap:butt;stroke-linejoin:miter;stroke-opacity:1" />
    <path
       id="path4189"
       d="m 97.062988,43.261578 c -0.599624,1.439099 0,3.357898 0,3.357898"
       style="fill:none;fill-rule:evenodd;stroke:#000000;stroke-width:1px;stroke-linecap:butt;stroke-linejoin:miter;stroke-opacity:1" />
    <path
       id="path4191"
       d="m 102.45961,41.822479 c -1.07932,1.798874 -0.59963,3.837598 -0.59963,3.837598"
       style="fill:none;fill-rule:evenodd;stroke:#000000;stroke-width:1px;stroke-linecap:butt;stroke-linejoin:miter;stroke-opacity:1" />
    <path
       id="path4193"
       d="m 108.45586,42.062329 c -1.31918,1.199249 -1.31918,3.477823 -1.31918,3.477823"
       style="fill:none;fill-rule:evenodd;stroke:#000000;stroke-width:1px;stroke-linecap:butt;stroke-linejoin:miter;stroke-opacity:1" />
    <path
       id="path4195"
       d="m 113.61263,44.820602 c -1.4391,1.439099 -1.55903,3.357898 -1.55903,3.357898"
       style="fill:none;fill-rule:evenodd;stroke:#000000;stroke-width:1px;stroke-linecap:butt;stroke-linejoin:miter;stroke-opacity:1" />
    <path
       id="path4197"
       d="m 117.92992,48.058575 c -1.4391,1.439099 -1.31917,2.758273 -1.31917,2.758273"
       style="fill:none;fill-rule:evenodd;stroke:#000000;stroke-width:1px;stroke-linecap:butt;stroke-linejoin:miter;stroke-opacity:1" />
    <path
       id="path4199"
       d="m 144.79311,33.30781 c 2.63835,0.119924 3.95752,2.758273 3.95752,2.758273"
       style="fill:none;fill-rule:evenodd;stroke:#000000;stroke-width:1px;stroke-linecap:butt;stroke-linejoin:miter;stroke-opacity:1" />
    <path
       id="path4201"
       d="m 148.151,29.110438 c 2.99812,0.359775 3.71767,2.878198 3.71767,2.878198"
       style="fill:none;fill-rule:evenodd;stroke:#000000;stroke-width:1px;stroke-linecap:butt;stroke-linejoin:miter;stroke-opacity:1" />
    <path
       id="path4203"
       d="m 142.63445,37.265333 c 2.3985,0.479699 2.99813,2.158648 2.99813,2.158648"
       style="fill:none;fill-rule:evenodd;stroke:#000000;stroke-width:1px;stroke-linecap:butt;stroke-linejoin:miter;stroke-opacity:1" />
    <path
       id="path4205"
       d="m 140.59573,41.34278 c 2.15865,0.959399 2.63835,2.278573 2.63835,2.278573"
       style="fill:none;fill-rule:evenodd;stroke:#000000;stroke-width:1px;stroke-linecap:butt;stroke-linejoin:miter;stroke-opacity:1" />
    <path
       id="path4207"
       d="m 127.04421,52.855572 0,2.998123"
       style="fill:none;fill-rule:evenodd;stroke:#000000;stroke-width:1px;stroke-linecap:butt;stroke-linejoin:miter;stroke-opacity:1" />
    <path
       id="path4209"
       d="m 122.36713,51.656323 c -0.95941,0.959399 -1.19925,2.398498 -1.19925,2.398498"
       style="fill:none;fill-rule:evenodd;stroke:#000000;stroke-width:1px;stroke-linecap:butt;stroke-linejoin:miter;stroke-opacity:1" />
    <path
       id="path4211"
       d="m 130.76189,52.615722 c 0.71955,1.199249 0.9594,2.758273 0.9594,2.758273"
       style="fill:none;fill-rule:evenodd;stroke:#000000;stroke-width:1px;stroke-linecap:butt;stroke-linejoin:miter;stroke-opacity:1" />
    <path
       id="path4213"
       d="m 134.1198,51.056699 c 1.67895,1.079324 2.03873,2.998123 2.03873,2.998123"
       style="fill:none;fill-rule:evenodd;stroke:#000000;stroke-width:1px;stroke-linecap:butt;stroke-linejoin:miter;stroke-opacity:1" />
    <path
       id="path4215"
       d="m 136.75815,48.178501 c 2.63835,0.959399 2.8782,2.278573 2.8782,2.278573"
       style="fill:none;fill-rule:evenodd;stroke:#000000;stroke-width:1px;stroke-linecap:butt;stroke-linejoin:miter;stroke-opacity:1" />
    <path
       id="path4217"
       d="m 138.55701,44.820602 c 1.79887,0.23985 3.23797,2.038724 3.23797,2.038724"
       style="fill:none;fill-rule:evenodd;stroke:#000000;stroke-width:1px;stroke-linecap:butt;stroke-linejoin:miter;stroke-opacity:1" />
  </g>
</svg>
