<?xml version="1.0" encoding="UTF-8" standalone="no"?>
<!-- Created with Inkscape (http://www.inkscape.org/) -->

<svg
   xmlns:dc="http://purl.org/dc/elements/1.1/"
   xmlns:cc="http://creativecommons.org/ns#"
   xmlns:rdf="http://www.w3.org/1999/02/22-rdf-syntax-ns#"
   xmlns:svg="http://www.w3.org/2000/svg"
   xmlns="http://www.w3.org/2000/svg"
   xmlns:sodipodi="http://sodipodi.sourceforge.net/DTD/sodipodi-0.dtd"
   xmlns:inkscape="http://www.inkscape.org/namespaces/inkscape"
   inkscape:version="0.91 r"
   version="1.1"
   id="svg2"
   viewBox="0 0 956.948 74.239382"
   height="20.952003mm"
   width="270.07199mm"
   sodipodi:docname="background.svg">
  <sodipodi:namedview
     inkscape:window-maximized="1"
     inkscape:window-y="0"
     inkscape:window-x="0"
     inkscape:window-height="1020"
     inkscape:window-width="1920"
     showgrid="true"
     inkscape:current-layer="svg2"
     inkscape:document-units="px"
     inkscape:cy="37.119691"
     inkscape:cx="478.474"
     inkscape:zoom="1.40342"
     inkscape:pageshadow="2"
     inkscape:pageopacity="0.0"
     borderopacity="1.0"
     bordercolor="#666666"
     pagecolor="#ffffff"
     id="base"
     fit-margin-top="0"
     fit-margin-left="0"
     fit-margin-right="0"
     fit-margin-bottom="0">
    <inkscape:grid
       type="xygrid"
       id="grid4136"
       originx="-299.72125"
       originy="-666.02838" />
  </sodipodi:namedview>
  <defs
     id="defs4" />
  <metadata
     id="metadata7">
    <rdf:RDF>
      <cc:Work
         rdf:about="">
        <dc:format>image/svg+xml</dc:format>
        <dc:type
           rdf:resource="http://purl.org/dc/dcmitype/StillImage" />
        <dc:title></dc:title>
      </cc:Work>
    </rdf:RDF>
  </metadata>
  <g
     inkscape:label="Layer 1"
     inkscape:groupmode="layer"
     id="layer1"
     transform="translate(-299.72125,-312.09448)">
    <g
       id="g4401">
      <g
         word-spacing="normal"
         letter-spacing="normal"
         font-size-adjust="none"
         font-stretch="normal"
         font-weight="normal"
         font-variant="normal"
         font-style="normal"
         stroke-miterlimit="10.433"
         xml:space="preserve"
         transform="matrix(1.0629921,0,0,-1.0629921,-186.02362,789.27165)"
         id="content"
         style="font-style:normal;font-variant:normal;font-weight:normal;font-stretch:normal;letter-spacing:normal;word-spacing:normal;text-anchor:start;fill:none;fill-opacity:1;fill-rule:evenodd;stroke:#000000;stroke-linecap:butt;stroke-linejoin:miter;stroke-miterlimit:10.43299961;stroke-dasharray:none;stroke-dashoffset:0;stroke-opacity:1"><path
           id="path4404"
           d="m 479.54,439.48 0,0.02 0,0.02 0.01,0.04 0.02,0.04 0.01,0.05 0.01,0.04 0.01,0.05 0.01,0.05 0.01,0.05 0.01,0.05 0.01,0.05 0.01,0.05 0.01,0.05 0.01,0.05 0,0.04 0,0.05 0.01,0.03 0,0.02 c 0,0.5 -0.35,0.55 -0.6,0.55 -0.5,0 -0.54,-0.11 -0.75,-1 l -8.26,-32.94 c -3.78,0.45 -5.68,2.3 -5.68,5.59 0,0.99 0,2.28 2.69,9.27 0.21,0.59 0.55,1.44 0.55,2.44 0,2.23 -1.59,4.07 -4.09,4.07 -4.74,0 -6.58,-7.21 -6.58,-7.67 0,-0.5 0.5,-0.5 0.61,-0.5 0.5,0 0.54,0.11 0.79,0.91 1.35,4.73 3.33,6.17 5.03,6.17 0.4,0 1.25,0 1.25,-1.59 0,-1.3 -0.5,-2.53 -1.15,-4.28 -2.39,-6.29 -2.39,-7.58 -2.39,-8.43 0,-4.73 3.89,-6.78 8.67,-7.07 -0.41,-1.79 -0.41,-1.89 -1.09,-4.54 -0.16,-0.54 -1.16,-4.57 -1.16,-4.73 0,-0.05 0,-0.5 0.61,-0.5 0.09,0 0.34,0 0.44,0.2 0.15,0.1 0.45,1.35 0.61,2.05 l 1.89,7.42 c 1.84,0 6.22,0 10.9,5.33 2.05,2.3 3.1,4.48 3.64,5.98 0.46,1.24 1.55,5.58 1.55,7.77 0,2.8 -1.34,3.48 -2.2,3.48 -1.24,0 -2.49,-1.29 -2.49,-2.39 0,-0.64 0.3,-0.93 0.75,-1.34 0.55,-0.55 1.8,-1.84 1.8,-4.23 0,-3.19 -2.59,-7.27 -4.34,-9.07 -4.38,-4.43 -7.57,-4.43 -9.36,-4.43 z"
           inkscape:connector-curvature="0"
           style="fill:#000000;stroke-width:0" /><path
           id="path4406"
           d="m 537.87,422.5 0.14,0 0.14,0 0.15,0 0.07,0.01 0.07,0 0.08,0.01 0.07,0.01 0.07,0.01 0.07,0.01 0.07,0.01 0.06,0.02 0.07,0.02 0.06,0.02 0.06,0.02 0.06,0.03 0.06,0.03 0.05,0.04 0.05,0.03 0.05,0.05 0.04,0.04 0.04,0.05 0.02,0.03 0.01,0.03 0.02,0.02 0.02,0.03 0.01,0.03 0.01,0.04 0.02,0.03 0.01,0.04 0.01,0.03 0,0.04 0.01,0.04 0.01,0.04 0,0.04 0.01,0.04 0,0.04 0,0.05 c 0,1 -0.96,1 -1.64,1 l -29.85,0 c -0.7,0 -1.64,0 -1.64,-1 0,-0.98 0.94,-0.98 1.69,-0.98 z"
           inkscape:connector-curvature="0"
           style="fill:#000000;stroke-width:0" /><path
           id="path4408"
           d="m 537.92,412.82 0.06,0 0.07,0 0.14,0.01 0.13,0 0.07,0 0.07,0.01 0.07,0.01 0.07,0 0.07,0.01 0.07,0.02 0.07,0.01 0.06,0.02 0.06,0.02 0.07,0.02 0.06,0.02 0.05,0.03 0.06,0.03 0.05,0.04 0.05,0.04 0.05,0.04 0.04,0.05 0.02,0.02 0.02,0.03 0.02,0.02 0.01,0.03 0.02,0.03 0.02,0.03 0.01,0.03 0.01,0.03 0.02,0.04 0.01,0.03 0.01,0.04 0,0.04 0.01,0.04 0.01,0.04 0,0.04 0.01,0.04 0,0.05 0,0.04 c 0,1 -0.96,1 -1.69,1 l -29.75,0 c -0.75,0 -1.69,0 -1.69,-1 0,-1 0.94,-1 1.64,-1 z"
           inkscape:connector-curvature="0"
           style="fill:#000000;stroke-width:0" /><path
           id="path4410"
           d="m 590.19,447.92 0,0.04 0,0.04 0,0.05 0,0.04 0,0.03 0,0.04 0,0.04 0,0.03 -0.01,0.04 0,0.03 0,0.03 0,0.03 0,0.03 -0.01,0.03 0,0.03 0,0.02 -0.01,0.03 0,0.02 -0.01,0.03 0,0.02 -0.02,0.04 -0.01,0.04 -0.02,0.03 -0.02,0.03 -0.02,0.03 -0.02,0.03 -0.03,0.02 -0.03,0.02 -0.03,0.02 -0.04,0.01 -0.04,0.01 -0.05,0.02 -0.02,0 -0.02,0 -0.03,0.01 -0.03,0 -0.02,0.01 -0.03,0 -0.03,0 -0.03,0 -0.03,0 -0.04,0.01 -0.03,0 -0.04,0 -0.03,0 -0.04,0 -0.04,0 -0.04,0 -0.04,0 -0.05,0 -0.04,0 -0.04,0 c -2.24,-2.2 -5.4,-2.23 -6.83,-2.23 l 0,-1.25 c 0.84,0 3.14,0 5.04,0.97 l 0,-17.77 c 0,-1.16 0,-1.61 -3.48,-1.61 l -1.31,0 0,-1.25 c 0.62,0.03 4.9,0.14 6.2,0.14 1.08,0 5.47,-0.11 6.23,-0.14 l 0,1.25 -1.32,0 c -3.49,0 -3.49,0.45 -3.49,1.61 z"
           inkscape:connector-curvature="0"
           style="fill:#000000;stroke-width:0" /><polyline
           id="polyline4412"
           points="562,418 614.68,418 614.68,420.04 562,420.04 "
           style="fill:#000000;fill-rule:nonzero;stroke-width:0" /><path
           id="path4414"
           d="m 577.64,382.86 -6.83,13.56 c -0.17,0.34 -0.28,0.54 -0.56,0.54 -0.15,0 -0.21,0 -0.57,-0.26 l -3.71,-2.49 c -0.49,-0.31 -0.49,-0.48 -0.49,-0.59 0,-0.2 0.17,-0.48 0.49,-0.48 0.13,0 0.2,0 0.65,0.31 0.39,0.28 1.39,0.98 1.81,1.26 l 7.64,-15.06 c 0.24,-0.51 0.32,-0.59 0.8,-0.59 0.31,0 0.69,0 1.05,0.67 l 17.51,32.61 c 0.29,0.45 0.29,0.52 0.29,0.7 0,0.55 -0.46,0.86 -0.83,0.86 -0.54,0 -0.71,-0.31 -0.91,-0.73 z"
           inkscape:connector-curvature="0"
           style="fill:#000000;stroke-width:0" /><polyline
           id="polyline4416"
           points="595,412 614.92,412 614.92,413.8 595,413.8 "
           style="fill:#000000;fill-rule:nonzero;stroke-width:0" /><path
           id="path4418"
           d="m 604.47,395.04 0.26,-0.01 0.24,-0.01 0.25,-0.03 0.23,-0.04 0.24,-0.05 0.22,-0.06 0.22,-0.07 0.22,-0.08 0.21,-0.1 0.2,-0.1 0.2,-0.12 0.19,-0.13 0.18,-0.13 0.17,-0.15 0.17,-0.16 0.16,-0.17 0.15,-0.18 0.14,-0.19 0.14,-0.21 0.12,-0.21 0.12,-0.23 0.11,-0.23 0.1,-0.25 0.09,-0.26 0.08,-0.26 0.07,-0.28 0.06,-0.29 0.05,-0.3 0.03,-0.31 0.03,-0.32 0.02,-0.34 0.01,-0.34 c 0,-4.33 -2.52,-5.61 -4.54,-5.61 -1.39,0 -4.46,0.38 -5.92,2.44 1.63,0.06 2.02,1.22 2.02,1.95 0,1.11 -0.85,1.91 -1.93,1.91 -0.96,0 -1.95,-0.6 -1.95,-2.02 0,-3.28 3.63,-5.4 7.85,-5.4 4.84,0 8.18,3.25 8.18,6.73 0,2.72 -2.21,5.44 -6.06,6.23 3.66,1.33 4.98,3.94 4.98,6.07 0,2.75 -3.17,4.81 -7.03,4.81 -3.87,0 -6.82,-1.89 -6.82,-4.67 0,-1.19 0.76,-1.85 1.81,-1.85 1.08,0 1.76,0.8 1.76,1.77 0,1.01 -0.68,1.75 -1.76,1.81 1.22,1.55 3.61,1.92 4.91,1.92 1.56,0 3.76,-0.76 3.76,-3.79 0,-1.47 -0.48,-3.07 -1.39,-4.14 -1.16,-1.33 -2.12,-1.41 -3.87,-1.5 -0.88,-0.08 -0.94,-0.08 -1.12,-0.11 -0.07,0 -0.35,-0.07 -0.35,-0.46 0,-0.48 0.31,-0.48 0.9,-0.48 z"
           inkscape:connector-curvature="0"
           style="fill:#000000;stroke-width:0" /><path
           id="path4420"
           d="m 628.68,441.78 0,0.16 0,0.17 0,0.16 -0.01,0.08 0,0.08 -0.01,0.08 -0.01,0.08 -0.01,0.07 -0.01,0.07 -0.01,0.07 -0.02,0.07 -0.02,0.07 -0.02,0.06 -0.03,0.06 -0.02,0.06 -0.04,0.06 -0.03,0.05 -0.04,0.05 -0.04,0.05 -0.05,0.04 -0.05,0.04 -0.02,0.01 -0.03,0.02 -0.03,0.02 -0.03,0.01 -0.03,0.01 -0.04,0.02 -0.03,0.01 -0.04,0.01 -0.03,0.01 -0.04,0.01 -0.04,0 -0.04,0.01 -0.04,0 -0.05,0.01 -0.04,0 -0.05,0 c -1,0 -1,-0.89 -1,-1.78 l 0,-46.24 c 0,-0.9 0,-1.79 1,-1.79 1,0 1,0.89 1,1.79 z"
           inkscape:connector-curvature="0"
           style="fill:#000000;stroke-width:0" /><path
           id="path4422"
           d="m 651.04,394.25 0,0.02 0,0.03 0,0.01 0,0.02 -0.01,0.01 0,0.02 -0.01,0.01 0,0.02 -0.01,0.02 -0.01,0.02 -0.01,0.02 -0.02,0.03 -0.01,0.02 -0.02,0.03 -0.02,0.03 -0.03,0.03 -0.02,0.03 -0.03,0.04 -0.02,0.02 -0.02,0.02 -0.01,0.02 -0.02,0.02 -0.02,0.02 -0.02,0.03 -0.02,0.02 -0.02,0.02 -0.03,0.03 -0.02,0.02 -0.02,0.03 -0.03,0.03 -0.03,0.03 -0.02,0.03 -0.03,0.03 -0.03,0.03 -0.03,0.03 -0.04,0.03 -0.03,0.04 -0.03,0.03 -0.04,0.04 -0.03,0.03 -0.04,0.04 -0.04,0.04 c -6.22,6.28 -7.81,15.69 -7.81,23.31 0,8.67 1.89,17.35 8.01,23.56 0.64,0.61 0.64,0.71 0.64,0.86 0,0.35 -0.19,0.49 -0.48,0.49 -0.5,0 -4.99,-3.38 -7.92,-9.7 -2.55,-5.49 -3.14,-11.02 -3.14,-15.21 0,-3.89 0.54,-9.9 3.28,-15.54 2.98,-6.13 7.28,-9.36 7.78,-9.36 0.29,0 0.48,0.14 0.48,0.5 z"
           inkscape:connector-curvature="0"
           style="fill:#000000;stroke-width:0" /><path
           id="path4424"
           d="m 665.08,436.34 0,0.16 0,0.16 0.01,0.15 0,0.15 0.01,0.13 0.02,0.13 0.02,0.13 0.02,0.11 0.04,0.12 0.03,0.1 0.05,0.1 0.06,0.09 0.06,0.09 0.07,0.08 0.08,0.08 0.1,0.07 0.1,0.06 0.12,0.06 0.07,0.03 0.06,0.03 0.07,0.02 0.08,0.03 0.07,0.02 0.08,0.02 0.09,0.02 0.09,0.02 0.09,0.02 0.1,0.02 0.1,0.02 0.1,0.01 0.11,0.01 0.11,0.02 0.12,0.01 0.12,0.01 0.13,0.01 0.13,0.01 0.13,0.01 0.15,0.01 0.14,0 0.15,0.01 0.16,0 0.16,0.01 0.16,0 0.17,0 0.18,0 0.18,0 1.3,0 0,1.55 c -1.75,-0.16 -5.69,-0.16 -7.58,-0.16 -1.94,0 -5.87,0 -7.62,0.16 l 0,-1.55 1.29,0 c 3.94,0 4.1,-0.54 4.1,-2.34 l 0,-26.25 c 0,-1.8 -0.16,-2.34 -4.1,-2.34 l -1.29,0 0,-1.55 c 1.75,0.16 5.68,0.16 7.57,0.16 1.94,0 5.88,0 7.63,-0.16 l 0,1.55 -1.3,0 c -3.94,0 -4.09,0.54 -4.09,2.34 z"
           inkscape:connector-curvature="0"
           style="fill:#000000;stroke-width:0" /><path
           id="path4426"
           d="m 705.06,439.93 -30.45,0 -0.94,-11.22 1.25,0 c 0.69,8.04 1.44,9.68 8.96,9.68 0.9,0 2.2,0 2.7,-0.11 1.04,-0.19 1.04,-0.74 1.04,-1.89 l 0,-26.25 c 0,-1.71 0,-2.39 -5.23,-2.39 l -2,0 0,-1.55 c 2.05,0.16 7.13,0.16 9.42,0.16 2.3,0 7.42,0 9.47,-0.16 l 0,1.55 -2,0 c -5.23,0 -5.23,0.68 -5.23,2.39 l 0,26.25 c 0,1 0,1.7 0.9,1.89 0.55,0.11 1.89,0.11 2.85,0.11 7.51,0 8.26,-1.64 8.95,-9.68 l 1.25,0 z"
           inkscape:connector-curvature="0"
           style="fill:#000000;stroke-width:0" /><path
           id="path4428"
           d="m 717.98,406.25 0,0.3 -0.01,0.3 -0.02,0.29 -0.02,0.28 -0.03,0.27 -0.04,0.26 -0.05,0.26 -0.05,0.24 -0.06,0.24 -0.06,0.23 -0.07,0.22 -0.08,0.21 -0.08,0.2 -0.09,0.19 -0.1,0.19 -0.1,0.17 -0.1,0.16 -0.12,0.16 -0.11,0.14 -0.13,0.13 -0.12,0.13 -0.14,0.11 -0.14,0.1 -0.14,0.1 -0.15,0.08 -0.15,0.07 -0.16,0.06 -0.17,0.05 -0.16,0.04 -0.18,0.03 -0.17,0.01 -0.18,0.01 c -1.64,0 -2.64,-1.25 -2.64,-2.64 0,-1.34 1,-2.64 2.64,-2.64 0.59,0 1.25,0.2 1.75,0.64 0.14,0.11 0.2,0.16 0.25,0.16 0.04,0 0.09,-0.05 0.09,-0.75 0,-3.69 -1.73,-6.68 -3.39,-8.32 -0.55,-0.54 -0.55,-0.65 -0.55,-0.79 0,-0.36 0.25,-0.55 0.5,-0.55 0.55,0 4.53,3.83 4.53,9.66 z"
           inkscape:connector-curvature="0"
           style="fill:#000000;stroke-width:0" /><path
           id="path4430"
           d="m 732.75,423.23 0.02,-0.96 0.07,-0.94 0.11,-0.93 0.16,-0.91 0.2,-0.89 0.24,-0.87 0.28,-0.85 0.32,-0.83 0.36,-0.81 0.39,-0.78 0.43,-0.76 0.46,-0.74 0.49,-0.7 0.52,-0.68 0.55,-0.66 0.59,-0.62 0.6,-0.59 0.64,-0.56 0.66,-0.53 0.68,-0.5 0.7,-0.46 0.73,-0.43 0.74,-0.39 0.77,-0.35 0.78,-0.32 0.79,-0.28 0.82,-0.23 0.82,-0.2 0.84,-0.15 0.84,-0.11 0.86,-0.07 0.86,-0.02 c 8.13,0 13,6.92 13,12.7 0,0.5 0,0.84 -0.64,0.84 -0.54,0 -0.54,-0.29 -0.59,-0.79 -0.41,-7.13 -5.74,-11.21 -11.17,-11.21 -3.03,0 -12.8,1.69 -12.8,16.53 0,14.91 9.72,16.6 12.75,16.6 5.44,0 9.88,-4.53 10.86,-11.82 0.11,-0.68 0.11,-0.84 0.8,-0.84 0.79,0 0.79,0.16 0.79,1.2 l 0,11.8 c 0,0.86 0,1.2 -0.54,1.2 -0.19,0 -0.39,0 -0.8,-0.59 l -2.48,-3.69 c -1.85,1.8 -4.4,4.28 -9.18,4.28 -9.31,0 -17.32,-7.92 -17.32,-18.09 z"
           inkscape:connector-curvature="0"
           style="fill:#000000;stroke-width:0" /><path
           id="path4432"
           d="m 783.34,425.53 -6.37,1.54 c -3.1,0.75 -5.04,3.44 -5.04,6.33 0,3.49 2.69,6.53 6.58,6.53 8.31,0 9.41,-8.17 9.71,-10.42 0.04,-0.3 0.04,-0.59 0.6,-0.59 0.65,0 0.65,0.25 0.65,1.2 l 0,10 c 0,0.86 0,1.2 -0.55,1.2 -0.35,0 -0.41,-0.04 -0.75,-0.65 l -1.74,-2.83 c -1.5,1.44 -3.54,3.48 -7.98,3.48 -5.53,0 -9.7,-4.39 -9.7,-9.67 0,-4.12 2.64,-7.76 6.51,-9.11 0.55,-0.2 3.09,-0.79 6.58,-1.64 1.34,-0.36 2.84,-0.7 4.23,-2.54 1.05,-1.3 1.55,-2.94 1.55,-4.58 0,-3.55 -2.48,-7.13 -6.67,-7.13 -1.45,0 -5.23,0.25 -7.88,2.69 -2.89,2.69 -3.04,5.87 -3.09,7.67 -0.05,0.5 -0.44,0.5 -0.59,0.5 -0.64,0 -0.64,-0.36 -0.64,-1.25 l 0,-9.97 c 0,-0.84 0,-1.18 0.54,-1.18 0.35,0 0.39,0.09 0.74,0.64 0,0.04 0.15,0.2 1.79,2.84 1.55,-1.69 4.74,-3.48 9.18,-3.48 5.82,0 9.81,4.87 9.81,10.35 0,4.99 -3.28,9.07 -7.47,10.07 z"
           inkscape:connector-curvature="0"
           style="fill:#000000;stroke-width:0" /><path
           id="path4434"
           d="m 808.06,418.65 0,0.37 -0.01,0.39 -0.01,0.39 -0.01,0.41 -0.04,0.84 -0.06,0.88 -0.08,0.92 -0.11,0.95 -0.13,0.97 -0.17,1.01 -0.19,1.02 -0.23,1.03 -0.27,1.05 -0.31,1.06 -0.34,1.07 -0.4,1.07 -0.21,0.53 -0.23,0.53 -0.23,0.53 -0.25,0.53 c -2.99,6.12 -7.27,9.36 -7.77,9.36 -0.29,0 -0.5,-0.19 -0.5,-0.49 0,-0.15 0,-0.25 0.94,-1.15 4.89,-4.92 7.73,-12.85 7.73,-23.27 0,-8.51 -1.84,-17.28 -8.03,-23.56 -0.64,-0.59 -0.64,-0.7 -0.64,-0.84 0,-0.3 0.21,-0.5 0.5,-0.5 0.5,0 4.97,3.39 7.92,9.71 2.54,5.47 3.13,11 3.13,15.19 z"
           inkscape:connector-curvature="0"
           style="fill:#000000;stroke-width:0" /><path
           id="path4436"
           d="m 826.58,417.81 0.01,0.03 0.01,0.02 0.01,0.03 0.01,0.02 0.01,0.03 0.01,0.02 0.01,0.03 0.01,0.02 0.01,0.02 0.01,0.02 0.01,0.02 0,0.03 0.02,0.03 0.01,0.04 0.02,0.04 0.01,0.03 0.01,0.03 0.01,0.03 0.01,0.03 0,0.02 0.01,0.03 0.01,0.02 0,0.02 0.01,0.02 0,0.02 0,0.02 0.01,0.02 0,0.01 0,0.02 0,0.01 0.01,0.02 0,0.01 0,0.03 0,0.03 0,0.02 c 0,0.16 0,0.25 -0.25,0.85 l -8.72,22.92 c -0.3,0.84 -0.59,1.14 -1.14,1.14 -0.55,0 -1,-0.44 -1,-0.99 0,-0.15 0,-0.25 0.25,-0.79 l 8.83,-23.13 -8.83,-23.01 c -0.25,-0.55 -0.25,-0.64 -0.25,-0.89 0,-0.55 0.45,-1 1,-1 0.66,0 0.84,0.5 1.05,1 z"
           inkscape:connector-curvature="0"
           style="fill:#000000;stroke-width:0" /><path
           id="path4438"
           d="m 869.48,417.65 13.9,0 c 0.69,0 1.64,0 1.64,1 0,1 -0.95,1 -1.64,1 l -13.9,0 0,13.96 c 0,0.68 0,1.64 -1,1.64 -0.99,0 -0.99,-0.96 -0.99,-1.64 l 0,-13.96 -13.95,0 c -0.7,0 -1.64,0 -1.64,-1 0,-1 0.94,-1 1.64,-1 l 13.95,0 0,-13.94 c 0,-0.7 0,-1.65 0.99,-1.65 1,0 1,0.95 1,1.65 z"
           inkscape:connector-curvature="0"
           style="fill:#000000;stroke-width:0" /><path
           id="path4440"
           d="m 938.43,447.92 0,0.04 0,0.04 0,0.05 0,0.04 0,0.03 0,0.04 0,0.04 0,0.03 0,0.04 0,0.03 -0.01,0.03 0,0.03 0,0.03 0,0.03 -0.01,0.03 0,0.02 -0.01,0.03 0,0.02 -0.01,0.03 0,0.02 -0.01,0.04 -0.02,0.04 -0.01,0.03 -0.02,0.03 -0.03,0.03 -0.02,0.03 -0.03,0.02 -0.03,0.02 -0.03,0.02 -0.04,0.01 -0.04,0.01 -0.04,0.02 -0.03,0 -0.02,0 -0.03,0.01 -0.02,0 -0.03,0.01 -0.03,0 -0.03,0 -0.03,0 -0.03,0 -0.04,0.01 -0.03,0 -0.04,0 -0.03,0 -0.04,0 -0.04,0 -0.04,0 -0.04,0 -0.04,0 -0.05,0 -0.04,0 c -2.24,-2.2 -5.39,-2.23 -6.83,-2.23 l 0,-1.25 c 0.84,0 3.14,0 5.04,0.97 l 0,-17.77 c 0,-1.16 0,-1.61 -3.48,-1.61 l -1.31,0 0,-1.25 c 0.62,0.03 4.91,0.14 6.2,0.14 1.08,0 5.47,-0.11 6.24,-0.14 l 0,1.25 -1.33,0 c -3.49,0 -3.49,0.45 -3.49,1.61 z"
           inkscape:connector-curvature="0"
           style="fill:#000000;stroke-width:0" /><polyline
           id="polyline4442"
           points="910,418 962.68,418 962.68,420.04 910,420.04 "
           style="fill:#000000;fill-rule:nonzero;stroke-width:0" /><path
           id="path4444"
           d="m 925.88,382.86 -6.83,13.56 c -0.17,0.34 -0.28,0.54 -0.56,0.54 -0.14,0 -0.21,0 -0.56,-0.26 l -3.72,-2.49 c -0.49,-0.31 -0.49,-0.48 -0.49,-0.59 0,-0.2 0.18,-0.48 0.49,-0.48 0.14,0 0.2,0 0.65,0.31 0.39,0.28 1.39,0.98 1.82,1.26 l 7.64,-15.06 c 0.23,-0.51 0.31,-0.59 0.79,-0.59 0.32,0 0.69,0 1.05,0.67 l 17.52,32.61 c 0.28,0.45 0.28,0.52 0.28,0.7 0,0.55 -0.46,0.86 -0.83,0.86 -0.53,0 -0.7,-0.31 -0.91,-0.73 z"
           inkscape:connector-curvature="0"
           style="fill:#000000;stroke-width:0" /><polyline
           id="polyline4446"
           points="943,412 962.92,412 962.92,413.8 943,413.8 "
           style="fill:#000000;fill-rule:nonzero;stroke-width:0" /><path
           id="path4448"
           d="m 952.59,395.04 0.26,-0.01 0.24,-0.01 0.25,-0.03 0.24,-0.04 0.23,-0.05 0.22,-0.06 0.23,-0.07 0.21,-0.08 0.21,-0.1 0.2,-0.1 0.2,-0.12 0.19,-0.13 0.18,-0.13 0.17,-0.15 0.17,-0.16 0.16,-0.17 0.15,-0.18 0.14,-0.19 0.14,-0.21 0.12,-0.21 0.12,-0.23 0.11,-0.23 0.1,-0.25 0.09,-0.26 0.08,-0.26 0.07,-0.28 0.06,-0.29 0.05,-0.3 0.04,-0.31 0.02,-0.32 0.02,-0.34 0.01,-0.34 c 0,-4.33 -2.52,-5.61 -4.54,-5.61 -1.39,0 -4.46,0.38 -5.92,2.44 1.63,0.06 2.02,1.22 2.02,1.95 0,1.11 -0.85,1.91 -1.92,1.91 -0.97,0 -1.96,-0.6 -1.96,-2.02 0,-3.28 3.63,-5.4 7.85,-5.4 4.84,0 8.18,3.25 8.18,6.73 0,2.72 -2.21,5.44 -6.06,6.23 3.66,1.33 4.99,3.94 4.99,6.07 0,2.75 -3.18,4.81 -7.03,4.81 -3.88,0 -6.83,-1.89 -6.83,-4.67 0,-1.19 0.76,-1.85 1.81,-1.85 1.08,0 1.76,0.8 1.76,1.77 0,1.01 -0.68,1.75 -1.76,1.81 1.22,1.55 3.61,1.92 4.91,1.92 1.56,0 3.76,-0.76 3.76,-3.79 0,-1.47 -0.48,-3.07 -1.39,-4.14 -1.16,-1.33 -2.12,-1.41 -3.87,-1.5 -0.88,-0.08 -0.94,-0.08 -1.11,-0.11 -0.08,0 -0.36,-0.07 -0.36,-0.46 0,-0.48 0.31,-0.48 0.9,-0.48 z"
           inkscape:connector-curvature="0"
           style="fill:#000000;stroke-width:0" /><path
           id="path4450"
           d="m 976.92,441.78 0,0.16 0,0.17 0,0.16 -0.01,0.08 0,0.08 -0.01,0.08 -0.01,0.08 -0.01,0.07 -0.01,0.07 -0.02,0.07 -0.01,0.07 -0.02,0.07 -0.02,0.06 -0.03,0.06 -0.03,0.06 -0.03,0.06 -0.03,0.05 -0.04,0.05 -0.04,0.05 -0.05,0.04 -0.05,0.04 -0.03,0.01 -0.02,0.02 -0.03,0.02 -0.03,0.01 -0.04,0.01 -0.03,0.02 -0.03,0.01 -0.04,0.01 -0.03,0.01 -0.04,0.01 -0.04,0 -0.04,0.01 -0.04,0 -0.05,0.01 -0.04,0 -0.05,0 c -1,0 -1,-0.89 -1,-1.78 l 0,-46.24 c 0,-0.9 0,-1.79 1,-1.79 1,0 1,0.89 1,1.79 z"
           inkscape:connector-curvature="0"
           style="fill:#000000;stroke-width:0" /><path
           id="path4452"
           d="m 994.8,439.14 -0.02,0.05 -0.02,0.05 -0.02,0.04 -0.02,0.05 -0.04,0.09 -0.04,0.08 -0.03,0.07 -0.04,0.07 -0.03,0.07 -0.04,0.06 -0.03,0.05 -0.04,0.05 -0.04,0.05 -0.03,0.04 -0.04,0.04 -0.04,0.04 -0.04,0.03 -0.05,0.02 -0.04,0.03 -0.05,0.02 -0.05,0.02 -0.05,0.01 -0.06,0.02 -0.06,0.01 -0.06,0.01 -0.07,0 -0.07,0.01 -0.07,0 -0.08,0.01 -0.08,0 -0.09,0 -0.09,0 -0.1,0 -0.11,0 -8.42,0 0,-1.55 1.2,0 c 3.83,0 3.93,-0.54 3.93,-2.34 l 0,-24.91 c 0,-1.34 0,-3.68 -5.13,-3.68 l 0,-1.55 c 1.75,0.05 4.19,0.16 5.83,0.16 1.64,0 4.09,-0.11 5.83,-0.16 l 0,1.55 c -5.13,0 -5.13,2.34 -5.13,3.68 l 0,26.85 0.05,0 11.98,-30.99 c 0.3,-0.64 0.5,-1.09 1,-1.09 0.6,0 0.7,0.41 0.9,0.95 l 12.3,31.53 0,0 0,-28.59 c 0,-1.8 -0.1,-2.34 -3.9,-2.34 l -1.2,0 0,-1.55 c 1.8,0.16 5.2,0.16 7.2,0.16 1.9,0 5.3,0 7.1,-0.16 l 0,1.55 -1.2,0 c -3.8,0 -3.9,0.54 -3.9,2.34 l 0,26.25 c 0,1.8 0.1,2.34 3.9,2.34 l 1.2,0 0,1.55 -8.4,0 c -1.3,0 -1.3,-0.05 -1.7,-0.95 l -10.9,-28.05 z"
           inkscape:connector-curvature="0"
           style="fill:#000000;stroke-width:0" /><path
           id="path4454"
           d="m 1042.1,417.81 0,0.03 0,0.02 0,0.03 0.1,0.02 0,0.03 0,0.02 0,0.03 0,0.02 0,0.02 0,0.02 0,0.02 0,0.03 0,0.03 0.1,0.04 0,0.04 0,0.03 0,0.03 0,0.03 0,0.03 0,0.02 0,0.03 0,0.02 0,0.02 0,0.02 0,0.02 0,0.02 0,0.02 0.1,0.01 0,0.02 0,0.01 0,0.02 0,0.01 0,0.03 0,0.03 0,0.02 c 0,0.16 0,0.25 -0.3,0.85 l -8.7,22.92 c -0.3,0.84 -0.6,1.14 -1.2,1.14 -0.5,0 -1,-0.44 -1,-0.99 0,-0.15 0,-0.25 0.3,-0.79 l 8.8,-23.13 -8.8,-23.01 c -0.3,-0.55 -0.3,-0.64 -0.3,-0.89 0,-0.55 0.5,-1 1,-1 0.7,0 0.9,0.5 1.1,1 z"
           inkscape:connector-curvature="0"
           style="fill:#000000;stroke-width:0" /><path
           id="path4456"
           d="m 1079.2,417.65 14,0 c 0.6,0 1.6,0 1.6,1 0,1 -1,1 -1.6,1 l -14,0 0,13.96 c 0,0.68 0,1.64 -1,1.64 -0.9,0 -0.9,-0.96 -0.9,-1.64 l 0,-13.96 -14,0 c -0.7,0 -1.6,0 -1.6,-1 0,-1 0.9,-1 1.6,-1 l 14,0 0,-13.94 c 0,-0.7 0,-1.65 0.9,-1.65 1,0 1,0.95 1,1.65 z"
           inkscape:connector-curvature="0"
           style="fill:#000000;stroke-width:0" /><path
           id="path4458"
           d="m 1142.7,447.92 0,0.04 0,0.04 0,0.05 0,0.04 0,0.03 0,0.04 0,0.04 0,0.03 0,0.04 0,0.03 0,0.03 0,0.03 0,0.03 0,0.03 -0.1,0.03 0,0.02 0,0.03 0,0.02 0,0.03 0,0.02 0,0.04 0,0.04 0,0.03 0,0.03 -0.1,0.03 0,0.03 0,0.02 0,0.02 -0.1,0.02 0,0.01 -0.1,0.01 0,0.02 0,0 0,0 -0.1,0.01 0,0 0,0.01 0,0 -0.1,0 0,0 0,0 -0.1,0.01 0,0 0,0 -0.1,0 0,0 -0.1,0 0,0 0,0 -0.1,0 0,0 -0.1,0 c -2.2,-2.2 -5.4,-2.23 -6.8,-2.23 l 0,-1.25 c 0.8,0 3.1,0 5,0.97 l 0,-17.77 c 0,-1.16 0,-1.61 -3.4,-1.61 l -1.3,0 0,-1.25 c 0.6,0.03 4.8,0.14 6.1,0.14 1.1,0 5.5,-0.11 6.3,-0.14 l 0,1.25 -1.3,0 c -3.5,0 -3.5,0.45 -3.5,1.61 z"
           inkscape:connector-curvature="0"
           style="fill:#000000;stroke-width:0" /><polyline
           id="polyline4460"
           points="1115,418 1167.7,418 1167.7,420.04 1115,420.04 "
           style="fill:#000000;fill-rule:nonzero;stroke-width:0" /><path
           id="path4462"
           d="m 1130.1,382.86 -6.8,13.56 c -0.2,0.34 -0.3,0.54 -0.6,0.54 -0.1,0 -0.2,0 -0.5,-0.26 l -3.8,-2.49 c -0.4,-0.31 -0.4,-0.48 -0.4,-0.59 0,-0.2 0.1,-0.48 0.4,-0.48 0.2,0 0.3,0 0.7,0.31 0.4,0.28 1.4,0.98 1.8,1.26 l 7.7,-15.06 c 0.2,-0.51 0.3,-0.59 0.7,-0.59 0.4,0 0.7,0 1.1,0.67 l 17.5,32.61 c 0.3,0.45 0.3,0.52 0.3,0.7 0,0.55 -0.5,0.86 -0.8,0.86 -0.6,0 -0.7,-0.31 -0.9,-0.73 z"
           inkscape:connector-curvature="0"
           style="fill:#000000;stroke-width:0" /><polyline
           id="polyline4464"
           points="1147,412 1166.9,412 1166.9,413.8 1147,413.8 "
           style="fill:#000000;fill-rule:nonzero;stroke-width:0" /><path
           id="path4466"
           d="m 1156.9,395.04 0.3,-0.01 0.3,-0.01 0.2,-0.03 0.2,-0.04 0.3,-0.05 0.2,-0.06 0.2,-0.07 0.2,-0.08 0.2,-0.1 0.2,-0.1 0.2,-0.12 0.2,-0.13 0.2,-0.13 0.2,-0.15 0.2,-0.16 0.1,-0.17 0.2,-0.18 0.1,-0.19 0.1,-0.21 0.2,-0.21 0.1,-0.23 0.1,-0.23 0.1,-0.25 0.1,-0.26 0.1,-0.26 0,-0.28 0.1,-0.29 0,-0.3 0.1,-0.31 0,-0.32 0,-0.34 0,-0.34 c 0,-4.33 -2.5,-5.61 -4.5,-5.61 -1.4,0 -4.5,0.38 -5.9,2.44 1.6,0.06 2,1.22 2,1.95 0,1.11 -0.9,1.91 -1.9,1.91 -1,0 -2,-0.6 -2,-2.02 0,-3.28 3.6,-5.4 7.9,-5.4 4.8,0 8.1,3.25 8.1,6.73 0,2.72 -2.2,5.44 -6,6.23 3.6,1.33 5,3.94 5,6.07 0,2.75 -3.2,4.81 -7.1,4.81 -3.8,0 -6.8,-1.89 -6.8,-4.67 0,-1.19 0.8,-1.85 1.8,-1.85 1.1,0 1.8,0.8 1.8,1.77 0,1.01 -0.7,1.75 -1.8,1.81 1.2,1.55 3.6,1.92 4.9,1.92 1.6,0 3.8,-0.76 3.8,-3.79 0,-1.47 -0.5,-3.07 -1.4,-4.14 -1.2,-1.33 -2.1,-1.41 -3.9,-1.5 -0.8,-0.08 -0.9,-0.08 -1.1,-0.11 -0.1,0 -0.3,-0.07 -0.3,-0.46 0,-0.48 0.3,-0.48 0.9,-0.48 z"
           inkscape:connector-curvature="0"
           style="fill:#000000;stroke-width:0" /><path
           id="path4468"
           d="m 1181.2,441.78 0,0.16 0,0.17 0,0.16 -0.1,0.08 0,0.08 0,0.08 0,0.08 0,0.07 0,0.07 0,0.07 0,0.07 0,0.07 -0.1,0.06 0,0.06 0,0.06 0,0.06 -0.1,0.05 0,0.05 -0.1,0.05 0,0.04 -0.1,0.04 0,0.01 0,0.02 0,0.02 -0.1,0.01 0,0.01 0,0.02 -0.1,0.01 0,0.01 0,0.01 -0.1,0.01 0,0 -0.1,0.01 0,0 0,0.01 -0.1,0 0,0 c -1,0 -1,-0.89 -1,-1.78 l 0,-46.24 c 0,-0.9 0,-1.79 1,-1.79 1,0 1,0.89 1,1.79 z"
           inkscape:connector-curvature="0"
           style="fill:#000000;stroke-width:0" /><path
           id="path4470"
           d="m 1203.5,394.25 0,0.02 0,0.03 0,0.01 0,0.02 0,0.01 0,0.02 0,0.01 0,0.02 0,0.02 0,0.02 0,0.02 -0.1,0.03 0,0.02 0,0.03 0,0.03 0,0.03 -0.1,0.03 0,0.04 0,0.02 0,0.02 0,0.02 -0.1,0.02 0,0.02 0,0.03 0,0.02 0,0.02 -0.1,0.03 0,0.02 0,0.03 0,0.03 -0.1,0.03 0,0.03 0,0.03 0,0.03 -0.1,0.03 0,0.03 0,0.04 -0.1,0.03 0,0.04 0,0.03 -0.1,0.04 0,0.04 c -6.2,6.28 -7.8,15.69 -7.8,23.31 0,8.67 1.9,17.35 8,23.56 0.6,0.61 0.6,0.71 0.6,0.86 0,0.35 -0.2,0.49 -0.5,0.49 -0.5,0 -4.9,-3.38 -7.9,-9.7 -2.5,-5.49 -3.1,-11.02 -3.1,-15.21 0,-3.89 0.5,-9.9 3.2,-15.54 3,-6.13 7.3,-9.36 7.8,-9.36 0.3,0 0.5,0.14 0.5,0.5 z"
           inkscape:connector-curvature="0"
           style="fill:#000000;stroke-width:0" /><path
           id="path4472"
           d="m 1217.7,421.95 -0.2,1.28 0,13.45 c 0,1.66 0.1,2 2.4,2 l 4.5,0 c 7.9,0 7.9,-5.28 7.9,-7.72 0,-2.34 0,-7.73 -7.9,-7.73 l -6.9,0 0.2,-1.28 8.4,0 c 6,0 11.3,4.03 11.3,9.01 0,4.88 -4.9,9.27 -11.7,9.27 l -17.6,0 0,-1.55 1.2,0 c 3.8,0 3.9,-0.54 3.9,-2.34 l 0,-26.25 c 0,-1.8 -0.1,-2.34 -3.9,-2.34 l -1.2,0 0,-1.55 c 1.7,0.16 5.4,0.16 7.3,0.16 1.9,0 5.7,0 7.4,-0.16 l 0,1.55 -1.2,0 c -3.8,0 -3.9,0.54 -3.9,2.34 z"
           inkscape:connector-curvature="0"
           style="fill:#000000;stroke-width:0" /><path
           id="path4474"
           d="m 1250.4,406.25 0,0.3 0,0.3 0,0.29 0,0.28 -0.1,0.27 0,0.26 -0.1,0.26 0,0.24 -0.1,0.24 0,0.23 -0.1,0.22 -0.1,0.21 -0.1,0.2 0,0.19 -0.1,0.19 -0.1,0.17 -0.2,0.16 -0.1,0.16 -0.1,0.14 -0.1,0.13 -0.1,0.13 -0.2,0.11 -0.1,0.1 -0.1,0.1 -0.2,0.08 -0.2,0.07 -0.1,0.06 -0.2,0.05 -0.1,0.04 -0.2,0.03 -0.2,0.01 -0.2,0.01 c -1.6,0 -2.6,-1.25 -2.6,-2.64 0,-1.34 1,-2.64 2.6,-2.64 0.6,0 1.3,0.2 1.8,0.64 0.1,0.11 0.2,0.16 0.2,0.16 0.1,0 0.1,-0.05 0.1,-0.75 0,-3.69 -1.7,-6.68 -3.4,-8.32 -0.5,-0.54 -0.5,-0.65 -0.5,-0.79 0,-0.36 0.2,-0.55 0.5,-0.55 0.5,0 4.5,3.83 4.5,9.66 z"
           inkscape:connector-curvature="0"
           style="fill:#000000;stroke-width:0" /><path
           id="path4476"
           d="m 1269.2,410.09 0,-0.16 0,-0.16 0,-0.15 0,-0.15 -0.1,-0.13 0,-0.13 0,-0.13 0,-0.11 0,-0.12 -0.1,-0.1 0,-0.1 -0.1,-0.09 0,-0.09 -0.1,-0.08 -0.1,-0.08 -0.1,-0.07 -0.1,-0.06 -0.1,-0.06 0,-0.03 -0.1,-0.03 -0.1,-0.02 0,-0.03 -0.1,-0.02 -0.1,-0.02 -0.1,-0.02 -0.1,-0.02 0,-0.02 -0.1,-0.02 -0.1,-0.02 -0.1,-0.01 -0.1,-0.01 -0.2,-0.02 -0.1,-0.01 -0.1,-0.01 -0.1,-0.01 -0.1,-0.01 -0.2,-0.01 -0.1,-0.01 -0.1,0 -0.2,-0.01 -0.1,0 -0.2,-0.01 -0.2,0 -0.1,0 -0.2,0 -0.2,0 -1.2,0 0,-1.55 28.8,0 2.1,12.86 -1.3,0 c -1.2,-7.67 -2.4,-11.31 -10.9,-11.31 l -6.7,0 c -2.3,0 -2.4,0.34 -2.4,1.98 l 0,13.31 4.5,0 c 4.8,0 5.4,-1.59 5.4,-5.83 l 1.2,0 0,13.21 -1.2,0 c 0,-4.3 -0.6,-5.83 -5.4,-5.83 l -4.5,0 0,11.95 c 0,1.64 0.1,1.99 2.4,1.99 l 6.5,0 c 7.6,0 8.9,-2.74 9.7,-9.66 l 1.3,0 -1.4,11.2 -28.1,0 0,-1.54 1.2,0 c 3.9,0 4,-0.55 4,-2.33 z"
           inkscape:connector-curvature="0"
           style="fill:#000000;stroke-width:0" /><path
           id="path4478"
           d="m 1313.7,425.53 -6.3,1.54 c -3.1,0.75 -5.1,3.44 -5.1,6.33 0,3.49 2.7,6.53 6.6,6.53 8.3,0 9.4,-8.17 9.7,-10.42 0.1,-0.3 0.1,-0.59 0.6,-0.59 0.7,0 0.7,0.25 0.7,1.2 l 0,10 c 0,0.86 0,1.2 -0.6,1.2 -0.3,0 -0.4,-0.04 -0.7,-0.65 l -1.8,-2.83 c -1.5,1.44 -3.5,3.48 -8,3.48 -5.5,0 -9.7,-4.39 -9.7,-9.67 0,-4.12 2.7,-7.76 6.6,-9.11 0.5,-0.2 3.1,-0.79 6.5,-1.64 1.4,-0.36 2.9,-0.7 4.3,-2.54 1,-1.3 1.5,-2.94 1.5,-4.58 0,-3.55 -2.5,-7.13 -6.7,-7.13 -1.4,0 -5.2,0.25 -7.8,2.69 -2.9,2.69 -3.1,5.87 -3.1,7.67 -0.1,0.5 -0.5,0.5 -0.6,0.5 -0.7,0 -0.7,-0.36 -0.7,-1.25 l 0,-9.97 c 0,-0.84 0,-1.18 0.6,-1.18 0.3,0 0.4,0.09 0.7,0.64 0,0.04 0.2,0.2 1.8,2.84 1.6,-1.69 4.7,-3.48 9.2,-3.48 5.8,0 9.8,4.87 9.8,10.35 0,4.99 -3.3,9.07 -7.5,10.07 z"
           inkscape:connector-curvature="0"
           style="fill:#000000;stroke-width:0" /><path
           id="path4480"
           d="m 1338.4,418.65 0,0.37 0,0.39 0,0.39 0,0.41 0,0.84 -0.1,0.88 -0.1,0.92 -0.1,0.95 -0.1,0.97 -0.2,1.01 -0.2,1.02 -0.2,1.03 -0.3,1.05 -0.3,1.06 -0.3,1.07 -0.4,1.07 -0.2,0.53 -0.2,0.53 -0.3,0.53 -0.2,0.53 c -3,6.12 -7.3,9.36 -7.8,9.36 -0.3,0 -0.5,-0.19 -0.5,-0.49 0,-0.15 0,-0.25 0.9,-1.15 4.9,-4.92 7.8,-12.85 7.8,-23.27 0,-8.51 -1.9,-17.28 -8,-23.56 -0.7,-0.59 -0.7,-0.7 -0.7,-0.84 0,-0.3 0.2,-0.5 0.5,-0.5 0.5,0 5,3.39 7.9,9.71 2.6,5.47 3.1,11 3.1,15.19 z"
           inkscape:connector-curvature="0"
           style="fill:#000000;stroke-width:0" /><path
           id="path4482"
           d="m 1357,417.81 0,0.03 0,0.02 0,0.03 0,0.02 0,0.03 0,0.02 0,0.03 0.1,0.02 0,0.02 0,0.02 0,0.02 0,0.03 0,0.03 0,0.04 0,0.04 0,0.03 0,0.03 0.1,0.03 0,0.03 0,0.02 0,0.03 0,0.02 0,0.02 0,0.02 0,0.02 0,0.02 0,0.02 0,0.01 0,0.02 0,0.01 0,0.02 0,0.01 0,0.03 0,0.03 0,0.02 c 0,0.16 0,0.25 -0.2,0.85 l -8.8,22.92 c -0.2,0.84 -0.5,1.14 -1.1,1.14 -0.5,0 -1,-0.44 -1,-0.99 0,-0.15 0,-0.25 0.3,-0.79 l 8.8,-23.13 -8.8,-23.01 c -0.3,-0.55 -0.3,-0.64 -0.3,-0.89 0,-0.55 0.5,-1 1,-1 0.7,0 0.9,0.5 1.1,1 z"
           inkscape:connector-curvature="0"
           style="fill:#000000;stroke-width:0" /></g>    </g>
  </g>
</svg>
