<?xml version="1.0" encoding="UTF-8" standalone="no"?>
<!-- Created with Inkscape (http://www.inkscape.org/) -->

<svg
   xmlns:dc="http://purl.org/dc/elements/1.1/"
   xmlns:cc="http://creativecommons.org/ns#"
   xmlns:rdf="http://www.w3.org/1999/02/22-rdf-syntax-ns#"
   xmlns:svg="http://www.w3.org/2000/svg"
   xmlns="http://www.w3.org/2000/svg"
   xmlns:sodipodi="http://sodipodi.sourceforge.net/DTD/sodipodi-0.dtd"
   xmlns:inkscape="http://www.inkscape.org/namespaces/inkscape"
   width="325.332mm"
   height="20.820004mm"
   viewBox="0 0 1152.7512 73.771666"
   id="svg2"
   version="1.1"
   inkscape:version="0.91 r"
   sodipodi:docname="panel.svg">
  <sodipodi:namedview
     id="base"
     pagecolor="#ffffff"
     bordercolor="#666666"
     borderopacity="1.0"
     inkscape:pageopacity="0.0"
     inkscape:pageshadow="2"
     inkscape:zoom="1.1650389"
     inkscape:cx="576.37559"
     inkscape:cy="36.885833"
     inkscape:document-units="px"
     inkscape:current-layer="layer1"
     showgrid="false"
     inkscape:window-width="1920"
     inkscape:window-height="1020"
     inkscape:window-x="0"
     inkscape:window-y="0"
     inkscape:window-maximized="1"
     fit-margin-top="0"
     fit-margin-left="0"
     fit-margin-right="0"
     fit-margin-bottom="0" />
  <defs
     id="defs4" />
  <metadata
     id="metadata7">
    <rdf:RDF>
      <cc:Work
         rdf:about="">
        <dc:format>image/svg+xml</dc:format>
        <dc:type
           rdf:resource="http://purl.org/dc/dcmitype/StillImage" />
        <dc:title></dc:title>
      </cc:Work>
    </rdf:RDF>
  </metadata>
  <g
     id="layer1"
     inkscape:groupmode="layer"
     inkscape:label="Layer 1"
     transform="translate(-299.72125,-303.7181)">
    <g
       id="g4141">
      <g
         word-spacing="normal"
         letter-spacing="normal"
         font-size-adjust="none"
         font-stretch="normal"
         font-weight="normal"
         font-variant="normal"
         font-style="normal"
         stroke-miterlimit="10.433"
         xml:space="preserve"
         transform="matrix(1.0629921,0,0,-1.0629921,-186.02362,789.27165)"
         id="content"
         style="font-style:normal;font-variant:normal;font-weight:normal;font-stretch:normal;letter-spacing:normal;word-spacing:normal;text-anchor:start;fill:none;fill-opacity:1;fill-rule:evenodd;stroke:#000000;stroke-linecap:butt;stroke-linejoin:miter;stroke-miterlimit:10.43299961;stroke-dasharray:none;stroke-dashoffset:0;stroke-opacity:1"><path
           id="path4144"
           d="m 459.91,408.18 -0.02,-0.08 -0.01,-0.07 -0.02,-0.07 -0.01,-0.08 -0.04,-0.16 -0.04,-0.16 -0.03,-0.16 -0.04,-0.17 -0.04,-0.16 -0.04,-0.15 -0.01,-0.08 -0.02,-0.07 -0.02,-0.08 -0.01,-0.07 -0.02,-0.06 -0.01,-0.07 -0.01,-0.06 -0.01,-0.06 -0.01,-0.06 -0.01,-0.05 -0.01,-0.05 -0.01,-0.04 -0.01,-0.04 0,-0.04 0,-0.03 0,-0.02 c 0,-0.9 0.7,-1.35 1.43,-1.35 0.61,0 1.5,0.39 1.85,1.39 0.06,0.11 0.65,2.44 0.95,3.69 l 1.1,4.48 c 0.29,1.1 0.59,2.19 0.84,3.35 0.2,0.84 0.61,2.28 0.66,2.48 0.75,1.55 3.39,6.08 8.1,6.08 2.25,0 2.71,-1.84 2.71,-3.48 0,-1.25 -0.36,-2.64 -0.75,-4.14 l -1.39,-5.79 -1,-3.78 c -0.21,-1 -0.66,-2.68 -0.66,-2.93 0,-0.9 0.7,-1.35 1.45,-1.35 1.55,0 1.85,1.25 2.24,2.85 0.7,2.78 2.55,10.06 3,12 0.14,0.65 2.78,6.62 8.22,6.62 2.14,0 2.68,-1.69 2.68,-3.48 0,-2.85 -2.09,-8.52 -3.09,-11.16 -0.45,-1.2 -0.64,-1.75 -0.64,-2.75 0,-2.33 1.73,-4.08 4.08,-4.08 4.69,0 6.53,7.27 6.53,7.67 0,0.5 -0.45,0.5 -0.59,0.5 -0.5,0 -0.5,-0.15 -0.75,-0.9 -0.75,-2.64 -2.35,-6.17 -5.08,-6.17 -0.86,0 -1.21,0.5 -1.21,1.64 0,1.25 0.46,2.45 0.9,3.54 0.95,2.58 3.04,8.11 3.04,10.96 0,3.23 -2,5.32 -5.73,5.32 -3.74,0 -6.27,-2.18 -8.11,-4.82 -0.06,0.65 -0.2,2.34 -1.61,3.53 -1.24,1.04 -2.83,1.29 -4.08,1.29 -4.48,0 -6.92,-3.18 -7.76,-4.32 -0.25,2.84 -2.35,4.32 -4.6,4.32 -2.28,0 -3.23,-1.93 -3.69,-2.82 -0.89,-1.75 -1.54,-4.69 -1.54,-4.85 0,-0.5 0.5,-0.5 0.61,-0.5 0.5,0 0.54,0.06 0.84,1.16 0.84,3.53 1.84,5.92 3.64,5.92 0.8,0 1.55,-0.39 1.55,-2.28 0,-1.05 -0.16,-1.61 -0.8,-4.19 z"
           inkscape:connector-curvature="0"
           style="fill:#000000;stroke-width:0" /><path
           id="path4146"
           d="m 523.5,436.7 -0.05,0.19 -0.06,0.19 -0.06,0.19 -0.07,0.19 -0.07,0.19 -0.09,0.18 -0.08,0.18 -0.1,0.19 -0.11,0.17 -0.11,0.18 -0.12,0.17 -0.12,0.17 -0.14,0.16 -0.14,0.16 -0.15,0.16 -0.15,0.14 -0.17,0.15 -0.17,0.13 -0.19,0.13 -0.19,0.12 -0.2,0.12 -0.21,0.11 -0.21,0.09 -0.23,0.09 -0.23,0.09 -0.25,0.07 -0.25,0.06 -0.27,0.05 -0.27,0.04 -0.28,0.03 -0.29,0.02 -0.3,0 0.12,-0.98 c 3.39,0 4.5,-2.64 4.5,-4.74 0,-2.32 -2.26,-9.75 -8.11,-9.75 l 0,0 c -3.93,0 -4.39,2.96 -4.39,4.04 0,1.35 0.94,4.78 1.28,5.65 0.63,1.59 2.8,4.8 6.72,4.8 l -0.12,0.98 c -4.89,0 -8.92,-3.65 -10.19,-6.79 -0.2,-0.6 -0.69,-2.02 -0.69,-3.43 0,-2.39 1.88,-6.37 7.31,-6.37 9.04,0 12.69,11.26 12.69,16.2 0,5.97 -3.9,9.38 -8.57,9.38 -5.68,0 -7.26,-4.53 -7.26,-5.61 0,-0.28 0.19,-1.25 1.41,-1.25 1.22,0 1.94,1.08 1.94,1.92 0,0.94 -0.69,1.25 -1.34,1.31 1.73,2.63 4.59,2.63 5.18,2.63 2.61,0 5.72,-1.64 5.72,-6.6 0,-1.5 -0.19,-2.72 -0.84,-5.5 z"
           inkscape:connector-curvature="0"
           style="fill:#000000;stroke-width:0" /><path
           id="path4148"
           d="m 543.27,444.73 -1.04,0 c -0.08,-0.48 -0.33,-2.01 -0.72,-2.26 -0.21,-0.16 -2.3,-0.16 -2.67,-0.16 l -4.88,0 c 1.64,1.22 3.49,2.61 4.99,3.61 2.23,1.55 4.32,3 4.32,5.64 0,3.19 -3.01,4.96 -6.57,4.96 -3.36,0 -5.83,-1.96 -5.83,-4.4 0,-1.29 1.09,-1.51 1.45,-1.51 0.67,0 1.47,0.45 1.47,1.47 0,0.89 -0.66,1.39 -1.42,1.47 0.68,1.12 2.14,1.87 3.81,1.87 2.41,0 4.42,-1.45 4.42,-3.89 0,-2.09 -1.44,-3.69 -3.36,-5.31 l -6.08,-5.16 c -0.25,-0.22 -0.26,-0.22 -0.29,-0.39 l 0,-0.75 11.58,0 z"
           inkscape:connector-curvature="0"
           style="fill:#000000;stroke-width:0" /><path
           id="path4150"
           d="m 566.49,436.03 0.02,0.09 0.03,0.1 0.02,0.1 0.03,0.1 0.02,0.1 0.03,0.11 0.06,0.22 0.05,0.22 0.06,0.22 0.05,0.22 0.02,0.11 0.03,0.1 0.02,0.11 0.03,0.1 0.02,0.09 0.02,0.1 0.02,0.09 0.02,0.09 0.02,0.08 0.02,0.07 0.01,0.07 0.02,0.07 0.01,0.06 0.01,0.05 0,0.04 0.01,0.04 0,0.01 0,0.02 0,0.01 0.01,0.01 c 0,0.69 -0.55,1.11 -1.15,1.11 -0.67,0 -1.29,-0.42 -1.5,-1.02 -0.1,-0.26 -0.45,-1.73 -0.7,-2.61 -0.48,-1.98 -0.48,-2.04 -1,-4 -0.45,-1.92 -0.53,-2.2 -0.56,-3.2 0.14,-0.7 -0.14,-1.36 -0.99,-2.41 -0.43,-0.56 -1.14,-1.15 -2.32,-1.15 -1.36,0 -3.15,0.48 -3.15,3.2 0,1.78 0.99,4.36 1.68,6.14 0.59,1.53 0.73,1.84 0.73,2.44 0,1.67 -1.42,2.95 -3.31,2.95 -3.52,0 -5.08,-4.73 -5.08,-5.33 0,-0.45 0.48,-0.45 0.6,-0.45 0.48,0 0.51,0.17 0.62,0.56 0.88,2.89 2.38,4.25 3.76,4.25 0.6,0 0.87,-0.39 0.87,-1.22 0,-0.79 -0.32,-1.56 -0.49,-2.01 -1.98,-5.1 -1.98,-5.8 -1.98,-6.88 0,-4.11 3.73,-4.62 5.6,-4.62 0.68,0 2.38,0 3.94,2.33 0.8,-1.57 2.72,-2.33 4.85,-2.33 3.11,0 4.64,2.67 5.33,4.11 1.5,2.92 2.43,7.28 2.43,8.89 0,2.61 -1.48,2.75 -1.73,2.75 -0.91,0 -1.88,-0.95 -1.88,-1.86 0,-0.58 0.35,-0.86 0.58,-1.08 0.85,-0.69 1.3,-1.67 1.3,-2.78 0,-0.45 -1.47,-9.06 -5.89,-9.06 -2.83,0 -2.83,2.51 -2.83,3.11 0,0.93 0.14,1.5 0.64,3.48 z"
           inkscape:connector-curvature="0"
           style="fill:#000000;stroke-width:0" /><polyline
           id="polyline4152"
           points="505,417 577.72,417 577.72,419.04 505,419.04 "
           style="fill:#000000;fill-rule:nonzero;stroke-width:0" /><path
           id="path4154"
           d="m 530.94,399.86 -0.05,0.19 -0.06,0.19 -0.06,0.19 -0.07,0.18 -0.07,0.19 -0.08,0.19 -0.09,0.18 -0.1,0.18 -0.1,0.18 -0.12,0.18 -0.11,0.17 -0.13,0.17 -0.13,0.16 -0.15,0.16 -0.15,0.15 -0.15,0.15 -0.17,0.14 -0.17,0.14 -0.19,0.13 -0.19,0.12 -0.2,0.11 -0.21,0.11 -0.21,0.1 -0.23,0.09 -0.23,0.08 -0.25,0.07 -0.25,0.06 -0.26,0.06 -0.28,0.04 -0.28,0.02 -0.29,0.02 -0.3,0.01 0.12,-0.99 c 3.39,0 4.5,-2.64 4.5,-4.73 0,-2.33 -2.26,-9.75 -8.11,-9.75 l 0,0 c -3.93,0 -4.39,2.95 -4.39,4.03 0,1.36 0.94,4.78 1.29,5.66 0.62,1.59 2.79,4.79 6.71,4.79 l -0.12,0.99 c -4.89,0 -8.92,-3.66 -10.19,-6.8 -0.2,-0.59 -0.69,-2.01 -0.69,-3.42 0,-2.39 1.88,-6.37 7.32,-6.37 9.03,0 12.68,11.26 12.68,16.2 0,5.97 -3.9,9.37 -8.57,9.37 -5.68,0 -7.25,-4.53 -7.25,-5.61 0,-0.28 0.18,-1.25 1.4,-1.25 1.22,0 1.94,1.08 1.94,1.93 0,0.93 -0.69,1.25 -1.34,1.31 1.73,2.62 4.59,2.62 5.18,2.62 2.61,0 5.72,-1.64 5.72,-6.59 0,-1.5 -0.19,-2.72 -0.84,-5.5 z"
           inkscape:connector-curvature="0"
           style="fill:#000000;stroke-width:0" /><path
           id="path4156"
           d="m 544.62,401.84 3.54,0 c 0.66,0 1.11,0 1.11,0.77 0,0.48 -0.45,0.48 -1.03,0.48 l -3.31,0 1.28,5.16 c 0.03,0.17 0.11,0.34 0.11,0.48 0,0.65 -0.48,1.13 -1.19,1.13 -0.87,0 -1.39,-0.59 -1.64,-1.5 -0.23,-0.88 0.22,0.8 -1.33,-5.27 l -3.54,0 c -0.66,0 -1.11,0 -1.11,-0.76 0,-0.49 0.4,-0.49 1.04,-0.49 l 3.3,0 -2.05,-8.22 c -0.21,-0.87 -0.53,-2.12 -0.53,-2.57 0,-2.07 1.75,-3.32 3.74,-3.32 3.87,0 6.06,4.88 6.06,5.33 0,0.46 -0.45,0.46 -0.56,0.46 -0.41,0 -0.46,-0.08 -0.72,-0.66 -0.99,-2.2 -2.77,-4.16 -4.67,-4.16 -0.74,0 -1.22,0.46 -1.22,1.71 0,0.36 0.14,1.09 0.2,1.43 z"
           inkscape:connector-curvature="0"
           style="fill:#000000;stroke-width:0" /><path
           id="path4158"
           d="m 565.71,402.85 -1.05,0 c -0.07,-0.48 -0.32,-2.01 -0.71,-2.26 -0.21,-0.16 -2.3,-0.16 -2.68,-0.16 l -4.87,0 c 1.64,1.22 3.48,2.61 4.98,3.61 2.24,1.55 4.33,3 4.33,5.64 0,3.19 -3.01,4.95 -6.58,4.95 -3.36,0 -5.83,-1.95 -5.83,-4.39 0,-1.29 1.1,-1.51 1.46,-1.51 0.67,0 1.47,0.45 1.47,1.47 0,0.89 -0.66,1.39 -1.43,1.46 0.69,1.13 2.15,1.88 3.82,1.88 2.4,0 4.42,-1.45 4.42,-3.89 0,-2.1 -1.44,-3.69 -3.36,-5.31 l -6.08,-5.16 c -0.25,-0.22 -0.26,-0.22 -0.3,-0.39 l 0,-0.75 11.58,0 z"
           inkscape:connector-curvature="0"
           style="fill:#000000;stroke-width:0" /><path
           id="path4160"
           d="m 615.34,416.69 13.9,0 c 0.69,0 1.64,0 1.64,1 0,1 -0.95,1 -1.64,1 l -13.9,0 0,13.95 c 0,0.69 0,1.65 -1,1.65 -0.99,0 -0.99,-0.96 -0.99,-1.65 l 0,-13.95 -13.95,0 c -0.7,0 -1.64,0 -1.64,-1 0,-1 0.94,-1 1.64,-1 l 13.95,0 0,-13.94 c 0,-0.7 0,-1.65 0.99,-1.65 1,0 1,0.95 1,1.65 z"
           inkscape:connector-curvature="0"
           style="fill:#000000;stroke-width:0" /><path
           id="path4162"
           d="m 651.09,409.08 5.28,5.13 c 7.76,6.87 10.76,9.56 10.76,14.54 0,5.69 -4.48,9.68 -10.56,9.68 -5.64,0 -9.33,-4.6 -9.33,-9.04 0,-2.78 2.5,-2.78 2.64,-2.78 0.86,0 2.6,0.6 2.6,2.64 0,1.3 -0.89,2.6 -2.64,2.6 -0.39,0 -0.5,0 -0.64,-0.05 1.14,3.24 3.82,5.08 6.71,5.08 4.54,0 6.69,-4.05 6.69,-8.13 0,-3.98 -2.5,-7.92 -5.23,-11.01 l -9.57,-10.66 c -0.56,-0.54 -0.56,-0.64 -0.56,-1.84 l 18.49,0 1.4,8.67 -1.25,0 c -0.25,-1.5 -0.59,-3.69 -1.09,-4.44 -0.36,-0.39 -3.64,-0.39 -4.74,-0.39 z"
           inkscape:connector-curvature="0"
           style="fill:#000000;stroke-width:0" /><path
           id="path4164"
           d="m 674.1,408.18 -0.01,-0.08 -0.02,-0.07 -0.01,-0.07 -0.02,-0.08 -0.03,-0.16 -0.04,-0.16 -0.04,-0.16 -0.04,-0.17 -0.03,-0.16 -0.04,-0.15 -0.02,-0.08 -0.01,-0.07 -0.02,-0.08 -0.02,-0.07 -0.01,-0.06 -0.01,-0.07 -0.02,-0.06 -0.01,-0.06 -0.01,-0.06 -0.01,-0.05 -0.01,-0.05 0,-0.04 -0.01,-0.04 0,-0.04 -0.01,-0.03 0,-0.02 c 0,-0.9 0.7,-1.35 1.44,-1.35 0.61,0 1.5,0.39 1.84,1.39 0.07,0.11 0.66,2.44 0.96,3.69 l 1.09,4.48 c 0.3,1.1 0.59,2.19 0.84,3.35 0.21,0.84 0.61,2.28 0.66,2.48 0.75,1.55 3.39,6.08 8.11,6.08 2.25,0 2.7,-1.84 2.7,-3.48 0,-1.25 -0.36,-2.64 -0.75,-4.14 l -1.39,-5.79 -1,-3.78 c -0.2,-1 -0.65,-2.68 -0.65,-2.93 0,-0.9 0.7,-1.35 1.45,-1.35 1.55,0 1.84,1.25 2.23,2.85 0.71,2.78 2.55,10.06 3,12 0.14,0.65 2.79,6.62 8.22,6.62 2.14,0 2.69,-1.69 2.69,-3.48 0,-2.85 -2.09,-8.52 -3.09,-11.16 -0.46,-1.2 -0.65,-1.75 -0.65,-2.75 0,-2.33 1.74,-4.08 4.08,-4.08 4.69,0 6.54,7.27 6.54,7.67 0,0.5 -0.46,0.5 -0.6,0.5 -0.5,0 -0.5,-0.15 -0.75,-0.9 -0.75,-2.64 -2.34,-6.17 -5.08,-6.17 -0.86,0 -1.2,0.5 -1.2,1.64 0,1.25 0.45,2.45 0.89,3.54 0.95,2.58 3.05,8.11 3.05,10.96 0,3.23 -2,5.32 -5.74,5.32 -3.73,0 -6.26,-2.18 -8.11,-4.82 -0.06,0.65 -0.2,2.34 -1.61,3.53 -1.23,1.04 -2.82,1.29 -4.07,1.29 -4.49,0 -6.93,-3.18 -7.77,-4.32 -0.25,2.84 -2.34,4.32 -4.59,4.32 -2.29,0 -3.24,-1.93 -3.69,-2.82 -0.89,-1.75 -1.55,-4.69 -1.55,-4.85 0,-0.5 0.5,-0.5 0.61,-0.5 0.5,0 0.55,0.06 0.84,1.16 0.85,3.53 1.85,5.92 3.65,5.92 0.79,0 1.54,-0.39 1.54,-2.28 0,-1.05 -0.15,-1.61 -0.79,-4.19 z"
           inkscape:connector-curvature="0"
           style="fill:#000000;stroke-width:0" /><path
           id="path4166"
           d="m 744.68,433.58 0.22,0.36 0.23,0.33 0.23,0.31 0.22,0.29 0.22,0.28 0.22,0.25 0.22,0.24 0.21,0.22 0.21,0.2 0.21,0.19 0.21,0.17 0.21,0.16 0.21,0.14 0.2,0.13 0.2,0.12 0.2,0.11 0.2,0.09 0.19,0.09 0.2,0.07 0.19,0.07 0.19,0.05 0.19,0.05 0.19,0.05 0.19,0.03 0.18,0.03 0.18,0.03 0.36,0.04 0.36,0.02 0.35,0.02 c 0.59,0.05 0.64,0.89 0.64,0.96 0,0.39 -0.25,0.59 -0.64,0.59 -1.3,0 -2.75,-0.16 -4.1,-0.16 -1.64,0 -3.34,0.16 -4.94,0.16 -0.29,0 -0.93,0 -0.93,-0.95 0,-0.55 0.45,-0.6 0.8,-0.6 1.34,-0.09 2.29,-0.59 2.29,-1.64 0,-0.75 -0.75,-1.84 -0.75,-1.89 l -15.29,-24.31 -3.4,26.34 c 0,0.85 1.15,1.5 3.44,1.5 0.71,0 1.25,0 1.25,1 0,0.44 -0.41,0.55 -0.7,0.55 -1.99,0 -4.14,-0.16 -6.17,-0.16 -0.91,0 -1.85,0.05 -2.75,0.05 -0.89,0 -1.85,0.11 -2.69,0.11 -0.35,0 -0.94,0 -0.94,-0.95 0,-0.6 0.44,-0.6 1.24,-0.6 2.79,0 2.84,-0.45 3,-1.68 l 3.92,-30.75 c 0.15,-1 0.36,-1.15 1,-1.15 0.8,0 1,0.25 1.4,0.9 z"
           inkscape:connector-curvature="0"
           style="fill:#000000;stroke-width:0" /><path
           id="path4168"
           d="m 760.43,408.91 -0.01,0.71 -0.02,0.68 -0.03,0.66 -0.04,0.64 -0.06,0.62 -0.07,0.59 -0.09,0.58 -0.11,0.56 -0.13,0.55 -0.15,0.53 -0.17,0.51 -0.19,0.5 -0.21,0.49 -0.24,0.48 -0.26,0.47 -0.14,0.23 -0.15,0.23 c -1.08,1.61 -3.23,3 -6.03,3 l 0,-0.98 c 1.89,0 3.7,-1.14 4.33,-3.17 0.56,-1.88 0.59,-4.4 0.59,-7.43 0,-2.57 0,-5.15 -0.45,-7.34 -0.7,-3.17 -3.06,-3.94 -4.47,-3.94 l 0,0 c -1.59,0 -3.72,0.94 -4.42,3.8 -0.48,2.05 -0.48,4.91 -0.48,7.48 0,2.55 0,5.21 0.51,7.11 0.74,2.75 2.97,3.49 4.39,3.49 l 0,0.98 c -8.08,0 -8.08,-9.51 -8.08,-12.03 0,-2.5 0,-11.81 8.08,-11.81 8.1,0 8.1,9.31 8.1,11.81 z"
           inkscape:connector-curvature="0"
           style="fill:#000000;stroke-width:0" /><path
           id="path4170"
           d="m 795.06,436.7 -0.05,0.19 -0.05,0.19 -0.07,0.19 -0.07,0.19 -0.07,0.19 -0.08,0.18 -0.09,0.18 -0.1,0.19 -0.1,0.17 -0.11,0.18 -0.12,0.17 -0.13,0.17 -0.13,0.16 -0.15,0.16 -0.14,0.16 -0.16,0.14 -0.17,0.15 -0.17,0.13 -0.19,0.13 -0.19,0.12 -0.2,0.12 -0.2,0.11 -0.22,0.09 -0.23,0.09 -0.23,0.09 -0.25,0.07 -0.25,0.06 -0.26,0.05 -0.28,0.04 -0.28,0.03 -0.29,0.02 -0.3,0 0.12,-0.98 c 3.4,0 4.5,-2.64 4.5,-4.74 0,-2.32 -2.26,-9.75 -8.1,-9.75 l 0,0 c -3.94,0 -4.4,2.96 -4.4,4.04 0,1.35 0.94,4.78 1.29,5.65 0.62,1.59 2.79,4.8 6.71,4.8 l -0.12,0.98 c -4.89,0 -8.92,-3.65 -10.19,-6.79 -0.2,-0.6 -0.69,-2.02 -0.69,-3.43 0,-2.39 1.88,-6.37 7.32,-6.37 9.03,0 12.68,11.26 12.68,16.2 0,5.97 -3.9,9.38 -8.57,9.38 -5.68,0 -7.25,-4.53 -7.25,-5.61 0,-0.28 0.19,-1.25 1.4,-1.25 1.22,0 1.94,1.08 1.94,1.92 0,0.94 -0.69,1.25 -1.34,1.31 1.73,2.63 4.59,2.63 5.19,2.63 2.6,0 5.71,-1.64 5.71,-6.6 0,-1.5 -0.18,-2.72 -0.84,-5.5 z"
           inkscape:connector-curvature="0"
           style="fill:#000000;stroke-width:0" /><path
           id="path4172"
           d="m 814.83,444.73 -1.05,0 c -0.07,-0.48 -0.32,-2.01 -0.71,-2.26 -0.21,-0.16 -2.3,-0.16 -2.67,-0.16 l -4.88,0 c 1.64,1.22 3.48,2.61 4.98,3.61 2.24,1.55 4.33,3 4.33,5.64 0,3.19 -3.01,4.96 -6.58,4.96 -3.35,0 -5.82,-1.96 -5.82,-4.4 0,-1.29 1.09,-1.51 1.45,-1.51 0.67,0 1.47,0.45 1.47,1.47 0,0.89 -0.66,1.39 -1.42,1.47 0.68,1.12 2.14,1.87 3.81,1.87 2.41,0 4.42,-1.45 4.42,-3.89 0,-2.09 -1.44,-3.69 -3.36,-5.31 l -6.08,-5.16 c -0.25,-0.22 -0.26,-0.22 -0.29,-0.39 l 0,-0.75 11.57,0 z"
           inkscape:connector-curvature="0"
           style="fill:#000000;stroke-width:0" /><path
           id="path4174"
           d="m 837.93,436.03 0.02,0.09 0.03,0.1 0.02,0.1 0.03,0.1 0.03,0.1 0.02,0.11 0.06,0.22 0.05,0.22 0.06,0.22 0.05,0.22 0.03,0.11 0.02,0.1 0.03,0.11 0.02,0.1 0.02,0.09 0.02,0.1 0.02,0.09 0.02,0.09 0.02,0.08 0.02,0.07 0.01,0.07 0.02,0.07 0.01,0.06 0.01,0.05 0.01,0.04 0,0.04 0,0.01 0,0.02 0.01,0.01 0,0.01 c 0,0.69 -0.55,1.11 -1.14,1.11 -0.68,0 -1.3,-0.42 -1.5,-1.02 -0.11,-0.26 -0.46,-1.73 -0.71,-2.61 -0.48,-1.98 -0.48,-2.04 -1,-4 -0.45,-1.92 -0.53,-2.2 -0.56,-3.2 0.14,-0.7 -0.14,-1.36 -0.98,-2.41 -0.44,-0.56 -1.15,-1.15 -2.33,-1.15 -1.36,0 -3.14,0.48 -3.14,3.2 0,1.78 0.98,4.36 1.67,6.14 0.59,1.53 0.73,1.84 0.73,2.44 0,1.67 -1.42,2.95 -3.31,2.95 -3.52,0 -5.08,-4.73 -5.08,-5.33 0,-0.45 0.49,-0.45 0.6,-0.45 0.48,0 0.51,0.17 0.62,0.56 0.88,2.89 2.38,4.25 3.77,4.25 0.59,0 0.86,-0.39 0.86,-1.22 0,-0.79 -0.32,-1.56 -0.49,-2.01 -1.98,-5.1 -1.98,-5.8 -1.98,-6.88 0,-4.11 3.73,-4.62 5.61,-4.62 0.67,0 2.37,0 3.93,2.33 0.8,-1.57 2.72,-2.33 4.85,-2.33 3.11,0 4.64,2.67 5.33,4.11 1.5,2.92 2.43,7.28 2.43,8.89 0,2.61 -1.48,2.75 -1.73,2.75 -0.91,0 -1.88,-0.95 -1.88,-1.86 0,-0.58 0.35,-0.86 0.58,-1.08 0.85,-0.69 1.3,-1.67 1.3,-2.78 0,-0.45 -1.47,-9.06 -5.89,-9.06 -2.83,0 -2.83,2.51 -2.83,3.11 0,0.93 0.14,1.5 0.64,3.48 z"
           inkscape:connector-curvature="0"
           style="fill:#000000;stroke-width:0" /><polyline
           id="polyline4176"
           points="771,417 855.48,417 855.48,419.04 771,419.04 "
           style="fill:#000000;fill-rule:nonzero;stroke-width:0" /><path
           id="path4178"
           d="m 789.06,399.86 -0.05,0.19 -0.05,0.19 -0.07,0.19 -0.07,0.18 -0.07,0.19 -0.08,0.19 -0.09,0.18 -0.1,0.18 -0.1,0.18 -0.11,0.18 -0.12,0.17 -0.13,0.17 -0.13,0.16 -0.15,0.16 -0.14,0.15 -0.16,0.15 -0.17,0.14 -0.17,0.14 -0.19,0.13 -0.19,0.12 -0.2,0.11 -0.2,0.11 -0.22,0.1 -0.23,0.09 -0.23,0.08 -0.25,0.07 -0.25,0.06 -0.26,0.06 -0.28,0.04 -0.28,0.02 -0.29,0.02 -0.3,0.01 0.12,-0.99 c 3.4,0 4.5,-2.64 4.5,-4.73 0,-2.33 -2.26,-9.75 -8.1,-9.75 l 0,0 c -3.94,0 -4.4,2.95 -4.4,4.03 0,1.36 0.94,4.78 1.29,5.66 0.62,1.59 2.79,4.79 6.71,4.79 l -0.12,0.99 c -4.89,0 -8.92,-3.66 -10.19,-6.8 -0.2,-0.59 -0.69,-2.01 -0.69,-3.42 0,-2.39 1.88,-6.37 7.32,-6.37 9.03,0 12.68,11.26 12.68,16.2 0,5.97 -3.9,9.37 -8.57,9.37 -5.68,0 -7.25,-4.53 -7.25,-5.61 0,-0.28 0.19,-1.25 1.4,-1.25 1.22,0 1.94,1.08 1.94,1.93 0,0.93 -0.69,1.25 -1.34,1.31 1.73,2.62 4.59,2.62 5.19,2.62 2.6,0 5.71,-1.64 5.71,-6.59 0,-1.5 -0.18,-2.72 -0.84,-5.5 z"
           inkscape:connector-curvature="0"
           style="fill:#000000;stroke-width:0" /><path
           id="path4180"
           d="m 802.83,391.77 -0.03,-0.12 -0.04,-0.11 -0.05,-0.12 -0.04,-0.12 -0.06,-0.13 -0.06,-0.12 -0.06,-0.13 -0.07,-0.13 -0.07,-0.13 -0.07,-0.12 -0.08,-0.13 -0.09,-0.13 -0.09,-0.12 -0.09,-0.13 -0.1,-0.12 -0.1,-0.12 -0.1,-0.11 -0.11,-0.11 -0.12,-0.11 -0.12,-0.1 -0.12,-0.09 -0.12,-0.09 -0.13,-0.09 -0.14,-0.07 -0.13,-0.07 -0.15,-0.06 -0.14,-0.06 -0.15,-0.04 -0.15,-0.04 -0.16,-0.03 -0.16,-0.01 -0.16,-0.01 c -0.11,0 -1.16,0 -1.89,0.49 1.43,0.45 1.53,1.72 1.53,1.92 0,0.77 -0.6,1.3 -1.39,1.3 -0.97,0 -1.99,-0.85 -1.99,-2.14 0,-1.74 1.95,-2.54 3.66,-2.54 1.61,0 3.03,1 3.91,2.47 0.82,-1.84 2.75,-2.47 4.13,-2.47 4.02,0 6.15,4.35 6.15,5.33 0,0.46 -0.46,0.46 -0.57,0.46 -0.48,0 -0.51,-0.18 -0.65,-0.6 -0.74,-2.4 -2.83,-4.22 -4.78,-4.22 -1.4,0 -2.13,0.94 -2.13,2.27 0,0.91 0.85,4.08 1.81,7.95 0.71,2.67 2.27,3.55 3.42,3.55 0.07,0 1.15,0 1.88,-0.49 -1.11,-0.31 -1.53,-1.29 -1.53,-1.92 0,-0.76 0.59,-1.28 1.39,-1.28 0.81,0 1.95,0.66 1.95,2.13 0,1.95 -2.23,2.53 -3.62,2.53 -1.74,0 -3.14,-1.14 -3.91,-2.47 -0.62,1.44 -2.22,2.47 -4.17,2.47 -3.91,0 -6.14,-4.28 -6.14,-5.33 0,-0.45 0.5,-0.45 0.59,-0.45 0.46,0 0.49,0.14 0.68,0.59 0.85,2.72 3.06,4.22 4.76,4.22 1.16,0 2.09,-0.63 2.09,-2.3 0,-0.7 -0.42,-2.44 -0.73,-3.62 z"
           inkscape:connector-curvature="0"
           style="fill:#000000;stroke-width:0" /><path
           id="path4182"
           d="m 835.02,399.86 -0.05,0.19 -0.06,0.19 -0.06,0.19 -0.07,0.18 -0.07,0.19 -0.09,0.19 -0.09,0.18 -0.09,0.18 -0.11,0.18 -0.11,0.18 -0.12,0.17 -0.12,0.17 -0.14,0.16 -0.14,0.16 -0.15,0.15 -0.16,0.15 -0.16,0.14 -0.18,0.14 -0.18,0.13 -0.19,0.12 -0.2,0.11 -0.21,0.11 -0.21,0.1 -0.23,0.09 -0.24,0.08 -0.24,0.07 -0.25,0.06 -0.27,0.06 -0.27,0.04 -0.28,0.02 -0.29,0.02 -0.3,0.01 0.12,-0.99 c 3.39,0 4.5,-2.64 4.5,-4.73 0,-2.33 -2.26,-9.75 -8.11,-9.75 l 0,0 c -3.93,0 -4.39,2.95 -4.39,4.03 0,1.36 0.94,4.78 1.28,5.66 0.63,1.59 2.8,4.79 6.72,4.79 l -0.12,0.99 c -4.89,0 -8.92,-3.66 -10.19,-6.8 -0.2,-0.59 -0.69,-2.01 -0.69,-3.42 0,-2.39 1.88,-6.37 7.31,-6.37 9.04,0 12.69,11.26 12.69,16.2 0,5.97 -3.9,9.37 -8.58,9.37 -5.67,0 -7.25,-4.53 -7.25,-5.61 0,-0.28 0.19,-1.25 1.41,-1.25 1.22,0 1.94,1.08 1.94,1.93 0,0.93 -0.69,1.25 -1.35,1.31 1.74,2.62 4.6,2.62 5.19,2.62 2.61,0 5.72,-1.64 5.72,-6.59 0,-1.5 -0.19,-2.72 -0.84,-5.5 z"
           inkscape:connector-curvature="0"
           style="fill:#000000;stroke-width:0" /><path
           id="path4184"
           d="m 848.69,401.84 3.55,0 c 0.66,0 1.11,0 1.11,0.77 0,0.48 -0.45,0.48 -1.03,0.48 l -3.32,0 1.28,5.16 c 0.04,0.17 0.12,0.34 0.12,0.48 0,0.65 -0.49,1.13 -1.19,1.13 -0.88,0 -1.39,-0.59 -1.64,-1.5 -0.24,-0.88 0.21,0.8 -1.33,-5.27 l -3.55,0 c -0.66,0 -1.11,0 -1.11,-0.76 0,-0.49 0.41,-0.49 1.05,-0.49 l 3.3,0 -2.05,-8.22 c -0.22,-0.87 -0.53,-2.12 -0.53,-2.57 0,-2.07 1.75,-3.32 3.73,-3.32 3.88,0 6.07,4.88 6.07,5.33 0,0.46 -0.46,0.46 -0.57,0.46 -0.4,0 -0.45,-0.08 -0.72,-0.66 -0.98,-2.2 -2.76,-4.16 -4.67,-4.16 -0.73,0 -1.22,0.46 -1.22,1.71 0,0.36 0.14,1.09 0.21,1.43 z"
           inkscape:connector-curvature="0"
           style="fill:#000000;stroke-width:0" /><path
           id="path4186"
           d="m 892.66,416.69 13.9,0 c 0.69,0 1.64,0 1.64,1 0,1 -0.95,1 -1.64,1 l -13.9,0 0,13.95 c 0,0.69 0,1.65 -1,1.65 -0.99,0 -0.99,-0.96 -0.99,-1.65 l 0,-13.95 -13.95,0 c -0.7,0 -1.64,0 -1.64,-1 0,-1 0.94,-1 1.64,-1 l 13.95,0 0,-13.94 c 0,-0.7 0,-1.65 0.99,-1.65 1,0 1,0.95 1,1.65 z"
           inkscape:connector-curvature="0"
           style="fill:#000000;stroke-width:0" /><path
           id="path4188"
           d="m 938.56,393.29 0,0.02 0,0.03 0,0.01 0,0.02 -0.01,0.01 0,0.02 -0.01,0.01 0,0.02 -0.01,0.02 -0.01,0.02 -0.01,0.02 -0.02,0.03 -0.01,0.02 -0.02,0.03 -0.02,0.03 -0.03,0.03 -0.02,0.03 -0.03,0.04 -0.02,0.02 -0.02,0.02 -0.01,0.02 -0.02,0.02 -0.02,0.02 -0.02,0.02 -0.02,0.03 -0.02,0.02 -0.03,0.03 -0.02,0.02 -0.02,0.03 -0.03,0.03 -0.03,0.03 -0.02,0.02 -0.03,0.03 -0.03,0.04 -0.03,0.03 -0.04,0.03 -0.03,0.03 -0.03,0.04 -0.04,0.04 -0.03,0.03 -0.04,0.04 -0.04,0.04 c -6.22,6.28 -7.81,15.69 -7.81,23.31 0,8.67 1.89,17.35 8.01,23.56 0.64,0.61 0.64,0.71 0.64,0.86 0,0.35 -0.18,0.49 -0.48,0.49 -0.5,0 -4.99,-3.38 -7.92,-9.71 -2.55,-5.48 -3.14,-11.01 -3.14,-15.2 0,-3.89 0.54,-9.9 3.28,-15.55 2.98,-6.12 7.28,-9.35 7.78,-9.35 0.3,0 0.48,0.14 0.48,0.5 z"
           inkscape:connector-curvature="0"
           style="fill:#000000;stroke-width:0" /><path
           id="path4190"
           d="m 945.78,408.18 -0.01,-0.08 -0.02,-0.07 -0.01,-0.07 -0.02,-0.08 -0.03,-0.16 -0.04,-0.16 -0.04,-0.16 -0.04,-0.17 -0.03,-0.16 -0.04,-0.15 -0.02,-0.08 -0.01,-0.07 -0.02,-0.08 -0.02,-0.07 -0.01,-0.06 -0.01,-0.07 -0.02,-0.06 -0.01,-0.06 -0.01,-0.06 -0.01,-0.05 -0.01,-0.05 0,-0.04 -0.01,-0.04 0,-0.04 -0.01,-0.03 0,-0.02 c 0,-0.9 0.7,-1.35 1.44,-1.35 0.61,0 1.5,0.39 1.84,1.39 0.07,0.11 0.66,2.44 0.96,3.69 l 1.09,4.48 c 0.3,1.1 0.59,2.19 0.84,3.35 0.21,0.84 0.61,2.28 0.66,2.48 0.75,1.55 3.39,6.08 8.11,6.08 2.25,0 2.7,-1.84 2.7,-3.48 0,-1.25 -0.36,-2.64 -0.75,-4.14 l -1.39,-5.79 -1,-3.78 c -0.2,-1 -0.65,-2.68 -0.65,-2.93 0,-0.9 0.7,-1.35 1.45,-1.35 1.55,0 1.84,1.25 2.23,2.85 0.71,2.78 2.55,10.06 3,12 0.14,0.65 2.79,6.62 8.22,6.62 2.14,0 2.69,-1.69 2.69,-3.48 0,-2.85 -2.09,-8.52 -3.09,-11.16 -0.46,-1.2 -0.65,-1.75 -0.65,-2.75 0,-2.33 1.74,-4.08 4.08,-4.08 4.69,0 6.54,7.27 6.54,7.67 0,0.5 -0.46,0.5 -0.6,0.5 -0.5,0 -0.5,-0.15 -0.75,-0.9 -0.75,-2.64 -2.34,-6.17 -5.08,-6.17 -0.86,0 -1.2,0.5 -1.2,1.64 0,1.25 0.45,2.45 0.89,3.54 0.95,2.58 3.05,8.11 3.05,10.96 0,3.23 -2,5.32 -5.74,5.32 -3.73,0 -6.26,-2.18 -8.11,-4.82 -0.06,0.65 -0.2,2.34 -1.61,3.53 -1.23,1.04 -2.82,1.29 -4.07,1.29 -4.49,0 -6.93,-3.18 -7.77,-4.32 -0.25,2.84 -2.34,4.32 -4.59,4.32 -2.29,0 -3.24,-1.93 -3.69,-2.82 -0.89,-1.75 -1.55,-4.69 -1.55,-4.85 0,-0.5 0.5,-0.5 0.61,-0.5 0.5,0 0.55,0.06 0.84,1.16 0.85,3.53 1.85,5.92 3.65,5.92 0.79,0 1.54,-0.39 1.54,-2.28 0,-1.05 -0.15,-1.61 -0.79,-4.19 z"
           inkscape:connector-curvature="0"
           style="fill:#000000;stroke-width:0" /><path
           id="path4192"
           d="m 1016.4,433.58 0.2,0.36 0.2,0.33 0.2,0.31 0.3,0.29 0.2,0.28 0.2,0.25 0.2,0.24 0.2,0.22 0.2,0.2 0.3,0.19 0.2,0.17 0.2,0.16 0.2,0.14 0.2,0.13 0.2,0.12 0.2,0.11 0.2,0.09 0.2,0.09 0.2,0.07 0.2,0.07 0.2,0.05 0.1,0.05 0.2,0.05 0.2,0.03 0.2,0.03 0.2,0.03 0.3,0.04 0.4,0.02 0.4,0.02 c 0.5,0.05 0.6,0.89 0.6,0.96 0,0.39 -0.3,0.59 -0.6,0.59 -1.3,0 -2.8,-0.16 -4.1,-0.16 -1.7,0 -3.4,0.16 -5,0.16 -0.3,0 -0.9,0 -0.9,-0.95 0,-0.55 0.4,-0.6 0.8,-0.6 1.3,-0.09 2.3,-0.59 2.3,-1.64 0,-0.75 -0.8,-1.84 -0.8,-1.89 l -15.28,-24.31 -3.39,26.34 c 0,0.85 1.14,1.5 3.44,1.5 0.73,0 1.23,0 1.23,1 0,0.44 -0.4,0.55 -0.7,0.55 -1.97,0 -4.12,-0.16 -6.15,-0.16 -0.91,0 -1.85,0.05 -2.75,0.05 -0.9,0 -1.85,0.11 -2.69,0.11 -0.34,0 -0.94,0 -0.94,-0.95 0,-0.6 0.44,-0.6 1.23,-0.6 2.8,0 2.85,-0.45 3,-1.68 l 3.93,-30.75 c 0.15,-1 0.36,-1.15 1,-1.15 0.79,0 1,0.25 1.4,0.9 z"
           inkscape:connector-curvature="0"
           style="fill:#000000;stroke-width:0" /><path
           id="path4194"
           d="m 1043,429.7 -1.2,0 c -0.1,-0.76 -0.5,-2.82 -0.9,-3.17 -0.3,-0.2 -3,-0.2 -3.4,-0.2 l -6.5,0 c 3.7,3.23 4.9,4.2 7,5.84 2.6,2.06 5,4.22 5,7.53 0,4.22 -3.7,6.8 -8.2,6.8 -4.3,0 -7.2,-3.03 -7.2,-6.23 0,-1.79 1.5,-1.96 1.8,-1.96 0.9,0 1.9,0.6 1.9,1.85 0,0.62 -0.3,1.84 -2.1,1.84 1.1,2.47 3.5,3.23 5.1,3.23 3.5,0 5.3,-2.7 5.3,-5.53 0,-3.03 -2.1,-5.43 -3.3,-6.68 l -8.4,-8.3 c -0.3,-0.31 -0.3,-0.39 -0.3,-1.36 l 14.3,0 z"
           inkscape:connector-curvature="0"
           style="fill:#000000;stroke-width:0" /><path
           id="path4196"
           d="m 1032.1,403.99 0,0.36 0,0.35 0,0.68 0,0.66 -0.1,0.64 0,0.62 -0.1,0.59 -0.1,0.58 -0.1,0.56 -0.1,0.55 -0.2,0.52 -0.2,0.52 -0.2,0.5 -0.2,0.49 -0.2,0.48 -0.3,0.47 -0.1,0.23 -0.2,0.23 c -1,1.61 -3.2,3 -6,3 -8.1,0 -8.1,-9.52 -8.1,-12.03 0,-2.5 0,-11.81 8.1,-11.81 l 0,0.98 c -1.6,0 -3.7,0.94 -4.4,3.8 -0.5,2.04 -0.5,4.9 -0.5,7.48 0,2.55 0,5.2 0.5,7.11 0.8,2.75 3,3.49 4.4,3.49 1.9,0 3.7,-1.15 4.3,-3.18 0.6,-1.87 0.6,-4.39 0.6,-7.42 0,-2.58 0,-5.15 -0.4,-7.34 -0.7,-3.17 -3.1,-3.94 -4.5,-3.94 l 0,0 0,-0.98 c 8.1,0 8.1,9.31 8.1,11.81 z"
           inkscape:connector-curvature="0"
           style="fill:#000000;stroke-width:0" /><path
           id="path4198"
           d="m 1091.6,416.69 0.1,0 0.2,0 0.2,0.01 0,0 0.1,0.01 0.1,0 0.1,0.01 0,0.01 0.1,0.01 0.1,0.02 0.1,0.01 0,0.02 0.1,0.03 0,0.02 0.1,0.03 0.1,0.03 0,0.04 0.1,0.03 0,0.05 0,0.04 0.1,0.05 0,0.03 0,0.03 0,0.03 0.1,0.03 0,0.03 0,0.03 0,0.04 0,0.03 0,0.04 0,0.04 0,0.03 0,0.04 0,0.05 0,0.04 0,0.04 0,0.05 c 0,1 -0.9,1 -1.7,1 l -27,0 c -0.8,0 -1.7,0 -1.7,-1 0,-1 0.9,-1 1.7,-1 z"
           inkscape:connector-curvature="0"
           style="fill:#000000;stroke-width:0" /><path
           id="path4200"
           d="m 1129.8,435.47 0.1,0.07 0,0.06 0,0.12 0,0.12 0.1,0.11 0,0.1 0,0.1 0,0.1 0.1,0.08 0,0.09 0,0.08 0.1,0.07 0,0.07 0,0.06 0.1,0.06 0,0.06 0,0.05 0,0.05 0.1,0.04 0,0.04 0,0.04 0.1,0.04 0,0.03 0.1,0.03 0,0.03 0,0.02 0.1,0.02 0,0.03 0.1,0.01 0,0.02 0.1,0.02 0,0.01 0.1,0.02 c 0.4,0.11 2.1,0.11 3.1,0.11 5.1,0 7.3,-0.21 7.3,-4.1 0,-0.73 -0.2,-2.69 -0.4,-3.98 -0.1,-0.19 -0.2,-0.8 -0.2,-0.94 0,-0.3 0.2,-0.66 0.6,-0.66 0.6,0 0.7,0.41 0.8,1.16 l 1.3,8.66 c 0.1,0.2 0.1,0.7 0.1,0.86 0,0.54 -0.5,0.54 -1.3,0.54 l -27.7,0 c -1.2,0 -1.2,-0.06 -1.6,-1 l -2.9,-8.76 c -0.1,-0.11 -0.3,-0.8 -0.3,-0.91 0,-0.3 0.2,-0.55 0.6,-0.55 0.5,0 0.5,0.25 0.8,1.05 2.7,7.72 4,8.63 11.4,8.63 l 1.9,0 c 1.4,0 1.4,-0.21 1.4,-0.6 0,-0.31 -0.1,-0.9 -0.2,-1.04 l -6.7,-26.61 c -0.4,-1.85 -0.6,-2.39 -5.9,-2.39 -1.8,0 -2.1,0 -2.1,-0.96 0,-0.59 0.5,-0.59 0.8,-0.59 1.4,0 2.8,0.09 4.1,0.09 1.4,0 2.9,0.06 4.3,0.06 1.4,0 2.7,-0.06 4.1,-0.06 1.5,0 2.9,-0.09 4.3,-0.09 0.5,0 1.1,0 1.1,1 0,0.55 -0.4,0.55 -1.7,0.55 -1.2,0 -1.8,0 -3.1,0.09 -1.5,0.16 -1.9,0.3 -1.9,1.09 0,0.07 0,0.32 0.2,1.05 z"
           inkscape:connector-curvature="0"
           style="fill:#000000;stroke-width:0" /><path
           id="path4202"
           d="m 1155.7,408.91 0,0.71 0,0.68 -0.1,0.66 0,0.64 -0.1,0.62 0,0.59 -0.1,0.58 -0.1,0.56 -0.2,0.55 -0.1,0.53 -0.2,0.51 -0.2,0.5 -0.2,0.49 -0.2,0.48 -0.3,0.47 -0.1,0.23 -0.2,0.23 c -1,1.61 -3.2,3 -6,3 l 0,-0.98 c 1.9,0 3.7,-1.14 4.3,-3.17 0.6,-1.88 0.6,-4.4 0.6,-7.43 0,-2.57 0,-5.15 -0.4,-7.34 -0.7,-3.17 -3.1,-3.94 -4.5,-3.94 l 0,0 c -1.6,0 -3.7,0.94 -4.4,3.8 -0.5,2.05 -0.5,4.91 -0.5,7.48 0,2.55 0,5.21 0.5,7.11 0.7,2.75 3,3.49 4.4,3.49 l 0,0.98 c -8.1,0 -8.1,-9.51 -8.1,-12.03 0,-2.5 0,-11.81 8.1,-11.81 8.1,0 8.1,9.31 8.1,11.81 z"
           inkscape:connector-curvature="0"
           style="fill:#000000;stroke-width:0" /><path
           id="path4204"
           d="m 1174.4,417.69 0,0.37 0,0.39 0,0.39 0,0.41 0,0.84 -0.1,0.88 -0.1,0.92 -0.1,0.95 -0.1,0.97 -0.2,1 -0.2,1.03 -0.2,1.03 -0.3,1.05 -0.3,1.06 -0.3,1.07 -0.4,1.06 -0.2,0.54 -0.3,0.53 -0.2,0.53 -0.2,0.53 c -3,6.12 -7.3,9.36 -7.8,9.36 -0.3,0 -0.5,-0.19 -0.5,-0.49 0,-0.15 0,-0.25 0.9,-1.15 4.9,-4.92 7.8,-12.85 7.8,-23.27 0,-8.51 -1.9,-17.28 -8.1,-23.56 -0.6,-0.59 -0.6,-0.7 -0.6,-0.84 0,-0.3 0.2,-0.5 0.5,-0.5 0.5,0 4.9,3.39 7.9,9.71 2.5,5.47 3.1,11 3.1,15.19 z"
           inkscape:connector-curvature="0"
           style="fill:#000000;stroke-width:0" /><path
           id="path4206"
           d="m 1203.7,436.7 -0.1,0.19 0,0.19 -0.1,0.19 -0.1,0.19 -0.1,0.19 0,0.18 -0.1,0.18 -0.1,0.19 -0.1,0.17 -0.1,0.18 -0.2,0.17 -0.1,0.17 -0.1,0.16 -0.2,0.16 -0.1,0.16 -0.2,0.14 -0.1,0.15 -0.2,0.13 -0.2,0.13 -0.2,0.12 -0.2,0.12 -0.2,0.11 -0.2,0.09 -0.2,0.09 -0.3,0.09 -0.2,0.07 -0.3,0.06 -0.2,0.05 -0.3,0.04 -0.3,0.03 -0.3,0.02 -0.3,0 0.1,-0.98 c 3.4,0 4.5,-2.64 4.5,-4.74 0,-2.32 -2.2,-9.75 -8.1,-9.75 l 0,0 c -3.9,0 -4.4,2.96 -4.4,4.04 0,1.35 1,4.78 1.3,5.65 0.7,1.59 2.8,4.8 6.7,4.8 l -0.1,0.98 c -4.9,0 -8.9,-3.65 -10.2,-6.79 -0.2,-0.6 -0.7,-2.02 -0.7,-3.43 0,-2.39 1.9,-6.37 7.4,-6.37 9,0 12.6,11.26 12.6,16.2 0,5.97 -3.8,9.38 -8.5,9.38 -5.7,0 -7.3,-4.53 -7.3,-5.61 0,-0.28 0.2,-1.25 1.4,-1.25 1.2,0 2,1.08 2,1.92 0,0.94 -0.7,1.25 -1.4,1.31 1.8,2.63 4.6,2.63 5.2,2.63 2.6,0 5.7,-1.64 5.7,-6.6 0,-1.5 -0.2,-2.72 -0.8,-5.5 z"
           inkscape:connector-curvature="0"
           style="fill:#000000;stroke-width:0" /><path
           id="path4208"
           d="m 1223.4,444.73 -1,0 c -0.1,-0.48 -0.3,-2.01 -0.7,-2.26 -0.2,-0.16 -2.3,-0.16 -2.7,-0.16 l -4.9,0 c 1.7,1.22 3.5,2.61 5,3.61 2.2,1.55 4.3,3 4.3,5.64 0,3.19 -3,4.96 -6.5,4.96 -3.4,0 -5.9,-1.96 -5.9,-4.4 0,-1.29 1.1,-1.51 1.5,-1.51 0.7,0 1.4,0.45 1.4,1.47 0,0.89 -0.6,1.39 -1.4,1.47 0.7,1.12 2.2,1.87 3.8,1.87 2.5,0 4.5,-1.45 4.5,-3.89 0,-2.09 -1.5,-3.69 -3.4,-5.31 l -6.1,-5.16 c -0.2,-0.22 -0.2,-0.22 -0.3,-0.39 l 0,-0.75 11.6,0 z"
           inkscape:connector-curvature="0"
           style="fill:#000000;stroke-width:0" /><path
           id="path4210"
           d="m 1246.5,436.03 0.1,0.09 0,0.1 0,0.1 0,0.1 0.1,0.1 0,0.11 0,0.22 0.1,0.22 0,0.22 0.1,0.22 0,0.11 0,0.1 0.1,0.11 0,0.1 0,0.09 0,0.1 0.1,0.09 0,0.09 0,0.08 0,0.07 0,0.07 0,0.07 0.1,0.06 0,0.05 0,0.04 0,0.04 0,0.01 0,0.02 0,0.01 0,0.01 c 0,0.69 -0.6,1.11 -1.2,1.11 -0.6,0 -1.2,-0.42 -1.5,-1.02 -0.1,-0.26 -0.4,-1.73 -0.7,-2.61 -0.4,-1.98 -0.4,-2.04 -1,-4 -0.4,-1.92 -0.5,-2.2 -0.5,-3.2 0.1,-0.7 -0.2,-1.36 -1,-2.41 -0.4,-0.56 -1.1,-1.15 -2.3,-1.15 -1.4,0 -3.2,0.48 -3.2,3.2 0,1.78 1,4.36 1.7,6.14 0.6,1.53 0.7,1.84 0.7,2.44 0,1.67 -1.4,2.95 -3.3,2.95 -3.5,0 -5.1,-4.73 -5.1,-5.33 0,-0.45 0.5,-0.45 0.6,-0.45 0.5,0 0.5,0.17 0.7,0.56 0.8,2.89 2.3,4.25 3.7,4.25 0.6,0 0.9,-0.39 0.9,-1.22 0,-0.79 -0.3,-1.56 -0.5,-2.01 -2,-5.1 -2,-5.8 -2,-6.88 0,-4.11 3.7,-4.62 5.6,-4.62 0.7,0 2.4,0 4,2.33 0.8,-1.57 2.7,-2.33 4.8,-2.33 3.1,0 4.6,2.67 5.3,4.11 1.5,2.92 2.5,7.28 2.5,8.89 0,2.61 -1.5,2.75 -1.8,2.75 -0.9,0 -1.8,-0.95 -1.8,-1.86 0,-0.58 0.3,-0.86 0.5,-1.08 0.9,-0.69 1.3,-1.67 1.3,-2.78 0,-0.45 -1.4,-9.06 -5.8,-9.06 -2.9,0 -2.9,2.51 -2.9,3.11 0,0.93 0.2,1.5 0.7,3.48 z"
           inkscape:connector-curvature="0"
           style="fill:#000000;stroke-width:0" /><polyline
           id="polyline4212"
           points="1185,417 1257.7,417 1257.7,419.04 1185,419.04 "
           style="fill:#000000;fill-rule:nonzero;stroke-width:0" /><path
           id="path4214"
           d="m 1207.3,399.86 -0.1,0.19 0,0.19 -0.1,0.19 -0.1,0.18 -0.1,0.19 0,0.19 -0.1,0.18 -0.1,0.18 -0.1,0.18 -0.1,0.18 -0.2,0.17 -0.1,0.17 -0.1,0.16 -0.2,0.16 -0.1,0.15 -0.2,0.15 -0.1,0.14 -0.2,0.14 -0.2,0.13 -0.2,0.12 -0.2,0.11 -0.2,0.11 -0.2,0.1 -0.2,0.09 -0.3,0.08 -0.2,0.07 -0.3,0.06 -0.2,0.06 -0.3,0.04 -0.3,0.02 -0.3,0.02 -0.3,0.01 0.2,-0.99 c 3.3,0 4.5,-2.64 4.5,-4.73 0,-2.33 -2.3,-9.75 -8.2,-9.75 l 0,0 c -3.9,0 -4.3,2.95 -4.3,4.03 0,1.36 0.9,4.78 1.2,5.66 0.7,1.59 2.8,4.79 6.8,4.79 l -0.2,0.99 c -4.9,0 -8.9,-3.66 -10.2,-6.8 -0.2,-0.59 -0.6,-2.01 -0.6,-3.42 0,-2.39 1.8,-6.37 7.3,-6.37 9,0 12.7,11.26 12.7,16.2 0,5.97 -3.9,9.37 -8.6,9.37 -5.7,0 -7.3,-4.53 -7.3,-5.61 0,-0.28 0.2,-1.25 1.4,-1.25 1.2,0 2,1.08 2,1.93 0,0.93 -0.7,1.25 -1.4,1.31 1.8,2.62 4.6,2.62 5.2,2.62 2.6,0 5.7,-1.64 5.7,-6.59 0,-1.5 -0.2,-2.72 -0.8,-5.5 z"
           inkscape:connector-curvature="0"
           style="fill:#000000;stroke-width:0" /><path
           id="path4216"
           d="m 1221,391.77 0,-0.12 0,-0.11 -0.1,-0.12 0,-0.12 -0.1,-0.13 0,-0.12 -0.1,-0.13 -0.1,-0.13 0,-0.13 -0.1,-0.12 -0.1,-0.13 -0.1,-0.13 -0.1,-0.12 -0.1,-0.13 -0.1,-0.12 -0.1,-0.12 -0.1,-0.11 -0.1,-0.11 -0.1,-0.11 -0.1,-0.1 -0.1,-0.09 -0.2,-0.09 -0.1,-0.09 -0.1,-0.07 -0.2,-0.07 -0.1,-0.06 -0.1,-0.06 -0.2,-0.04 -0.2,-0.04 -0.1,-0.03 -0.2,-0.01 -0.1,-0.01 c -0.1,0 -1.2,0 -1.9,0.49 1.4,0.45 1.5,1.72 1.5,1.92 0,0.77 -0.6,1.3 -1.4,1.3 -0.9,0 -2,-0.85 -2,-2.14 0,-1.74 2,-2.54 3.7,-2.54 1.6,0 3,1 3.9,2.47 0.8,-1.84 2.7,-2.47 4.1,-2.47 4.1,0 6.2,4.35 6.2,5.33 0,0.46 -0.5,0.46 -0.6,0.46 -0.5,0 -0.5,-0.18 -0.6,-0.6 -0.8,-2.4 -2.9,-4.22 -4.8,-4.22 -1.4,0 -2.1,0.94 -2.1,2.27 0,0.91 0.8,4.08 1.8,7.95 0.7,2.67 2.2,3.55 3.4,3.55 0.1,0 1.1,0 1.9,-0.49 -1.1,-0.31 -1.6,-1.29 -1.6,-1.92 0,-0.76 0.6,-1.28 1.4,-1.28 0.8,0 2,0.66 2,2.13 0,1.95 -2.3,2.53 -3.6,2.53 -1.8,0 -3.2,-1.14 -4,-2.47 -0.6,1.44 -2.2,2.47 -4.1,2.47 -3.9,0 -6.2,-4.28 -6.2,-5.33 0,-0.45 0.5,-0.45 0.6,-0.45 0.5,0 0.5,0.14 0.7,0.59 0.8,2.72 3.1,4.22 4.8,4.22 1.1,0 2,-0.63 2,-2.3 0,-0.7 -0.4,-2.44 -0.7,-3.62 z"
           inkscape:connector-curvature="0"
           style="fill:#000000;stroke-width:0" /><path
           id="path4218"
           d="m 1249.6,402.85 -1,0 c -0.1,-0.48 -0.4,-2.01 -0.8,-2.26 -0.2,-0.16 -2.3,-0.16 -2.6,-0.16 l -4.9,0 c 1.6,1.22 3.5,2.61 5,3.61 2.2,1.55 4.3,3 4.3,5.64 0,3.19 -3,4.95 -6.6,4.95 -3.3,0 -5.8,-1.95 -5.8,-4.39 0,-1.29 1.1,-1.51 1.4,-1.51 0.7,0 1.5,0.45 1.5,1.47 0,0.89 -0.7,1.39 -1.4,1.46 0.7,1.13 2.1,1.88 3.8,1.88 2.4,0 4.4,-1.45 4.4,-3.89 0,-2.1 -1.4,-3.69 -3.3,-5.31 l -6.1,-5.16 c -0.3,-0.22 -0.3,-0.22 -0.3,-0.39 l 0,-0.75 11.6,0 z"
           inkscape:connector-curvature="0"
           style="fill:#000000;stroke-width:0" /><path
           id="path4220"
           d="m 1295.4,416.69 13.9,0 c 0.7,0 1.6,0 1.6,1 0,1 -0.9,1 -1.6,1 l -13.9,0 0,13.95 c 0,0.69 0,1.65 -1,1.65 -1,0 -1,-0.96 -1,-1.65 l 0,-13.95 -14,0 c -0.7,0 -1.6,0 -1.6,-1 0,-1 0.9,-1 1.6,-1 l 14,0 0,-13.94 c 0,-0.7 0,-1.65 1,-1.65 1,0 1,0.95 1,1.65 z"
           inkscape:connector-curvature="0"
           style="fill:#000000;stroke-width:0" /><path
           id="path4222"
           d="m 1332.7,409.13 0,-0.18 -0.1,-0.17 0,-0.16 -0.1,-0.15 0,-0.15 0,-0.13 -0.1,-0.13 0,-0.12 -0.1,-0.11 -0.1,-0.11 0,-0.1 -0.1,-0.09 -0.1,-0.09 -0.1,-0.08 -0.1,-0.07 -0.1,-0.07 -0.1,-0.06 -0.1,-0.05 -0.1,-0.05 -0.2,-0.05 -0.1,-0.04 -0.1,-0.02 -0.1,-0.01 -0.1,-0.02 -0.1,-0.02 -0.1,-0.01 -0.1,-0.01 -0.1,-0.02 -0.1,-0.01 -0.1,-0.01 -0.2,-0.01 -0.1,0 -0.1,-0.01 -0.2,-0.01 -0.1,0 -0.1,-0.01 -0.2,0 -0.2,-0.01 -0.1,0 -0.2,0 -0.2,0 -0.1,0 -0.2,0 c -0.9,0 -1.4,0 -1.4,-0.96 0,-0.59 0.4,-0.59 1.4,-0.59 l 16.5,0 -0.9,1.55 -5.6,0 c -0.8,0 -0.8,0 -1.1,0.04 -0.5,0.05 -0.7,0.1 -0.7,0.5 0,0.14 0,0.25 0.3,1.14 l 6.8,27.36 c 0.4,1.74 0.5,1.89 2.7,1.89 l 5.3,0 c 4.9,0 9,-2.64 9,-9.22 0,-2.43 -1,-10.61 -5.2,-16.09 -1.5,-1.84 -5.4,-5.62 -11.5,-5.62 l 0.9,-1.55 c 10.3,0 20.2,10.51 20.2,21.42 0,7.03 -4.3,12.61 -11.8,12.61 l -16.7,0 c -1,0 -1.5,0 -1.5,-0.95 0,-0.6 0.5,-0.6 1.5,-0.6 0.6,0 1.5,-0.04 2.1,-0.09 0.8,-0.11 1.1,-0.25 1.1,-0.8 0,-0.2 0,-0.36 -0.2,-0.95 z"
           inkscape:connector-curvature="0"
           style="fill:#000000;stroke-width:0" /><path
           id="path4224"
           d="m 1391.7,436.7 0,0.19 -0.1,0.19 -0.1,0.19 0,0.19 -0.1,0.19 -0.1,0.18 -0.1,0.18 -0.1,0.19 -0.1,0.17 -0.1,0.18 -0.1,0.17 -0.1,0.17 -0.2,0.16 -0.1,0.16 -0.2,0.16 -0.1,0.14 -0.2,0.15 -0.2,0.13 -0.1,0.13 -0.2,0.12 -0.2,0.12 -0.2,0.11 -0.3,0.09 -0.2,0.09 -0.2,0.09 -0.3,0.07 -0.2,0.06 -0.3,0.05 -0.3,0.04 -0.2,0.03 -0.3,0.02 -0.3,0 0.1,-0.98 c 3.4,0 4.5,-2.64 4.5,-4.74 0,-2.32 -2.3,-9.75 -8.1,-9.75 l 0,0 c -4,0 -4.4,2.96 -4.4,4.04 0,1.35 0.9,4.78 1.3,5.65 0.6,1.59 2.8,4.8 6.7,4.8 l -0.1,0.98 c -4.9,0 -9,-3.65 -10.2,-6.79 -0.2,-0.6 -0.7,-2.02 -0.7,-3.43 0,-2.39 1.9,-6.37 7.3,-6.37 9,0 12.7,11.26 12.7,16.2 0,5.97 -3.9,9.38 -8.6,9.38 -5.7,0 -7.2,-4.53 -7.2,-5.61 0,-0.28 0.1,-1.25 1.4,-1.25 1.2,0 1.9,1.08 1.9,1.92 0,0.94 -0.7,1.25 -1.3,1.31 1.7,2.63 4.6,2.63 5.1,2.63 2.7,0 5.8,-1.64 5.8,-6.6 0,-1.5 -0.2,-2.72 -0.9,-5.5 z"
           inkscape:connector-curvature="0"
           style="fill:#000000;stroke-width:0" /><path
           id="path4226"
           d="m 1412.2,443.98 0,1.1 -3.1,0 0,10.97 c 0,0.59 -0.1,0.73 -0.7,0.73 -0.5,0 -0.5,-0.01 -0.8,-0.37 l -9.2,-11.33 0,-1.1 8.3,0 0.2,1.1 -7.4,0 7.4,9.01 0,-9.01 -0.2,-1.1 0,-1.93 c 0,-0.78 0,-1.03 -2.2,-1.03 l -0.9,0 0,-1.1 c 1.2,0.05 2.8,0.1 4.3,0.1 1.4,0 3,-0.05 4.2,-0.1 l 0,1.1 -0.9,0 c -2.1,0 -2.1,0.25 -2.1,1.03 l 0,1.93 z"
           inkscape:connector-curvature="0"
           style="fill:#000000;stroke-width:0" /><path
           id="path4228"
           d="m 1434.7,436.03 0,0.09 0,0.1 0.1,0.1 0,0.1 0,0.1 0,0.11 0.1,0.22 0.1,0.22 0,0.22 0.1,0.22 0,0.11 0,0.1 0,0.11 0.1,0.1 0,0.09 0,0.1 0,0.09 0,0.09 0.1,0.08 0,0.07 0,0.07 0,0.07 0,0.06 0,0.05 0,0.04 0,0.04 0,0.01 0,0.02 0,0.01 0,0.01 c 0,0.69 -0.5,1.11 -1.1,1.11 -0.7,0 -1.3,-0.42 -1.5,-1.02 -0.1,-0.26 -0.5,-1.73 -0.7,-2.61 -0.5,-1.98 -0.5,-2.04 -1,-4 -0.4,-1.92 -0.5,-2.2 -0.6,-3.2 0.2,-0.7 -0.1,-1.36 -1,-2.41 -0.4,-0.56 -1.1,-1.15 -2.3,-1.15 -1.3,0 -3.1,0.48 -3.1,3.2 0,1.78 1,4.36 1.7,6.14 0.5,1.53 0.7,1.84 0.7,2.44 0,1.67 -1.4,2.95 -3.3,2.95 -3.5,0 -5.1,-4.73 -5.1,-5.33 0,-0.45 0.5,-0.45 0.6,-0.45 0.5,0 0.5,0.17 0.6,0.56 0.9,2.89 2.4,4.25 3.8,4.25 0.6,0 0.8,-0.39 0.8,-1.22 0,-0.79 -0.3,-1.56 -0.4,-2.01 -2,-5.1 -2,-5.8 -2,-6.88 0,-4.11 3.7,-4.62 5.6,-4.62 0.7,0 2.4,0 3.9,2.33 0.8,-1.57 2.7,-2.33 4.9,-2.33 3.1,0 4.6,2.67 5.3,4.11 1.5,2.92 2.4,7.28 2.4,8.89 0,2.61 -1.4,2.75 -1.7,2.75 -0.9,0 -1.9,-0.95 -1.9,-1.86 0,-0.58 0.4,-0.86 0.6,-1.08 0.8,-0.69 1.3,-1.67 1.3,-2.78 0,-0.45 -1.5,-9.06 -5.9,-9.06 -2.8,0 -2.8,2.51 -2.8,3.11 0,0.93 0.1,1.5 0.6,3.48 z"
           inkscape:connector-curvature="0"
           style="fill:#000000;stroke-width:0" /><polyline
           id="polyline4230"
           points="1373,417 1445.7,417 1445.7,419.04 1373,419.04 "
           style="fill:#000000;fill-rule:nonzero;stroke-width:0" /><path
           id="path4232"
           d="m 1395.3,399.86 0,0.19 -0.1,0.19 -0.1,0.19 0,0.18 -0.1,0.19 -0.1,0.19 -0.1,0.18 -0.1,0.18 -0.1,0.18 -0.1,0.18 -0.1,0.17 -0.1,0.17 -0.2,0.16 -0.1,0.16 -0.2,0.15 -0.1,0.15 -0.2,0.14 -0.2,0.14 -0.1,0.13 -0.2,0.12 -0.2,0.11 -0.2,0.11 -0.3,0.1 -0.2,0.09 -0.2,0.08 -0.3,0.07 -0.2,0.06 -0.3,0.06 -0.3,0.04 -0.2,0.02 -0.3,0.02 -0.3,0.01 0.1,-0.99 c 3.4,0 4.5,-2.64 4.5,-4.73 0,-2.33 -2.3,-9.75 -8.1,-9.75 l 0,0 c -3.9,0 -4.4,2.95 -4.4,4.03 0,1.36 0.9,4.78 1.3,5.66 0.6,1.59 2.8,4.79 6.7,4.79 l -0.1,0.99 c -4.9,0 -8.9,-3.66 -10.2,-6.8 -0.2,-0.59 -0.7,-2.01 -0.7,-3.42 0,-2.39 1.9,-6.37 7.3,-6.37 9,0 12.7,11.26 12.7,16.2 0,5.97 -3.9,9.37 -8.6,9.37 -5.7,0 -7.2,-4.53 -7.2,-5.61 0,-0.28 0.1,-1.25 1.4,-1.25 1.2,0 1.9,1.08 1.9,1.93 0,0.93 -0.7,1.25 -1.3,1.31 1.7,2.62 4.6,2.62 5.1,2.62 2.7,0 5.8,-1.64 5.8,-6.59 0,-1.5 -0.2,-2.72 -0.9,-5.5 z"
           inkscape:connector-curvature="0"
           style="fill:#000000;stroke-width:0" /><path
           id="path4234"
           d="m 1409.1,391.77 -0.1,-0.12 0,-0.11 0,-0.12 -0.1,-0.12 0,-0.13 -0.1,-0.12 -0.1,-0.13 0,-0.13 -0.1,-0.13 -0.1,-0.12 -0.1,-0.13 0,-0.13 -0.1,-0.12 -0.1,-0.13 -0.1,-0.12 -0.1,-0.12 -0.1,-0.11 -0.1,-0.11 -0.2,-0.11 -0.1,-0.1 -0.1,-0.09 -0.1,-0.09 -0.2,-0.09 -0.1,-0.07 -0.1,-0.07 -0.2,-0.06 -0.1,-0.06 -0.2,-0.04 -0.1,-0.04 -0.2,-0.03 -0.1,-0.01 -0.2,-0.01 c -0.1,0 -1.1,0 -1.9,0.49 1.4,0.45 1.5,1.72 1.5,1.92 0,0.77 -0.6,1.3 -1.3,1.3 -1,0 -2,-0.85 -2,-2.14 0,-1.74 1.9,-2.54 3.6,-2.54 1.6,0 3.1,1 3.9,2.47 0.9,-1.84 2.8,-2.47 4.2,-2.47 4,0 6.1,4.35 6.1,5.33 0,0.46 -0.4,0.46 -0.6,0.46 -0.4,0 -0.5,-0.18 -0.6,-0.6 -0.7,-2.4 -2.8,-4.22 -4.8,-4.22 -1.4,0 -2.1,0.94 -2.1,2.27 0,0.91 0.8,4.08 1.8,7.95 0.7,2.67 2.3,3.55 3.4,3.55 0.1,0 1.2,0 1.9,-0.49 -1.1,-0.31 -1.5,-1.29 -1.5,-1.92 0,-0.76 0.6,-1.28 1.4,-1.28 0.8,0 1.9,0.66 1.9,2.13 0,1.95 -2.2,2.53 -3.6,2.53 -1.8,0 -3.2,-1.14 -3.9,-2.47 -0.6,1.44 -2.2,2.47 -4.2,2.47 -3.9,0 -6.1,-4.28 -6.1,-5.33 0,-0.45 0.5,-0.45 0.6,-0.45 0.4,0 0.4,0.14 0.6,0.59 0.9,2.72 3.1,4.22 4.8,4.22 1.2,0 2.1,-0.63 2.1,-2.3 0,-0.7 -0.4,-2.44 -0.7,-3.62 z"
           inkscape:connector-curvature="0"
           style="fill:#000000;stroke-width:0" /><path
           id="path4236"
           d="m 1438.3,402.1 0,1.1 -3.1,0 0,10.96 c 0,0.6 0,0.74 -0.7,0.74 -0.5,0 -0.5,-0.02 -0.8,-0.38 l -9.2,-11.32 0,-1.1 8.3,0 0.2,1.1 -7.3,0 7.3,9.01 0,-9.01 -0.2,-1.1 0,-1.94 c 0,-0.78 0,-1.03 -2.1,-1.03 l -0.9,0 0,-1.09 c 1.2,0.05 2.8,0.09 4.2,0.09 1.5,0 3.1,-0.04 4.3,-0.09 l 0,1.09 -0.9,0 c -2.2,0 -2.2,0.25 -2.2,1.03 l 0,1.94 z"
           inkscape:connector-curvature="0"
           style="fill:#000000;stroke-width:0" /><path
           id="path4238"
           d="m 1500.2,421.54 0.1,0 0.1,0 0.2,0 0.1,0.01 0,0 0.1,0.01 0.1,0.01 0,0.01 0.1,0.01 0.1,0.01 0,0.02 0.1,0.02 0.1,0.02 0,0.02 0.1,0.03 0,0.03 0.1,0.04 0.1,0.03 0,0.05 0,0.04 0.1,0.05 0,0.03 0,0.02 0,0.03 0,0.03 0.1,0.03 0,0.04 0,0.03 0,0.03 0,0.04 0,0.04 0,0.04 0,0.04 0,0.04 0,0.04 0,0.04 0,0.05 c 0,1 -0.9,1 -1.6,1 l -29.8,0 c -0.7,0 -1.7,0 -1.7,-1 0,-0.98 1,-0.98 1.7,-0.98 z"
           inkscape:connector-curvature="0"
           style="fill:#000000;stroke-width:0" /><path
           id="path4240"
           d="m 1500.2,411.86 0.1,0 0,0 0.2,0 0.1,0.01 0.1,0 0,0.01 0.1,0.01 0.1,0 0.1,0.01 0,0.02 0.1,0.01 0.1,0.02 0,0.02 0.1,0.02 0,0.02 0.1,0.03 0.1,0.03 0,0.04 0.1,0.04 0,0.04 0,0.04 0.1,0.03 0,0.02 0,0.03 0,0.03 0,0.03 0,0.03 0.1,0.03 0,0.03 0,0.04 0,0.03 0,0.04 0,0.04 0,0.04 0,0.04 0,0.04 0,0.04 0,0.05 0,0.04 c 0,1 -0.9,1 -1.6,1 l -29.8,0 c -0.7,0 -1.7,0 -1.7,-1 0,-1 1,-1 1.7,-1 z"
           inkscape:connector-curvature="0"
           style="fill:#000000;stroke-width:0" /><path
           id="path4242"
           d="m 1541.4,421.18 0,0.74 0,0.75 0,0.75 -0.1,0.74 0,0.75 -0.1,0.74 0,0.74 -0.1,0.73 -0.2,0.73 -0.1,0.73 -0.2,0.72 -0.1,0.72 -0.3,0.71 -0.2,0.71 -0.3,0.7 -0.1,0.35 -0.2,0.34 c -2.3,4.8 -6.4,5.6 -8.5,5.6 -3,0 -6.6,-1.3 -8.6,-5.94 -1.6,-3.44 -1.9,-7.33 -1.9,-11.31 0,-3.74 0.2,-8.22 2.3,-12 2.1,-4.04 5.7,-5.04 8.2,-5.04 l 0,1.1 c -2,0 -4.9,1.25 -5.8,6.03 -0.5,2.98 -0.5,7.56 -0.5,10.52 0,3.18 0,6.46 0.4,9.15 0.9,5.94 4.6,6.38 5.9,6.38 1.6,0 4.9,-0.89 5.9,-5.83 0.5,-2.78 0.5,-6.58 0.5,-9.7 0,-3.75 0,-7.13 -0.6,-10.32 -0.7,-4.73 -3.6,-6.23 -5.8,-6.23 l 0,0 0,-1.1 c 2.7,0 6.4,1.05 8.7,5.79 1.6,3.43 1.8,7.31 1.8,11.25 z"
           inkscape:connector-curvature="0"
           style="fill:#000000;stroke-width:0" /></g>    </g>
  </g>
</svg>
