<?xml version="1.0" encoding="UTF-8" standalone="no"?>
<svg
   xmlns:dc="http://purl.org/dc/elements/1.1/"
   xmlns:cc="http://creativecommons.org/ns#"
   xmlns:rdf="http://www.w3.org/1999/02/22-rdf-syntax-ns#"
   xmlns:svg="http://www.w3.org/2000/svg"
   xmlns="http://www.w3.org/2000/svg"
   version="1.1"
   id="svg2"
   viewBox="0 0 63.833533 57.410971"
   height="16.202652mm"
   width="18.015242mm">
  <defs
     id="defs4" />
  <metadata
     id="metadata7">
    <rdf:RDF>
      <cc:Work
         rdf:about="">
        <dc:format>image/svg+xml</dc:format>
        <dc:type
           rdf:resource="http://purl.org/dc/dcmitype/StillImage" />
        <dc:title></dc:title>
      </cc:Work>
    </rdf:RDF>
  </metadata>
  <g
     transform="translate(-70.07736,-214.3622)"
     id="layer1">
    <path
       id="path4138"
       d="m 100,227.3622 c 0,0 0,-12.5 12.5,-12.5 12.5,0 12.5,12.5 12.5,12.5 0,0 0.70543,9.86435 -8.5,12.5 0,0 13.00843,7.1502 6.96254,20.89275 -5.25912,11.9542 -16.2532,10.35725 -27.635656,10.35725 -13.578841,0 -21.076884,-12.10333 -21.076884,-18.45348 0,-12.5 -9.620258,-17.9253 0.369493,-13.35529 4.040784,1.84854 8.308751,1.47131 12.380507,0.55877 4.071756,-0.91254 8.531434,-3.60217 10.303623,-6.46963 C 99.575813,230.52511 100,227.3622 100,227.3622 Z"
       style="fill:none;fill-rule:evenodd;stroke:#000000;stroke-width:1px;stroke-linecap:butt;stroke-linejoin:miter;stroke-opacity:1" />
    <path
       id="path4159"
       d="m 125,227.3622 8.32007,-0.17875 c 0,0 -1.04907,6.3938 -9.85914,6.38165"
       style="fill:none;fill-rule:evenodd;stroke:#000000;stroke-width:1px;stroke-linecap:butt;stroke-linejoin:miter;stroke-opacity:1" />
    <circle
       r="1.874929"
       cy="223.61288"
       cx="117.27027"
       id="path4161"
       style="color:#000000;clip-rule:nonzero;display:inline;overflow:visible;visibility:visible;opacity:1;isolation:auto;mix-blend-mode:normal;color-interpolation:sRGB;color-interpolation-filters:linearRGB;solid-color:#000000;solid-opacity:1;fill:#000000;fill-opacity:1;fill-rule:nonzero;stroke:#000000;stroke-width:1.31217647;stroke-linecap:butt;stroke-linejoin:miter;stroke-miterlimit:4;stroke-dasharray:none;stroke-dashoffset:0;stroke-opacity:1;color-rendering:auto;image-rendering:auto;shape-rendering:auto;text-rendering:auto;enable-background:accumulate" />
  </g>
</svg>
