<?xml version="1.0" encoding="UTF-8" standalone="no"?>
<svg
   xmlns:dc="http://purl.org/dc/elements/1.1/"
   xmlns:cc="http://creativecommons.org/ns#"
   xmlns:rdf="http://www.w3.org/1999/02/22-rdf-syntax-ns#"
   xmlns:svg="http://www.w3.org/2000/svg"
   xmlns="http://www.w3.org/2000/svg"
   version="1.1"
   id="svg2"
   fill-opacity=".8"
   stroke="#777"
   height="128"
   width="128">
  <metadata
     id="metadata20">
    <rdf:RDF>
      <cc:Work
         rdf:about="">
        <dc:format>image/svg+xml</dc:format>
        <dc:type
           rdf:resource="http://purl.org/dc/dcmitype/StillImage" />
        <dc:title></dc:title>
      </cc:Work>
    </rdf:RDF>
  </metadata>
  <defs
     id="defs18" />
  <path
     id="path4"
     d="m63,1a63,63 0 1,0 2,0zm0,14a49,49 0 1,0 2,0zm0,14a35,35 0 1,0 2,0zm0,14a21,21 0 1,0 2,0zm0,14a7,7 0 1,0 2,0zm64,7H1m108-45-90,90m90,0-90-90m45-18v126"
     fill="#FFF" />
  <path
     id="path6"
     d="m50,8-20,10 68,92 10-10L64,64z"
     fill="#F60" />
  <path
     id="path8"
     d="m17,50v28L64,64z"
     fill="#FC0" />
  <path
     id="path10"
     d="m64,64 6,35H58z"
     fill="#7F7" />
  <path
     id="path12"
     d="m64,64 13-40 9,5z"
     fill="#CF3" />
  <path
     id="path14"
     d="m64,64 14-6 1,4zl-26,13 3,4z"
     fill="#04F" />
</svg>
