<?xml version="1.0" encoding="UTF-8" standalone="no"?>
<svg
   xmlns:dc="http://purl.org/dc/elements/1.1/"
   xmlns:cc="http://creativecommons.org/ns#"
   xmlns:rdf="http://www.w3.org/1999/02/22-rdf-syntax-ns#"
   xmlns:svg="http://www.w3.org/2000/svg"
   xmlns="http://www.w3.org/2000/svg"
   xmlns:xlink="http://www.w3.org/1999/xlink"
   height="181.87573pt"
   width="165.27406pt"
   id="svg2"
   version="1.0">
  <metadata
     id="metadata371">
    <rdf:RDF>
      <cc:Work
         rdf:about="">
        <dc:format>image/svg+xml</dc:format>
        <dc:type
           rdf:resource="http://purl.org/dc/dcmitype/StillImage" />
        <dc:title></dc:title>
      </cc:Work>
    </rdf:RDF>
  </metadata>
  <defs
     id="defs4">
    <linearGradient
       id="linearGradient4221">
      <stop
         id="stop4223"
         offset="0"
         style="stop-color:#85d45a;stop-opacity:1" />
      <stop
         id="stop4225"
         offset="1"
         style="stop-color:#5ba434;stop-opacity:1" />
    </linearGradient>
    <linearGradient
       id="linearGradient4689">
      <stop
         style="stop-color:#5a9fd4;stop-opacity:1;"
         offset="0"
         id="stop4215" />
      <stop
         style="stop-color:#306998;stop-opacity:1;"
         offset="1"
         id="stop4217" />
    </linearGradient>
    <linearGradient
       id="linearGradient2795">
      <stop
         id="stop2797"
         offset="0"
         style="stop-color:#b8b8b8;stop-opacity:0.49803922;" />
      <stop
         id="stop2799"
         offset="1"
         style="stop-color:#7f7f7f;stop-opacity:0;" />
    </linearGradient>
    <linearGradient
       id="linearGradient2787">
      <stop
         id="stop2789"
         offset="0"
         style="stop-color:#7f7f7f;stop-opacity:0.5;" />
      <stop
         id="stop2791"
         offset="1"
         style="stop-color:#7f7f7f;stop-opacity:0;" />
    </linearGradient>
    <linearGradient
       id="linearGradient3676">
      <stop
         id="stop3678"
         offset="0"
         style="stop-color:#b2b2b2;stop-opacity:0.5;" />
      <stop
         id="stop3680"
         offset="1"
         style="stop-color:#b3b3b3;stop-opacity:0;" />
    </linearGradient>
    <linearGradient
       id="linearGradient3236">
      <stop
         id="stop3244"
         offset="0"
         style="stop-color:#f4f4f4;stop-opacity:1" />
      <stop
         id="stop3240"
         offset="1"
         style="stop-color:white;stop-opacity:1" />
    </linearGradient>
    <linearGradient
       id="linearGradient4671">
      <stop
         id="stop4673"
         offset="0"
         style="stop-color:#ffd43b;stop-opacity:1;" />
      <stop
         id="stop4675"
         offset="1"
         style="stop-color:#ffe873;stop-opacity:1" />
    </linearGradient>
    <linearGradient
       id="linearGradient4219">
      <stop
         id="stop4691"
         offset="0"
         style="stop-color:#5a9fd4;stop-opacity:1;" />
      <stop
         id="stop4693"
         offset="1"
         style="stop-color:#306998;stop-opacity:1;" />
    </linearGradient>
    <linearGradient
       gradientTransform="translate(100.2702,99.61116)"
       gradientUnits="userSpaceOnUse"
       xlink:href="#linearGradient4671"
       id="linearGradient2987"
       y2="144.75717"
       x2="-65.308502"
       y1="144.75717"
       x1="224.23996" />
    <linearGradient
       gradientTransform="translate(100.2702,99.61116)"
       gradientUnits="userSpaceOnUse"
       xlink:href="#linearGradient4689"
       id="linearGradient2990"
       y2="76.313133"
       x2="26.670298"
       y1="77.475983"
       x1="172.94208" />
    <linearGradient
       y2="76.313133"
       x2="26.670298"
       y1="77.475983"
       x1="172.94208"
       gradientTransform="translate(100.2702,99.61116)"
       gradientUnits="userSpaceOnUse"
       id="linearGradient2587"
       xlink:href="#linearGradient4689" />
    <linearGradient
       y2="144.75717"
       x2="-65.308502"
       y1="144.75717"
       x1="224.23996"
       gradientTransform="translate(100.2702,99.61116)"
       gradientUnits="userSpaceOnUse"
       id="linearGradient2589"
       xlink:href="#linearGradient4671" />
    <linearGradient
       y2="76.313133"
       x2="26.670298"
       y1="77.475983"
       x1="172.94208"
       gradientTransform="translate(100.2702,99.61116)"
       gradientUnits="userSpaceOnUse"
       id="linearGradient2248"
       xlink:href="#linearGradient4689" />
    <linearGradient
       y2="144.75717"
       x2="-65.308502"
       y1="144.75717"
       x1="224.23996"
       gradientTransform="translate(100.2702,99.61116)"
       gradientUnits="userSpaceOnUse"
       id="linearGradient2250"
       xlink:href="#linearGradient4671" />
    <linearGradient
       y2="144.75717"
       x2="-65.308502"
       y1="144.75717"
       x1="224.23996"
       gradientTransform="matrix(0.562541,0,0,0.567972,-11.5974,-7.60954)"
       gradientUnits="userSpaceOnUse"
       id="linearGradient2255"
       xlink:href="#linearGradient4671" />
    <linearGradient
       y2="76.313133"
       x2="26.670298"
       y1="76.176224"
       x1="172.94208"
       gradientTransform="matrix(0.562541,0,0,0.567972,-11.5974,-7.60954)"
       gradientUnits="userSpaceOnUse"
       id="linearGradient2258"
       xlink:href="#linearGradient4689" />
    <radialGradient
       gradientUnits="userSpaceOnUse"
       gradientTransform="matrix(1,0,0,0.177966,0,108.7434)"
       r="29.036913"
       fy="132.28575"
       fx="61.518883"
       cy="132.28575"
       cx="61.518883"
       id="radialGradient2801"
       xlink:href="#linearGradient2795" />
    <linearGradient
       y2="137.27299"
       x2="112.03144"
       y1="192.35176"
       x1="150.96111"
       gradientTransform="matrix(0.562541,0,0,0.567972,-14.99112,80.974196)"
       gradientUnits="userSpaceOnUse"
       id="linearGradient1475"
       xlink:href="#linearGradient4671" />
    <linearGradient
       y2="114.39767"
       x2="135.66525"
       y1="20.603781"
       x1="26.648937"
       gradientTransform="matrix(0.562541,0,0,0.567972,-14.99112,80.974196)"
       gradientUnits="userSpaceOnUse"
       id="linearGradient1478"
       xlink:href="#linearGradient4219" />
    <radialGradient
       r="29.036913"
       fy="132.28575"
       fx="61.518883"
       cy="132.28575"
       cx="61.518883"
       gradientTransform="matrix(1.7490565e-8,-0.23994696,1.054668,3.7915457e-7,-83.700799,235.13858)"
       gradientUnits="userSpaceOnUse"
       id="radialGradient1480"
       xlink:href="#linearGradient2795" />
    <linearGradient
       y2="114.85567"
       x2="179.6288"
       y1="77.890295"
       x1="124.41061"
       gradientTransform="matrix(0.46383215,-0.31829564,0.3213686,0.46831017,81.312406,65.735464)"
       gradientUnits="userSpaceOnUse"
       id="linearGradient4188"
       xlink:href="#linearGradient4221" />
  </defs>
  <path
     id="path1948"
     d="m 54.918785,92.677486 c -4.583653,0.0213 -8.960939,0.412218 -12.8125,1.09375 -11.346216,2.004504 -13.406249,6.200102 -13.40625,13.937504 l 0,10.21875 26.8125,0 0,3.40625 -26.8125,0 -10.0625,0 c -7.792459,0 -14.6157588,4.68371 -16.7499998,13.59375 -2.46181998,10.21296 -2.57101508,16.58602 0,27.25 1.9059283,7.93785 6.4575432,13.59374 14.2499998,13.59375 l 9.21875,0 0,-12.25 c 0,-8.84991 7.657144,-16.65625 16.75,-16.65625 l 26.78125,0 c 7.454951,0 13.406253,-6.13817 13.40625,-13.625 l 0,-25.53125 c 0,-7.26634 -6.12998,-12.724781 -13.40625,-13.937504 -4.605987,-0.766725 -9.385097,-1.115048 -13.96875,-1.09375 z m -14.5,8.218754 c 2.769547,0 5.03125,2.29864 5.03125,5.125 -2e-6,2.81633 -2.261703,5.09375 -5.03125,5.09375 -2.779476,0 -5.03125,-2.27742 -5.03125,-5.09375 -10e-7,-2.82636 2.251774,-5.125 5.03125,-5.125 z"
     style="fill:url(#linearGradient1478);fill-opacity:1.0" />
  <path
     id="path1950"
     d="m 85.637535,121.33374 0,11.90625 c 0,9.23075 -7.825895,17 -16.75,17 l -26.78125,0 c -7.335833,0 -13.406249,6.27848 -13.40625,13.625 l 0,25.53124 c 0,7.26635 6.318588,11.54033 13.40625,13.62501 8.487331,2.49561 16.626237,2.94663 26.78125,0 6.750155,-1.95439 13.406253,-5.88761 13.40625,-13.62501 l 0,-10.21874 -26.78125,0 0,-3.40625 26.78125,0 13.406254,0 c 7.792461,0 10.696251,-5.43541 13.406241,-13.59375 2.79933,-8.39889 2.68022,-16.47578 0,-27.25 -1.92578,-7.75744 -5.60387,-13.59375 -13.406241,-13.59375 l -10.062504,0 z m -15.0625,64.65625 c 2.779478,0 5.03125,2.27741 5.03125,5.09374 -2e-6,2.82636 -2.251775,5.12501 -5.03125,5.12501 -2.76955,0 -5.03125,-2.29865 -5.03125,-5.12501 2e-6,-2.81633 2.261697,-5.09374 5.03125,-5.09374 z"
     style="fill:url(#linearGradient1475);fill-opacity:1" />
  <ellipse
     ry="6.9673119"
     rx="35.930977"
     cy="220.37735"
     cx="55.816761"
     id="path1894"
     style="opacity:0.44382025;fill:url(#radialGradient1480);fill-opacity:1;fill-rule:nonzero;stroke:none;stroke-width:20;stroke-miterlimit:4;stroke-dasharray:none;stroke-opacity:1" />
  <path
     id="path1948-7"
     d="m 145.57718,35.82892 c -3.7673,2.611072 -7.15532,5.410144 -9.94543,8.151369 -8.22112,8.072666 -7.54573,12.697665 -3.16777,19.077385 l 5.78195,8.42567 22.10772,-15.170986 1.92731,2.808556 -22.10772,15.170987 -8.29684,5.69354 c -6.42512,4.409112 -9.401,12.131722 -6.1193,20.685909 3.74884,9.81384 7.26479,15.13041 15.41854,22.46845 6.06287,5.46659 13.01602,7.55467 19.44114,3.14556 l 7.60114,-5.21613 -6.93127,-10.1005 c -5.00743,-7.29701 -3.11085,-18.066128 4.38648,-23.211031 l 22.08196,-15.153305 c 6.14683,-4.218142 7.58078,-12.646596 3.34459,-18.819719 L 176.65365,32.733383 c -4.11142,-5.991317 -12.25426,-7.023514 -18.93994,-3.906399 -4.23161,1.973963 -8.36922,4.390865 -12.13653,7.001936 z m -7.30537,14.980965 c 2.28358,-1.56706 5.44903,-0.951467 7.04823,1.378948 1.59354,2.322155 1.0173,5.479662 -1.26628,7.046722 -2.29177,1.572678 -5.43702,0.968972 -7.03055,-1.353182 -1.59921,-2.330413 -1.04317,-5.499809 1.2486,-7.072488 z"
     style="fill:url(#linearGradient4188);fill-opacity:1" />
  <text
     id="text4190"
     y="27.929688"
     x="185.83086"
     style="font-style:normal;font-weight:normal;font-size:40px;line-height:125%;font-family:sans-serif;letter-spacing:0px;word-spacing:0px;fill:#000000;fill-opacity:1;stroke:none;stroke-width:1px;stroke-linecap:butt;stroke-linejoin:miter;stroke-opacity:1"
     xml:space="preserve"><tspan
       style="font-style:normal;font-variant:normal;font-weight:normal;font-stretch:normal;font-family:'Liberation Sans';-inkscape-font-specification:'Liberation Sans';fill:#808080;fill-opacity:1"
       y="27.929688"
       x="185.83086"
       id="tspan4192">?</tspan></text>
</svg>
