<?xml version="1.0" encoding="UTF-8" standalone="no"?>
<!-- Created with Inkscape (http://www.inkscape.org/) -->

<svg
   xmlns:dc="http://purl.org/dc/elements/1.1/"
   xmlns:cc="http://creativecommons.org/ns#"
   xmlns:rdf="http://www.w3.org/1999/02/22-rdf-syntax-ns#"
   xmlns:svg="http://www.w3.org/2000/svg"
   xmlns="http://www.w3.org/2000/svg"
   xmlns:xlink="http://www.w3.org/1999/xlink"
   xmlns:sodipodi="http://sodipodi.sourceforge.net/DTD/sodipodi-0.dtd"
   xmlns:inkscape="http://www.inkscape.org/namespaces/inkscape"
   version="1.1"
   width="705.63"
   height="455.73297"
   id="svg_SympyLogo"
   inkscape:version="0.91 r"
   sodipodi:docname="SymPy-logo-notext.svg">
  <sodipodi:namedview
     pagecolor="#ffffff"
     bordercolor="#666666"
     borderopacity="1"
     objecttolerance="10"
     gridtolerance="10"
     guidetolerance="10"
     inkscape:pageopacity="0"
     inkscape:pageshadow="2"
     inkscape:window-width="742"
     inkscape:window-height="480"
     id="namedview98"
     showgrid="false"
     fit-margin-top="0"
     fit-margin-left="0"
     fit-margin-right="0"
     fit-margin-bottom="0"
     inkscape:zoom="0.31466667"
     inkscape:cx="354.16789"
     inkscape:cy="140.68921"
     inkscape:window-x="0"
     inkscape:window-y="0"
     inkscape:window-maximized="0"
     inkscape:current-layer="svg_SympyLogo" />
  <title
     id="title3248">SymPy Logo, with tail.</title>
  <desc
     id="desc3250">
I created this logo and permit its free use on the same terms as the rest of Sympy's code and documentation.

Fredrik Johansson
   </desc>
  <defs
     id="defs3252">
    <linearGradient
       id="linearGradient51087">
      <stop
         id="stop51089"
         style="stop-color:#ffffff;stop-opacity:1"
         offset="0" />
      <stop
         id="stop51091"
         style="stop-color:#ffffff;stop-opacity:0"
         offset="1" />
    </linearGradient>
    <linearGradient
       x1="123.53376"
       y1="182.21277"
       x2="43.330002"
       y2="182.21277"
       id="linearGradient56927"
       xlink:href="#linearGradient51087"
       gradientUnits="userSpaceOnUse" />
    <mask
       id="Mask">
      <rect
         width="81.202515"
         height="185.81773"
         x="43.331245"
         y="182.21277"
         id="rect3259"
         style="fill:url(#linearGradient56927)" />
      <rect
         width="800"
         height="800"
         x="123.53376"
         y="0"
         id="rect3261"
         style="fill:#ffffff" />
    </mask>
  </defs>
  <metadata
     id="metadata7">
    <rdf:RDF>
      <cc:Work
         rdf:about="">
        <dc:format>image/svg+xml</dc:format>
        <dc:type
           rdf:resource="http://purl.org/dc/dcmitype/StillImage" />
        <dc:title>SymPy Logo, with tail.</dc:title>
      </cc:Work>
    </rdf:RDF>
  </metadata>
  <g
     id="SnakeTail"
     mask="url(#Mask)"
     transform="translate(-27.832106,-49.95625)">
    <g
       style="display:inline"
       id="layer1">
      <path
         inkscape:connector-curvature="0"
         style="fill:#72ba45;fill-opacity:1;fill-rule:evenodd;stroke:#293720;stroke-width:8;stroke-linecap:butt;stroke-linejoin:miter;stroke-miterlimit:4;stroke-dasharray:none;stroke-opacity:1"
         id="path3272"
         d="m 170.92127,334.28345 c 0,0 -17.6669,-10.23477 -40.08013,-15.97623 -22.41323,-5.74146 -26.89588,-4.24368 -49.572798,-6.9896 -22.676918,-2.74591 -41.134874,-3.99406 -41.134874,-3.99406 l -1.054741,-78.88265 c 0,0 33.080135,3.74442 59.448643,7.98811 26.36851,4.24369 27.92691,4.49332 46.02539,8.98664 18.09848,4.49332 26.36851,8.98663 26.36851,8.98663 l 0,79.88116 z" />
    </g>
    <path
       inkscape:connector-curvature="0"
       style="fill:#c7e06d;fill-opacity:1;fill-rule:evenodd;stroke:#c7e06d;stroke-width:8;stroke-linecap:butt;stroke-linejoin:miter;stroke-miterlimit:4;stroke-dasharray:none;stroke-opacity:0.53947371"
       id="path3274"
       d="m 162.55026,277.04847 c 0,0 -22.75,-10.26558 -55,-15.76434 -32.250008,-5.49875 -75.000008,-8.23067 -75.000008,-8.23067 l -0.5,-9.86285 c 0,0 44.5,2.0823 77.500008,7.03117 33,4.94888 53,12.76435 53,12.76435 l 0,14.06234 z" />
    <path
       inkscape:connector-curvature="0"
       style="fill:#2e642c;fill-opacity:1;fill-rule:evenodd;stroke:#000000;stroke-width:0;stroke-linecap:butt;stroke-linejoin:miter;stroke-miterlimit:4;stroke-dasharray:none;stroke-opacity:1"
       id="path3276"
       d="m 167.58579,331.03375 c 0,0 -13.25,-9.40357 -45.5,-16.0344 -32.250004,-6.63083 -84.914218,-8.38916 -84.914218,-8.38916 l 0.414214,-30.09115 c 0,0 44,0.91672 77.000004,6.88446 33,5.96775 52.5,13.91387 52.5,13.91387 l 0.5,33.71638 z" />
    <path
       inkscape:connector-curvature="0"
       style="fill:#4f873b;fill-opacity:1;fill-rule:evenodd;stroke:#000000;stroke-width:0;stroke-linecap:butt;stroke-linejoin:miter;stroke-miterlimit:4;stroke-dasharray:none;stroke-opacity:1"
       id="path3278"
       d="m 167.20711,314.61954 c 0,0 -13.25,-10.29864 -45.5,-14.74006 -32.25,-4.44143 -84.914219,-5.61918 -84.914219,-5.61918 l 0.414214,-20.15547 c 0,0 44.000005,3.61403 77.000005,7.61131 33,3.99728 52.5,14.3197 52.5,14.3197 l 0.5,18.5837 z" />
    <g
       style="opacity:0.647343"
       id="TailSpots">
      <path
         inkscape:connector-curvature="0"
         style="display:inline;opacity:0.5;fill:#3b4f87;fill-opacity:1;stroke:#066506;stroke-width:8;stroke-linejoin:bevel;stroke-miterlimit:4;stroke-dasharray:none;stroke-opacity:1"
         id="path5172"
         transform="translate(6.1263726,4.9387864)"
         d="m 151.32084,278.78738 a 16.970562,18.384775 0 1 1 -33.94112,0 16.970562,18.384775 0 1 1 33.94112,0 z" />
      <path
         inkscape:connector-curvature="0"
         style="display:inline;opacity:0.5;fill:#3b4f87;fill-opacity:1;stroke:#066506;stroke-width:8;stroke-linejoin:bevel;stroke-miterlimit:4;stroke-dasharray:none;stroke-opacity:1"
         id="path5174"
         transform="translate(6.1263726,4.9387864)"
         d="m 83.438599,268.88788 a 20.506096,21.213203 0 1 1 -41.012192,0 20.506096,21.213203 0 1 1 41.012192,0 z" />
    </g>
  </g>
  <g
     id="Cube"
     transform="translate(-27.832106,-49.95625)">
    <path
       inkscape:connector-curvature="0"
       style="fill:#decd85;fill-opacity:1;fill-rule:evenodd;stroke:#505050;stroke-width:8;stroke-linecap:butt;stroke-linejoin:miter;stroke-miterlimit:4;stroke-dasharray:none;stroke-opacity:0.61842107"
       id="path3284"
       d="m 172.63069,123.73147 200,60 0,270 -200,-60 0,-270 z" />
    <path
       inkscape:connector-curvature="0"
       style="fill:#b9b083;fill-opacity:1;fill-rule:evenodd;stroke:#505050;stroke-width:8;stroke-linecap:butt;stroke-linejoin:miter;stroke-miterlimit:4;stroke-dasharray:none;stroke-opacity:1"
       id="path3286"
       d="m 572.63069,123.73147 -200,60 0,270 200,-60 0,-270 z" />
    <path
       inkscape:connector-curvature="0"
       style="fill:#eee5bd;fill-opacity:1;fill-rule:evenodd;stroke:#505050;stroke-width:8;stroke-linecap:butt;stroke-linejoin:bevel;stroke-miterlimit:4;stroke-dasharray:none;stroke-opacity:0.65789472"
       id="path3288"
       d="m 172.6305,123.73168 200,60 200,-60 -200,-69.999997 -200,69.999997 z" />
    <g
       id="g3290">
      <g
         style="font-style:normal;font-weight:normal;font-size:180px;fill:#897751;fill-opacity:1;stroke:none"
         id="text3292"
         transform="matrix(0.9140294,-0.3682282,-0.03940923,1.1099332,0,0)">
        <path
           inkscape:connector-curvature="0"
           id="path3404"
           d="m 472.43859,536 c -5.28002,-4e-5 -9.96002,-1.38003 -14.04,-4.14 -3.96001,-2.76003 -5.94001,-6.48003 -5.94,-11.16 -1e-5,-2.28002 0.71999,-4.08002 2.16,-5.4 1.55999,-1.32001 3.35999,-1.98001 5.4,-1.98 2.03998,-1e-5 3.77998,0.65999 5.22,1.98 1.55998,1.31998 2.33998,3.11998 2.34,5.4 -2e-5,2.15998 -0.66002,3.89998 -1.98,5.22 -1.32002,1.31997 -2.94002,2.09997 -4.86,2.34 3.11998,2.51997 7.01998,3.77997 11.7,3.78 11.63996,-3e-5 17.45996,-12.42002 17.46,-37.26 l 0,-115.56 c -4e-5,-11.03987 2.93995,-20.63986 8.82,-28.8 5.99994,-8.27984 13.85993,-12.41984 23.58,-12.42 5.27992,1.6e-4 9.89991,1.38016 13.86,4.14 4.07991,2.76016 6.1199,6.48015 6.12,11.16 -10e-5,2.40014 -0.7801,4.26014 -2.34,5.58 -1.44009,1.20014 -3.18009,1.80014 -5.22,1.8 -2.04009,1.4e-4 -3.84008,-0.59986 -5.4,-1.8 -1.44008,-1.31986 -2.16008,-3.17986 -2.16,-5.58 -8e-5,-2.15985 0.65992,-3.89985 1.98,-5.22 1.31992,-1.31985 2.93991,-2.09985 4.86,-2.34 -3.12008,-2.51984 -7.02008,-3.77984 -11.7,-3.78 -11.64006,1.6e-4 -17.46006,12.42015 -17.46,37.26 l 0,115.56 c -6e-5,11.03999 -3.00006,20.63998 -9,28.8 -5.88004,8.27997 -13.68004,12.41996 -23.4,12.42" />
      </g>
    </g>
    <g
       id="g3296">
      <g
         style="font-style:normal;font-weight:normal;font-size:110px;fill:#897751;fill-opacity:1;stroke:none"
         id="text3298"
         transform="matrix(0.8246541,-0.2574405,0,1.2126296,0,0)">
        <path
           inkscape:connector-curvature="0"
           id="path3407"
           d="m 612.97,400 0,-3.41 c -7.69999,0 -8.58,-0.77001 -8.58,-6.16 l 0,-66.77 -15.84,1.21 0,3.41 c 7.69999,0 8.58,0.77001 8.58,6.16 l 0,23.76 c -3.19,-3.96 -7.92001,-6.82 -13.86,-6.82 -12.97999,0 -24.53,10.78001 -24.53,24.97 0,13.96999 10.78001,24.86 23.32,24.86 7.03999,0 11.99,-3.74 14.74,-7.26 l 0,7.26 16.17,-1.21 M 596.8,387.02 c 0,1.98 0,2.2 -1.21,4.07 -3.3,5.27999 -8.25,7.7 -12.98,7.7 -4.95,0 -8.91,-2.86 -11.55,-7.04 -2.86,-4.51 -3.19,-10.78 -3.19,-15.29 0,-4.07 0.22,-10.67 3.41,-15.62 2.31,-3.41 6.49001,-7.04 12.43,-7.04 3.85,0 8.47,1.65 11.88,6.6 1.21,1.87 1.21,2.09 1.21,4.07 l 0,22.55" />
        <path
           inkscape:connector-curvature="0"
           style="font-style:italic"
           id="path3409"
           d="m 669.91047,384.27 c 0,-1.1 -0.88,-1.1 -1.65,-1.1 -1.32,0 -1.43,0.11 -1.98,1.87 -2.97,9.45999 -8.47001,13.75 -13.09,13.75 -2.2,0 -5.17,-1.32001 -5.17,-7.04 0,-2.64 1.21,-7.37 2.09,-11.11 l 3.74,-15.07 c 1.54,-5.71999 4.51,-11.77 9.68,-11.77 0.33,0 3.08,0 4.84,1.54 -4.4,1.1 -4.4,5.28 -4.4,5.28 0,1.43 0.99,3.52 3.85,3.52 1.98,0 5.39,-1.54 5.39,-5.83 0,-5.60999 -6.38,-6.93 -9.57,-6.93 -6.05,0 -9.68,5.39 -10.78,7.48 -2.42,-6.59999 -7.81,-7.48 -10.56,-7.48 -10.99999,0 -16.94,14.41 -16.94,16.94 0,1.1 1.1,1.1 1.65,1.1 1.43,0 1.43,-0.11 1.98,-1.87 2.97,-9.45999 8.69,-13.75 13.09,-13.75 3.19,0 5.28,2.53 5.28,6.93 0,2.64 -1.32,8.03 -2.31,12.1 l -2.53,10.01 c -1.76,7.14999 -4.07001,15.95 -10.67,15.95 -0.33,0 -2.97,0 -4.84,-1.54 3.3,-0.88 4.29,-3.63 4.29,-5.28 0,-2.86 -2.31,-3.52 -3.74,-3.52 -2.75,0 -5.5,2.31 -5.5,5.94 0,4.29 4.62,6.82 9.68,6.82 5.27999,0 8.91,-4.18 10.78,-7.48 2.2,6.26999 7.59,7.48 10.45,7.48 11.32999,0 16.94,-14.74 16.94,-16.94" />
      </g>
    </g>
    <g
       id="g3304">
      <g
         style="font-style:normal;font-weight:normal;font-size:244px;fill:#897751;fill-opacity:1;stroke:none"
         id="text3306"
         transform="matrix(0.8385983,0.2552685,0,1.192466,0,0)">
        <path
           inkscape:connector-curvature="0"
           id="path3412"
           d="m 403.169,201.40559 -6.1,0 c -4.392,40.74796 -20.98404,47.336 -59.292,47.336 l -67.344,0 61.244,-69.296 c 2.19599,-2.43999 2.196,-3.904 2.196,-3.904 0,-1.22 -0.976,-2.44 -1.708,-3.416 l -50.02,-72.223996 56.364,0 c 41.23596,0 53.436,8.784036 58.56,47.335996 l 6.1,0 -6.832,-54.899996 -135.42,0 c -5.856,0 -6.344,5e-6 -6.344,5.612 l 60.756,88.327996 -58.072,66.124 c -2.44,2.684 -2.44,3.172 -2.44,3.904 0,2.684 2.44,2.684 6.1,2.684 l 135.42,0 6.832,-57.584" />
      </g>
    </g>
    <g
       id="g3310">
      <g
         style="font-style:normal;font-weight:normal;font-size:50px;display:inline;fill:#9a8354;fill-opacity:1;stroke:none"
         id="text3312"
         transform="matrix(1.4265625,-0.3736626,1.32988,0.3526474,0,0)">
        <path
           inkscape:connector-curvature="0"
           style="font-weight:bold"
           id="path3415"
           d="m -40.3,292 0,-2.35 -7,0 0,-28.8 c 0,-1.1 -1e-6,-1.6 -1.3,-1.6 -0.549999,0 -0.65,0 -1.1,0.35 -3.849996,2.85 -9.000001,2.85 -10.05,2.85 l -1,0 0,2.35 1,0 c 0.799999,0 3.550003,-0.05 6.5,-1 l 0,25.85 -6.95,0 0,2.35 c 2.199998,-0.15 7.500002,-0.15 9.95,-0.15 2.449998,0 7.750002,0 9.95,0.15" />
        <path
           inkscape:connector-curvature="0"
           style="font-weight:bold"
           id="path3417"
           d="m 9.3015625,276.05 c 0,-4.85 -0.050012,-16.8 -12.1,-16.8 -12.0499875,0 -12.1000005,11.9 -12.1000005,16.8 0,4.95 0.05001,16.5 12.1000005,16.5 11.999988,0 12.1,-11.5 12.1,-16.5 m -6.4,-0.6 c 0,2.8 -3e-7,7.35 -0.35,9.95 -0.6999993,4.65 -3.8500015,5.35 -5.35,5.35 -1.7999982,0 -4.6000006,-1.1 -5.25,-4.75 -0.4499996,-2.6 -0.45,-7.8 -0.45,-10.55 0,-3.6 4e-7,-6.85 0.4,-9.45 0.5999994,-4.45 4.1000012,-4.95 5.3,-4.95 1.84999815,0 3.900001,0.95 4.85,3.15 0.8499992,1.85 0.85,7.15 0.85,11.25" />
        <path
           inkscape:connector-curvature="0"
           style="font-weight:bold"
           id="path3419"
           d="m -38.55,350.05 c 0,-4.85 -0.05001,-16.8 -12.1,-16.8 -12.049988,0 -12.1,11.9 -12.1,16.8 0,4.95 0.05001,16.5 12.1,16.5 11.999988,0 12.1,-11.5 12.1,-16.5 m -6.4,-0.6 c 0,2.8 0,7.35 -0.35,9.95 -0.699999,4.65 -3.850002,5.35 -5.35,5.35 -1.799998,0 -4.600001,-1.1 -5.25,-4.75 -0.45,-2.6 -0.45,-7.8 -0.45,-10.55 0,-3.6 0,-6.85 0.4,-9.45 0.599999,-4.45 4.100001,-4.95 5.3,-4.95 1.849998,0 3.900001,0.95 4.85,3.15 0.849999,1.85 0.85,7.15 0.85,11.25" />
        <path
           inkscape:connector-curvature="0"
           style="font-weight:bold"
           id="path3421"
           d="m 7.5515625,366 0,-2.35 -7,0 0,-28.8 c 0,-1.1 -1.3e-6,-1.6 -1.3,-1.6 -0.5499994,0 -0.6500005,0 -1.1,0.35 -3.8499961,2.85 -9.0000015,2.85 -10.0500005,2.85 l -1,0 0,2.35 1,0 c 0.8,0 3.5500034,-0.05 6.5000005,-1 l 0,25.85 -6.9499995,0 0,2.35 c 2.199997,-0.15 7.5000019,-0.15 9.9499995,-0.15 2.44999755,0 7.7500022,0 9.95,0.15" />
      </g>
    </g>
    <g
       style="display:inline"
       id="g3318"
       transform="matrix(0.7152743,-0.2134016,0.6667979,0.2013996,-410.97556,263.60616)">
      <g
         style="font-style:normal;font-weight:bold;font-size:160px;font-family:font-family;fill:#9a8354;fill-opacity:1;stroke:none"
         id="text3320"
         transform="matrix(0.6991488,0.00805929,0.01450938,1.4304778,0,0)">
        <path
           inkscape:connector-curvature="0"
           id="path3424"
           d="m 1136.88,240 0,-9.76 -16.64,0 0,-140.48 16.64,0 0,-9.76 -26.4,0 0,160 26.4,0" />
        <path
           inkscape:connector-curvature="0"
           id="path3426"
           d="m 1398.4,240 0,-160 -26.4,0 0,9.76 16.64,0 0,140.48 -16.64,0 0,9.76 26.4,0" />
      </g>
    </g>
  </g>
  <g
     id="g3326"
     transform="translate(-27.832106,-49.95625)">
    <g
       id="SnakeShadowOnCube">
      <path
         inkscape:connector-curvature="0"
         style="opacity:0.5;fill:#000000;fill-opacity:1;fill-rule:evenodd;stroke:#000000;stroke-width:1px;stroke-linecap:butt;stroke-linejoin:miter;stroke-opacity:1"
         id="path3329"
         d="m 361,258.36218 c -16.75,-14 62.75,3.25 90,12 27.25,8.75 43.25,17 60,31 11.33477,9.47384 24.42395,31.77646 26.49137,45.08194 0.98772,6.35675 5.31849,60.74691 -3.49137,57.91806 -1.06953,-0.34343 -30.58008,10.45047 -14.97959,4.11095 C 553.73372,394.36679 377.09258,271.8127 361,258.36218 Z" />
      <path
         inkscape:connector-curvature="0"
         style="opacity:0.5;fill:#000000;fill-opacity:1;fill-rule:evenodd;stroke:#000000;stroke-width:1.08229625px;stroke-linecap:butt;stroke-linejoin:miter;stroke-opacity:1"
         id="path3331"
         d="m 238.15783,193.79605 c -4.6711,41.77964 23.21085,78.9437 53.62131,101.28922 23.93562,17.76425 50.20176,35.46237 79.73433,38.66778 22.62966,-2.00055 51.60989,-4.88351 64.27626,19.81778 18.49993,14.19304 34.72971,-17.24671 22.16329,-32.73091 -20.50575,-31.161 -53.92626,-48.24665 -83.70721,-67.32708 -45.58322,-26.67745 -81.4267,-66.81777 -127.84568,-91.69958 -4.18445,5.4129 -6.45208,18.17567 -8.2423,31.98279 z" />
      <path
         inkscape:connector-curvature="0"
         style="opacity:0.5;fill:#000000;fill-opacity:1;fill-rule:evenodd;stroke:#000000;stroke-width:1px;stroke-linecap:butt;stroke-linejoin:miter;stroke-opacity:1"
         id="path3333"
         d="m 532,109.36218 c -54.43793,-2.20109 -110.70185,-3.89948 -162.71356,15.00701 -24.07729,7.59167 -46.17027,28.99154 -47.17492,55.31512 0.99907,10.79836 2.99194,21.11095 4.83219,31.77672 3.22089,12.79811 11.08139,24.30234 12.55466,37.50128 -5.68381,5.29372 -17.71713,-4.56965 -25.91182,-5.40461 -8.21075,-4.66608 -24.4249,-4.1548 -27.27405,-12.28927 3.22916,-31.96875 6.45834,-63.9375 9.6875,-95.90625 33.66667,-15.33333 67.33333,-30.66666 101,-45.999997 45,6.666668 90,13.333337 135,19.999997 z" />
    </g>
    <g
       id="SnakeBody">
      <path
         inkscape:connector-curvature="0"
         style="fill:#72ba45;fill-opacity:1;fill-rule:evenodd;stroke:#344829;stroke-width:8;stroke-linecap:butt;stroke-linejoin:round;stroke-miterlimit:4;stroke-dasharray:none;stroke-opacity:1"
         id="path3336"
         d="m 248.76738,444.18516 c -5.12947,-4.39883 -17.69479,-21.13307 -22.2545,-26.63224 -9.85802,-11.88911 5.44154,-3.3438 18.80805,-0.17505 38.31224,10.5211 82.08483,24.11202 120.35467,34.61487 21.39325,-1.75072 46.72259,-6.40242 64.08498,-20.29343 18.40328,-24.12475 22.83497,-59.44769 10.10528,-87.07301 -19.03525,-24.88418 -52.69045,-29.63012 -80.93694,-38.09533 -34.11995,-7.74274 -64.14645,-27.04835 -88.68612,-51.55904 -31.22122,-25.39248 -31.34681,-71.70204 -17.39928,-106.32974 8.15527,-27.74666 28.00887,-52.043346 55.78705,-61.613318 44.02385,-19.399692 92.7684,-22.2495 140.17657,-19.602942 45.6465,2.044748 91.17091,10.306448 133.40139,28.133935 19.52665,7.871435 35.51289,8.143605 56.87645,4.457025 10.85708,3.85097 23.3021,9.7053 29.78305,16.19099 11.74284,11.75143 18.03434,32.84682 28.66856,45.22551 20.13161,22.85063 -10.35476,50.69262 -34.5927,36.82391 -24.51302,-7.42788 -59.27977,-0.93786 -71.11851,-30.09578 -5.65189,-15.94435 -18.44611,-20.32276 -17.83234,-40.59718 -15.55356,-14.81994 -42.92172,-17.18441 -63.17764,-20.58093 -59.99385,-9.001939 -126.86123,-11.640898 -180.37543,21.95856 -22.55209,13.85073 -36.06769,46.78551 -20.63639,70.2983 19.62962,19.3369 49.71097,19.97355 74.76058,28.00809 48.57379,11.07831 101.24422,28.80981 128.59833,73.79792 14.28665,23.12036 14.07072,51.74151 15.90426,78.0563 1.09817,41.76119 -11.00848,80.01368 -55.88599,107.91201 -46.93252,20.14123 -87.03848,16.76304 -130.53624,6.69765 -37.84847,-9.04751 -63.90374,-20.80423 -93.87714,-49.52708 z" />
      <path
         inkscape:connector-curvature="0"
         style="opacity:0.5;fill:#000000;fill-opacity:1;stroke:#505050;stroke-width:6;stroke-linejoin:round;stroke-miterlimit:4;stroke-dasharray:none;stroke-opacity:1"
         id="path3338"
         transform="translate(-3.5147186,12.242641)"
         d="m 646.2956,162.82185 a 6.3639612,5.6568542 0 1 1 -12.72792,0 6.3639612,5.6568542 0 1 1 12.72792,0 z" />
      <path
         inkscape:connector-curvature="0"
         style="opacity:0.5;fill:#000000;fill-opacity:1;stroke:#505050;stroke-width:6;stroke-linejoin:round;stroke-miterlimit:4;stroke-dasharray:none;stroke-opacity:1"
         id="path3340"
         transform="translate(-7.7573593,6.5857864)"
         d="m 674.57984,131.00204 a 6.3639612,6.3639612 0 1 1 -12.72792,0 6.3639612,6.3639612 0 1 1 12.72792,0 z" />
      <path
         inkscape:connector-curvature="0"
         style="fill:none;stroke:#9d2020;stroke-width:6;stroke-linecap:butt;stroke-linejoin:miter;stroke-miterlimit:4;stroke-dasharray:none;stroke-opacity:1"
         id="path3342"
         d="m 699.68521,195.61348 c 4.40722,5.24471 6.64759,11.31371 16.97056,11.31371 0.84379,4.21894 0,9.73869 0,14.14214" />
      <path
         inkscape:connector-curvature="0"
         style="fill:none;stroke:#9d2020;stroke-width:6;stroke-linecap:butt;stroke-linejoin:miter;stroke-miterlimit:4;stroke-dasharray:none;stroke-opacity:1"
         id="path3344"
         d="m 716.49156,206.93455 c 0.0183,0.0914 11.9877,0 16.97056,0" />
    </g>
    <g
       id="SnakeShadowsOnHimself">
      <path
         inkscape:connector-curvature="0"
         style="fill:#2e642c;fill-opacity:1;fill-rule:evenodd;stroke:#000000;stroke-width:0;stroke-linecap:butt;stroke-linejoin:miter;stroke-miterlimit:4;stroke-dasharray:none;stroke-opacity:1"
         id="path3347"
         d="m 247.06512,201.86764 c 1.23552,14.8792 3.85173,27.33542 12.41152,38.68717 15.44547,20.48333 35.43746,36.04792 58.92937,48.49625 9.53528,5.05273 21.87191,9.3161 32.16339,12.16067 29.3203,8.85585 63.59133,15.44236 86.94409,37.54982 16.69756,19.60154 -1.21302,-17.27368 -16.59063,-28.92819 -42.86834,-32.4894 -105.80462,-26.42057 -145.42419,-65.61546 -11.29779,-12.05426 -22.1684,-27.17504 -28.43355,-42.35026 z" />
      <path
         inkscape:connector-curvature="0"
         style="fill:#2e642c;fill-opacity:1;fill-rule:evenodd;stroke:#000000;stroke-width:0;stroke-linecap:butt;stroke-linejoin:miter;stroke-miterlimit:4;stroke-dasharray:none;stroke-opacity:1"
         id="path3349"
         d="m 523.94862,350.50954 c -1.92051,36.11977 -9.32335,81.59128 -33.95162,107.82436 -42.39924,29.90848 -111.31137,31.9416 -159.20628,15.15078 -26.04853,-8.08515 -46.1684,-19.90861 -69.90385,-33.31978 -9.28627,-5.26737 -21.15102,-18.148 -25.0315,-19.54549 -5.42831,-1.95491 5.48649,15.11707 11.71143,21.59197 28.78325,32.91722 65.95663,42.62636 116.38048,54.37355 43.88156,5.74838 74.33495,9.26503 118.99806,-17.75552 31.70243,-24.22432 36.65843,-44.21023 41.63306,-67.82542 3.9957,-36.67574 1.15541,-34.61895 -0.62978,-60.49445 z" />
      <path
         inkscape:connector-curvature="0"
         style="fill:#2e642c;fill-opacity:1;fill-rule:evenodd;stroke:#000000;stroke-width:0;stroke-linecap:butt;stroke-linejoin:miter;stroke-miterlimit:4;stroke-dasharray:none;stroke-opacity:1"
         id="path3351"
         d="m 307.358,201.83211 c -9.58287,-27.38101 -5.84416,-50.95254 11.36351,-65.68176 21.44881,-18.3595 36.7853,-24.06087 67.88027,-33.46211 33.55903,-2.850363 48.22782,-2.52697 123.09099,1.60879 -57.34912,-10.270508 -133.4335,-19.895675 -186.61849,8.781 -30.8782,17.81976 -44.48474,59.19741 -15.71628,88.75408 z" />
      <path
         inkscape:connector-curvature="0"
         style="fill:#2e642c;fill-opacity:1;fill-rule:evenodd;stroke:#000000;stroke-width:0;stroke-linecap:butt;stroke-linejoin:miter;stroke-miterlimit:4;stroke-dasharray:none;stroke-opacity:1"
         id="path3353"
         d="m 576,122.86218 c 1.30319,1.14583 1.69415,7.73437 6.25532,14.89583 4.56117,7.16146 8.07978,7.01823 11.98936,13.75 3.90958,6.73177 2.08512,6.58856 3.64895,13.1771 1.56383,6.58854 3.90956,13.89322 2.60637,13.17707 -1.30319,-0.71615 -3.25798,-8.59375 -7.81915,-16.04167 -4.56117,-7.44792 -6.51595,-6.58854 -10.42553,-13.75 -3.90958,-7.16146 -3.64894,-8.59375 -5.21277,-14.89583 -1.56383,-6.30208 -2.34574,-11.45833 -1.04255,-10.3125 z" />
      <path
         inkscape:connector-curvature="0"
         style="fill:#4f873b;fill-opacity:1;fill-rule:evenodd;stroke:#000000;stroke-width:0;stroke-linecap:butt;stroke-linejoin:miter;stroke-miterlimit:4;stroke-dasharray:none;stroke-opacity:1"
         id="path3355"
         d="m 522.64319,350.78705 c -3.42346,22.38072 -10.29113,50.82418 -21.04718,68.87544 -18.65057,24.06141 -26.78182,29.51753 -51.23445,41.49624 -39.02155,12.01284 -89.71864,16.62167 -135.59707,-1.0193 -24.22596,-8.37937 -49.39605,-16.18543 -69.66018,-33.56766 -2.75422,-5.43511 -16.99282,-13.1013 -9.04722,-1.51486 19.06759,33.02699 54.2761,48.30707 87.41496,57.31422 35.22549,9.61256 73.00732,16.51453 108.73485,5.85207 36.39573,-6.61297 64.84748,-25.70875 83.51457,-63.25121 5.51457,-12.86201 9.00357,-43.63763 7.77005,-57.7858 0.0529,-5.56959 -1.39449,-10.86169 -0.84833,-16.39914 z" />
      <path
         inkscape:connector-curvature="0"
         style="fill:#4f873b;fill-opacity:1;fill-rule:evenodd;stroke:#000000;stroke-width:0;stroke-linecap:butt;stroke-linejoin:miter;stroke-miterlimit:4;stroke-dasharray:none;stroke-opacity:1"
         id="path3357"
         d="m 247.42428,191.09585 c 1.23552,14.8792 3.85173,27.33542 12.41152,38.68717 15.44547,20.48333 35.43746,36.04792 58.92937,48.49625 9.53528,5.05273 21.87191,9.3161 32.16339,12.16067 29.3203,8.85585 62.09133,18.94236 85.44409,41.04982 8.19756,7.10154 -0.71302,-11.77368 -16.09063,-23.42819 C 377.41368,275.57217 311.4774,279.641 271.85783,240.44611 260.56004,228.39185 253.68943,206.27107 247.42428,191.09585 Z" />
    </g>
    <g
       id="SnakeHighlight">
      <path
         inkscape:connector-curvature="0"
         style="fill:#c7e06d;fill-opacity:1;fill-rule:evenodd;stroke:#c7e06d;stroke-width:13.42280579;stroke-linecap:butt;stroke-linejoin:miter;stroke-miterlimit:4;stroke-dasharray:none;stroke-opacity:0.52631579"
         id="path3360"
         d="m 489.7672,394.90659 c -0.29691,-28.04121 -5.46934,-77.5371 -36.00531,-100.9745 -35.92731,-36.02516 -101.64396,-26.70064 -143.4266,-52.77911 -17.19136,-15.58002 29.21192,-4.30903 67.8021,5.38282 39.26909,9.14362 86.22738,17.74234 109.84219,52.02132 19.12527,32.54391 22.726,74.71543 1.78762,96.34947 z" />
      <path
         inkscape:connector-curvature="0"
         style="fill:#c7e06d;fill-opacity:1;fill-rule:evenodd;stroke:#c7e06d;stroke-width:8;stroke-linecap:butt;stroke-linejoin:miter;stroke-miterlimit:4;stroke-dasharray:none;stroke-opacity:0.51315792"
         id="path3362"
         d="m 263.1579,189.5392 c -4.74945,-27.3249 2.95249,-57.61502 24.60496,-75.98206 32.02015,-28.124455 75.84873,-37.041755 117.35959,-37.853421 57.22552,-2.747702 114.83034,5.845541 168.76481,25.166661 13.38846,4.66984 26.75894,9.48324 39.65488,15.40058 -42.82157,-8.27363 -84.18345,-23.64591 -127.72895,-28.447671 -35.39798,-4.295059 -71.32523,-5.58274 -106.86354,-2.82665 -30.69445,4.099793 -64.0426,10.443042 -85.84973,34.485041 -12.76171,10.44391 -21.75105,25.32345 -22.77836,42.01893 -3.98589,18.82851 2.03822,40.06595 15.70395,52.92052 15.24579,10.62373 14.66766,11.29425 26.25416,15.84645 7.05994,2.77377 7.12215,3.86769 8.61377,7.99504 0.75318,2.08407 -0.40588,4.24319 1.34671,6.0016 -7.05547,-1.22969 -12.47926,-1.65733 -18.44911,-4.48693 -6.47881,-3.07084 -10.98315,-6.20515 -20.49301,-14.12752 C 273.1104,215.2277 265.01053,204.99266 263.1579,189.5392 Z" />
      <path
         inkscape:connector-curvature="0"
         style="opacity:0.5;fill:#c7e06d;fill-opacity:1;stroke:#650606;stroke-width:0;stroke-linejoin:bevel;stroke-miterlimit:4;stroke-dasharray:none;stroke-opacity:1"
         id="path3364"
         d="m 660.49999,124.8622 c 0.6488,3.244 -4.85341,-4.51506 -7.5,-6.5 -2.73789,-2.05341 -5.70871,-2.35435 -8,-3.5 -2.73683,-1.36841 -3.23118,-2.23117 -5.5,-4.5 -4.01209,-4.01209 3.47628,-1.5 7,-1.5 1.87671,0 6.78317,3.89159 9,5 2.61386,1.30693 5.53486,3.02615 7.5,4.5 2.05466,1.54099 2.14668,3.79336 3,5.5 0.83333,1.66667 -3.73224,0.41074 -5.5,1 z" />
      <path
         inkscape:connector-curvature="0"
         style="opacity:0.5;fill:#c7e06d;fill-opacity:1;stroke:#650606;stroke-width:0;stroke-linejoin:bevel;stroke-miterlimit:4;stroke-dasharray:none;stroke-opacity:1"
         id="path3366"
         d="m 685.49999,192.3622 c -2.38601,3.18134 4.85518,-4.21037 7,-8.5 1.03207,-2.06416 0.0338,-8.86465 -0.5,-11 -0.8324,-3.32958 -2.55027,-5.40035 -4.5,-8 -1.61555,-2.15407 5.09168,1.79584 7.5,3 1.58265,0.79133 2,4.02402 2,6.5 0,2.5 0,5 0,7.5 0,2.69271 -1.0684,5.63679 -2,7.5 -0.71004,1.42008 -2.95061,1 -4.5,1" />
      <path
         inkscape:connector-curvature="0"
         style="opacity:0.5;fill:#c7e06d;fill-opacity:1;stroke:#650606;stroke-width:0;stroke-linejoin:bevel;stroke-miterlimit:4;stroke-dasharray:none;stroke-opacity:1"
         id="path3368"
         d="m 613.76867,167.06451 c 3.9556,-7.23377 9.5964,-9.89949 19.79899,-9.89949 11.27222,0 16.39614,0.26535 11.31371,-9.8995 -3.82193,-7.64385 -8.85847,-10.56732 -4.24264,-19.79899 6.159,-12.318 -9.16957,-3.02232 -11.31371,-1.41421 -7.89044,5.91783 -12.20562,5.65685 -22.62741,5.65685 -6.03253,0 -4.24264,3.1655 -4.24264,8.48528" />
    </g>
    <g
       style="display:inline;opacity:0.647343"
       id="Spots">
      <path
         inkscape:connector-curvature="0"
         style="display:inline;opacity:0.5;fill:#3b4f87;fill-opacity:1;stroke:#066506;stroke-width:8;stroke-linejoin:bevel;stroke-miterlimit:4;stroke-dasharray:none;stroke-opacity:1"
         id="path5123"
         transform="translate(2.978574,-1.5883554)"
         d="m 576.99911,108.37466 a 4.2426405,4.9497476 0 1 1 -8.48528,0 4.2426405,4.9497476 0 1 1 8.48528,0 z" />
      <path
         inkscape:connector-curvature="0"
         style="display:inline;opacity:0.5;fill:#3b4f87;fill-opacity:1;stroke:#066506;stroke-width:8;stroke-linejoin:bevel;stroke-miterlimit:4;stroke-dasharray:none;stroke-opacity:1"
         id="path5125"
         transform="translate(-5.021426,-2.5883554)"
         d="m 544.47224,97.060944 a 6.3639607,4.9497476 0 1 1 -12.72792,0 6.3639607,4.9497476 0 1 1 12.72792,0 z" />
      <path
         inkscape:connector-curvature="0"
         style="display:inline;opacity:0.5;fill:#3b4f87;fill-opacity:1;stroke:#066506;stroke-width:8;stroke-linejoin:bevel;stroke-miterlimit:4;stroke-dasharray:none;stroke-opacity:1"
         id="path5129"
         transform="matrix(0.8536968,0,0,0.6741498,75.153544,26.774045)"
         d="m 493.56051,88.575668 a 7.07107,7.7781768 0 1 1 -14.14214,0 7.07107,7.7781768 0 1 1 14.14214,0 z" />
      <path
         inkscape:connector-curvature="0"
         style="display:inline;opacity:0.5;fill:#3b4f87;fill-opacity:1;stroke:#066506;stroke-width:8;stroke-linejoin:bevel;stroke-miterlimit:4;stroke-dasharray:none;stroke-opacity:1"
         id="path5131"
         transform="translate(0.978574,-3.5883554)"
         d="m 452.54832,86.454346 a 7.778175,5.6568546 0 1 1 -15.55635,0 7.778175,5.6568546 0 1 1 15.55635,0 z" />
      <path
         inkscape:connector-curvature="0"
         style="display:inline;opacity:0.5;fill:#3b4f87;fill-opacity:1;stroke:#066506;stroke-width:8;stroke-linejoin:bevel;stroke-miterlimit:4;stroke-dasharray:none;stroke-opacity:1"
         id="path5133"
         transform="translate(-0.02142598,-4.5883554)"
         d="m 403.05086,89.282776 a 8.485281,7.0710678 0 1 1 -16.97056,0 8.485281,7.0710678 0 1 1 16.97056,0 z" />
      <path
         inkscape:connector-curvature="0"
         style="display:inline;opacity:0.5;fill:#3b4f87;fill-opacity:1;stroke:#066506;stroke-width:8;stroke-linejoin:bevel;stroke-miterlimit:4;stroke-dasharray:none;stroke-opacity:1"
         id="path5135"
         transform="translate(-0.02142598,-5.5883554)"
         d="m 357.79601,101.30359 a 9.8994951,7.7781744 0 1 1 -19.79899,0 9.8994951,7.7781744 0 1 1 19.79899,0 z" />
      <path
         inkscape:connector-curvature="0"
         style="display:inline;opacity:0.5;fill:#3b4f87;fill-opacity:1;stroke:#066506;stroke-width:8;stroke-linejoin:bevel;stroke-miterlimit:4;stroke-dasharray:none;stroke-opacity:1"
         id="path5137"
         transform="translate(2.978574,-1.5883554)"
         d="m 315.36963,122.51679 a 12.020815,10.606602 0 1 1 -24.04163,0 12.020815,10.606602 0 1 1 24.04163,0 z" />
      <path
         inkscape:connector-curvature="0"
         style="display:inline;opacity:0.5;fill:#3b4f87;fill-opacity:1;stroke:#066506;stroke-width:8;stroke-linejoin:bevel;stroke-miterlimit:4;stroke-dasharray:none;stroke-opacity:1"
         id="path5141"
         transform="translate(2.978574,-0.5883554)"
         d="m 288.49956,167.77162 a 12.727921,12.020815 0 1 1 -25.45584,0 12.727921,12.020815 0 1 1 25.45584,0 z" />
      <path
         inkscape:connector-curvature="0"
         style="display:inline;opacity:0.5;fill:#3b4f87;fill-opacity:1;stroke:#066506;stroke-width:6.7851944;stroke-linejoin:bevel;stroke-miterlimit:4;stroke-dasharray:none;stroke-opacity:1"
         id="path5144"
         transform="matrix(1.1968479,0,0,1.1614925,-61.374176,-37.616965)"
         d="m 318.19804,229.28992 a 14.142136,14.142136 0 1 1 -28.28427,0 14.142136,14.142136 0 1 1 28.28427,0 z" />
      <path
         inkscape:connector-curvature="0"
         style="display:inline;opacity:0.5;fill:#3b4f87;fill-opacity:1;stroke:#066506;stroke-width:8;stroke-linejoin:bevel;stroke-miterlimit:4;stroke-dasharray:none;stroke-opacity:1"
         id="path5148"
         transform="translate(2.978574,-1.5883554)"
         d="m 400.22243,268.88788 a 20.506096,18.384775 0 1 1 -41.01219,0 20.506096,18.384775 0 1 1 41.01219,0 z" />
      <path
         inkscape:connector-curvature="0"
         style="display:inline;opacity:0.5;fill:#3b4f87;fill-opacity:1;stroke:#066506;stroke-width:8;stroke-linejoin:bevel;stroke-miterlimit:4;stroke-dasharray:none;stroke-opacity:1"
         id="path5150"
         transform="translate(2.978574,-1.5883554)"
         d="m 473.76152,306.36456 a 16.970565,17.677673 0 1 1 -33.94113,0 16.970565,17.677673 0 1 1 33.94113,0 z" />
      <path
         inkscape:connector-curvature="0"
         style="display:inline;opacity:0.5;fill:#3b4f87;fill-opacity:1;stroke:#066506;stroke-width:8;stroke-linejoin:bevel;stroke-miterlimit:4;stroke-dasharray:none;stroke-opacity:1"
         id="path5152"
         transform="translate(2.978574,-1.5883554)"
         d="m 504.87422,375.66101 a 15.55635,19.091884 0 1 1 -31.1127,0 15.55635,19.091884 0 1 1 31.1127,0 z" />
      <path
         inkscape:connector-curvature="0"
         style="display:inline;opacity:0.5;fill:#3b4f87;fill-opacity:1;stroke:#066506;stroke-width:8;stroke-linejoin:bevel;stroke-miterlimit:4;stroke-dasharray:none;stroke-opacity:1"
         id="path5154"
         transform="translate(2.978574,-1.5883554)"
         d="m 489.31787,434.35086 a 14.849242,15.556349 0 1 1 -29.69848,0 14.849242,15.556349 0 1 1 29.69848,0 z" />
      <path
         inkscape:connector-curvature="0"
         style="display:inline;opacity:0.5;fill:#3b4f87;fill-opacity:1;stroke:#066506;stroke-width:5.81596088;stroke-linejoin:bevel;stroke-miterlimit:4;stroke-dasharray:none;stroke-opacity:1"
         id="path5158"
         transform="matrix(1.5743387,0,0,1.2018184,-254.19056,-88.883685)"
         d="m 446.89147,469.70621 a 11.31371,9.8994969 0 1 1 -22.62742,0 11.31371,9.8994969 0 1 1 22.62742,0 z" />
      <path
         inkscape:connector-curvature="0"
         style="display:inline;opacity:0.5;fill:#3b4f87;fill-opacity:1;stroke:#066506;stroke-width:5.34536552;stroke-linejoin:bevel;stroke-miterlimit:4;stroke-dasharray:none;stroke-opacity:1"
         id="path5168"
         transform="matrix(1.4431355,0,0,1.5520942,-175.51534,-257.01053)"
         d="m 376.1808,470.41333 a 11.313708,6.3639607 0 1 1 -22.62741,0 11.313708,6.3639607 0 1 1 22.62741,0 z" />
      <path
         inkscape:connector-curvature="0"
         style="display:inline;opacity:0.5;fill:#3b4f87;fill-opacity:1;stroke:#066506;stroke-width:5.09605265;stroke-linejoin:bevel;stroke-miterlimit:4;stroke-dasharray:none;stroke-opacity:1"
         id="path5170"
         transform="matrix(1.3927047,0,0,1.7695104,-111.40259,-342.37397)"
         d="m 301.22748,447.78589 a 12.020815,3.5355339 0 1 1 -24.04163,0 12.020815,3.5355339 0 1 1 24.04163,0 z" />
    </g>
    <g
       style="display:inline;opacity:0.50724637"
       id="g3387">
      <path
         inkscape:connector-curvature="0"
         style="fill:#000000;fill-opacity:1;fill-rule:evenodd;stroke:#000000;stroke-width:0.97098225px;stroke-linecap:butt;stroke-linejoin:miter;stroke-opacity:1"
         id="path38439"
         d="m 228.40187,414.05208 c 48.09211,12.44211 96.18424,24.88422 144.27637,37.32633 4.24342,-1.33308 8.48686,-2.66617 12.73028,-3.99925 -3.83604,4.51333 -7.70079,9.04522 -12.41809,12.75545 -4.46835,5.06183 -1.45368,11.98047 -1.95992,17.89437 0.71573,5.23068 -2.00981,12.17541 -8.85066,10.91989 -9.77783,-0.49321 -18.57911,-5.19627 -28.00143,-7.3143 -21.21789,-5.37132 -42.87254,-11.70795 -61.22062,-22.59091 -16.58645,-9.83807 -29.9397,-24.43987 -44.90955,-36.6598 0.11787,-2.77726 0.23574,-5.55452 0.35362,-8.33178 z" />
    </g>
  </g>
</svg>
