<?xml version="1.0" encoding="UTF-8" standalone="no"?>
<!-- Created with Inkscape (http://www.inkscape.org/) -->

<svg
   xmlns:dc="http://purl.org/dc/elements/1.1/"
   xmlns:cc="http://creativecommons.org/ns#"
   xmlns:rdf="http://www.w3.org/1999/02/22-rdf-syntax-ns#"
   xmlns:svg="http://www.w3.org/2000/svg"
   xmlns="http://www.w3.org/2000/svg"
   xmlns:sodipodi="http://sodipodi.sourceforge.net/DTD/sodipodi-0.dtd"
   xmlns:inkscape="http://www.inkscape.org/namespaces/inkscape"
   width="46.27581mm"
   height="18.056164mm"
   viewBox="0 0 163.96941 63.978533"
   id="svg2"
   version="1.1"
   inkscape:version="0.91 r"
   sodipodi:docname="scientific-python.svg">
  <defs
     id="defs4" />
  <sodipodi:namedview
     id="base"
     pagecolor="#ffffff"
     bordercolor="#666666"
     borderopacity="1.0"
     inkscape:pageopacity="0.0"
     inkscape:pageshadow="2"
     inkscape:zoom="8.7699287"
     inkscape:cx="81.984703"
     inkscape:cy="31.989267"
     inkscape:document-units="px"
     inkscape:current-layer="layer1"
     showgrid="false"
     inkscape:window-width="1920"
     inkscape:window-height="1028"
     inkscape:window-x="0"
     inkscape:window-y="0"
     inkscape:window-maximized="1"
     fit-margin-top="0"
     fit-margin-left="0"
     fit-margin-right="0"
     fit-margin-bottom="0"
     inkscape:snap-global="false" />
  <metadata
     id="metadata7">
    <rdf:RDF>
      <cc:Work
         rdf:about="">
        <dc:format>image/svg+xml</dc:format>
        <dc:type
           rdf:resource="http://purl.org/dc/dcmitype/StillImage" />
        <dc:title></dc:title>
      </cc:Work>
    </rdf:RDF>
  </metadata>
  <g
     inkscape:label="Layer 1"
     inkscape:groupmode="layer"
     id="layer1"
     transform="translate(-23.466335,0.41653755)">
    <path
       style="fill:none;fill-rule:evenodd;stroke:#000000;stroke-width:1px;stroke-linecap:butt;stroke-linejoin:miter;stroke-opacity:1"
       d="m 23.606708,56.842468 c 12.48762,-2.988704 12.735198,-10.560896 30.129615,-10.250282 17.394416,0.310615 12.113969,8.386594 20.189948,8.386594 8.075979,0 18.32626,-13.356427 30.129619,-13.356427 11.80335,0 13.66704,11.49274 25.15978,11.49274 11.49274,0 13.35642,-27.955313 26.09162,-28.265928 12.7352,-0.310614 17.39442,6.522907 17.39442,8.697209 0,2.174302 -8.3866,7.765364 -11.80336,7.765364 -3.41676,0 -13.83025,21.067558 -21.99427,21.067558 -31.64537,0 -22.86899,-10.237134 -34.98295,-10.237134 -12.113977,0 -16.021112,11.246787 -30.305474,10.912597 C 63.219109,62.811526 65.69727,53.008942 54.709083,52.365203 41.548886,51.594218 23.606708,56.842468 23.606708,56.842468 Z"
       id="path4136"
       inkscape:connector-curvature="0"
       sodipodi:nodetypes="csssssssssssc" />
    <circle
       style="color:#000000;clip-rule:nonzero;display:inline;overflow:visible;visibility:visible;opacity:1;isolation:auto;mix-blend-mode:normal;color-interpolation:sRGB;color-interpolation-filters:linearRGB;solid-color:#000000;solid-opacity:1;fill:#000000;fill-opacity:1;fill-rule:nonzero;stroke:#000000;stroke-width:1.61399996;stroke-linecap:butt;stroke-linejoin:miter;stroke-miterlimit:4;stroke-dasharray:none;stroke-dashoffset:0;stroke-opacity:1;color-rendering:auto;image-rendering:auto;shape-rendering:auto;text-rendering:auto;enable-background:accumulate"
       id="path4161"
       cx="160.54836"
       cy="31.589027"
       r="1.6418211" />
    <circle
       style="color:#000000;clip-rule:nonzero;display:inline;overflow:visible;visibility:visible;opacity:1;isolation:auto;mix-blend-mode:normal;color-interpolation:sRGB;color-interpolation-filters:linearRGB;solid-color:#000000;solid-opacity:1;fill:#ffffff;fill-opacity:1;fill-rule:nonzero;stroke:none;stroke-width:1.61399996;stroke-linecap:butt;stroke-linejoin:miter;stroke-miterlimit:4;stroke-dasharray:none;stroke-dashoffset:0;stroke-opacity:1;color-rendering:auto;image-rendering:auto;shape-rendering:auto;text-rendering:auto;enable-background:accumulate"
       id="path4163"
       cx="161.15813"
       cy="30.977562"
       r="0.96313089" />
    <circle
       r="0.49015415"
       cy="32.60812"
       cx="159.60112"
       id="circle4165"
       style="color:#000000;clip-rule:nonzero;display:inline;overflow:visible;visibility:visible;opacity:1;isolation:auto;mix-blend-mode:normal;color-interpolation:sRGB;color-interpolation-filters:linearRGB;solid-color:#000000;solid-opacity:1;fill:#ffffff;fill-opacity:1;fill-rule:nonzero;stroke:none;stroke-width:1.61399996;stroke-linecap:butt;stroke-linejoin:miter;stroke-miterlimit:4;stroke-dasharray:none;stroke-dashoffset:0;stroke-opacity:1;color-rendering:auto;image-rendering:auto;shape-rendering:auto;text-rendering:auto;enable-background:accumulate" />
    <path
       style="fill:none;fill-rule:evenodd;stroke:#000000;stroke-width:1px;stroke-linecap:butt;stroke-linejoin:miter;stroke-opacity:1"
       d="m 50.53212,46.619476 c -3.597748,0.4797 -4.077447,3.477823 -4.077447,3.477823"
       id="path4167"
       inkscape:connector-curvature="0" />
    <path
       style="fill:none;fill-rule:evenodd;stroke:#000000;stroke-width:1px;stroke-linecap:butt;stroke-linejoin:miter;stroke-opacity:1"
       d="m 56.88814,46.859326 c -3.237972,0.4797 -3.597747,3.237973 -3.597747,3.237973"
       id="path4169"
       inkscape:connector-curvature="0"
       sodipodi:nodetypes="cc" />
    <path
       style="fill:none;fill-rule:evenodd;stroke:#000000;stroke-width:1px;stroke-linecap:butt;stroke-linejoin:miter;stroke-opacity:1"
       d="m 62.524612,47.818725 c -2.758273,0.119925 -3.237973,2.278574 -3.237973,2.278574"
       id="path4171"
       inkscape:connector-curvature="0" />
    <path
       style="fill:none;fill-rule:evenodd;stroke:#000000;stroke-width:1px;stroke-linecap:butt;stroke-linejoin:miter;stroke-opacity:1"
       d="m 66.721984,50.337149 c -2.398498,0.719549 -2.998123,1.678949 -2.998123,1.678949"
       id="path4173"
       inkscape:connector-curvature="0" />
    <path
       style="fill:none;fill-rule:evenodd;stroke:#000000;stroke-width:1px;stroke-linecap:butt;stroke-linejoin:miter;stroke-opacity:1"
       d="M 70.199807,53.814971 C 68.041158,54.77437 67.321609,55.97362 67.321609,55.97362"
       id="path4175"
       inkscape:connector-curvature="0"
       sodipodi:nodetypes="cc" />
    <path
       style="fill:none;fill-rule:evenodd;stroke:#000000;stroke-width:1px;stroke-linecap:butt;stroke-linejoin:miter;stroke-opacity:1"
       d="m 73.797555,54.894296 c -1.678949,1.079324 -2.398499,2.998123 -2.398499,2.998123"
       id="path4177"
       inkscape:connector-curvature="0"
       sodipodi:nodetypes="cc" />
    <path
       style="fill:none;fill-rule:evenodd;stroke:#000000;stroke-width:1px;stroke-linecap:butt;stroke-linejoin:miter;stroke-opacity:1"
       d="m 76.915602,54.294671 c -0.4797,1.559024 -0.119925,3.118048 -0.119925,3.118048"
       id="path4179"
       inkscape:connector-curvature="0"
       sodipodi:nodetypes="cc" />
    <path
       style="fill:none;fill-rule:evenodd;stroke:#000000;stroke-width:1px;stroke-linecap:butt;stroke-linejoin:miter;stroke-opacity:1"
       d="m 80.993049,52.136022 c 0,1.678949 0.71955,3.237973 0.71955,3.237973"
       id="path4181"
       inkscape:connector-curvature="0" />
    <path
       style="fill:none;fill-rule:evenodd;stroke:#000000;stroke-width:1px;stroke-linecap:butt;stroke-linejoin:miter;stroke-opacity:1"
       d="m 84.950572,50.097299 c -0.23985,1.918799 0.719549,3.357898 0.719549,3.357898"
       id="path4183"
       inkscape:connector-curvature="0" />
    <path
       style="fill:none;fill-rule:evenodd;stroke:#000000;stroke-width:1px;stroke-linecap:butt;stroke-linejoin:miter;stroke-opacity:1"
       d="m 89.028019,47.219101 c -0.839474,2.278573 0.599624,3.357897 0.599624,3.357897"
       id="path4185"
       inkscape:connector-curvature="0"
       sodipodi:nodetypes="cc" />
    <path
       style="fill:none;fill-rule:evenodd;stroke:#000000;stroke-width:1px;stroke-linecap:butt;stroke-linejoin:miter;stroke-opacity:1"
       d="m 92.745691,45.060452 c -0.959399,1.678949 0.4797,3.357898 0.4797,3.357898"
       id="path4187"
       inkscape:connector-curvature="0"
       sodipodi:nodetypes="cc" />
    <path
       style="fill:none;fill-rule:evenodd;stroke:#000000;stroke-width:1px;stroke-linecap:butt;stroke-linejoin:miter;stroke-opacity:1"
       d="m 97.062988,43.261578 c -0.599624,1.439099 0,3.357898 0,3.357898"
       id="path4189"
       inkscape:connector-curvature="0"
       sodipodi:nodetypes="cc" />
    <path
       style="fill:none;fill-rule:evenodd;stroke:#000000;stroke-width:1px;stroke-linecap:butt;stroke-linejoin:miter;stroke-opacity:1"
       d="m 102.45961,41.822479 c -1.07932,1.798874 -0.59963,3.837598 -0.59963,3.837598"
       id="path4191"
       inkscape:connector-curvature="0" />
    <path
       style="fill:none;fill-rule:evenodd;stroke:#000000;stroke-width:1px;stroke-linecap:butt;stroke-linejoin:miter;stroke-opacity:1"
       d="m 108.45586,42.062329 c -1.31918,1.199249 -1.31918,3.477823 -1.31918,3.477823"
       id="path4193"
       inkscape:connector-curvature="0" />
    <path
       style="fill:none;fill-rule:evenodd;stroke:#000000;stroke-width:1px;stroke-linecap:butt;stroke-linejoin:miter;stroke-opacity:1"
       d="m 113.61263,44.820602 c -1.4391,1.439099 -1.55903,3.357898 -1.55903,3.357898"
       id="path4195"
       inkscape:connector-curvature="0" />
    <path
       style="fill:none;fill-rule:evenodd;stroke:#000000;stroke-width:1px;stroke-linecap:butt;stroke-linejoin:miter;stroke-opacity:1"
       d="m 117.92992,48.058575 c -1.4391,1.439099 -1.31917,2.758273 -1.31917,2.758273"
       id="path4197"
       inkscape:connector-curvature="0" />
    <path
       style="fill:none;fill-rule:evenodd;stroke:#000000;stroke-width:1px;stroke-linecap:butt;stroke-linejoin:miter;stroke-opacity:1"
       d="m 144.79311,33.30781 c 2.63835,0.119924 3.95752,2.758273 3.95752,2.758273"
       id="path4199"
       inkscape:connector-curvature="0"
       sodipodi:nodetypes="cc" />
    <path
       style="fill:none;fill-rule:evenodd;stroke:#000000;stroke-width:1px;stroke-linecap:butt;stroke-linejoin:miter;stroke-opacity:1"
       d="m 148.151,29.110438 c 2.99812,0.359775 3.71767,2.878198 3.71767,2.878198"
       id="path4201"
       inkscape:connector-curvature="0" />
    <path
       style="fill:none;fill-rule:evenodd;stroke:#000000;stroke-width:1px;stroke-linecap:butt;stroke-linejoin:miter;stroke-opacity:1"
       d="m 142.63445,37.265333 c 2.3985,0.479699 2.99813,2.158648 2.99813,2.158648"
       id="path4203"
       inkscape:connector-curvature="0" />
    <path
       style="fill:none;fill-rule:evenodd;stroke:#000000;stroke-width:1px;stroke-linecap:butt;stroke-linejoin:miter;stroke-opacity:1"
       d="m 140.59573,41.34278 c 2.15865,0.959399 2.63835,2.278573 2.63835,2.278573"
       id="path4205"
       inkscape:connector-curvature="0" />
    <path
       style="fill:none;fill-rule:evenodd;stroke:#000000;stroke-width:1px;stroke-linecap:butt;stroke-linejoin:miter;stroke-opacity:1"
       d="m 127.04421,52.855572 0,2.998123"
       id="path4207"
       inkscape:connector-curvature="0" />
    <path
       style="fill:none;fill-rule:evenodd;stroke:#000000;stroke-width:1px;stroke-linecap:butt;stroke-linejoin:miter;stroke-opacity:1"
       d="m 122.36713,51.656323 c -0.95941,0.959399 -1.19925,2.398498 -1.19925,2.398498"
       id="path4209"
       inkscape:connector-curvature="0"
       sodipodi:nodetypes="cc" />
    <path
       style="fill:none;fill-rule:evenodd;stroke:#000000;stroke-width:1px;stroke-linecap:butt;stroke-linejoin:miter;stroke-opacity:1"
       d="m 130.76189,52.615722 c 0.71955,1.199249 0.9594,2.758273 0.9594,2.758273"
       id="path4211"
       inkscape:connector-curvature="0" />
    <path
       style="fill:none;fill-rule:evenodd;stroke:#000000;stroke-width:1px;stroke-linecap:butt;stroke-linejoin:miter;stroke-opacity:1"
       d="m 134.1198,51.056699 c 1.67895,1.079324 2.03873,2.998123 2.03873,2.998123"
       id="path4213"
       inkscape:connector-curvature="0" />
    <path
       style="fill:none;fill-rule:evenodd;stroke:#000000;stroke-width:1px;stroke-linecap:butt;stroke-linejoin:miter;stroke-opacity:1"
       d="m 136.75815,48.178501 c 2.63835,0.959399 2.8782,2.278573 2.8782,2.278573"
       id="path4215"
       inkscape:connector-curvature="0"
       sodipodi:nodetypes="cc" />
    <path
       style="fill:none;fill-rule:evenodd;stroke:#000000;stroke-width:1px;stroke-linecap:butt;stroke-linejoin:miter;stroke-opacity:1"
       d="m 138.55701,44.820602 c 1.79887,0.23985 3.23797,2.038724 3.23797,2.038724"
       id="path4217"
       inkscape:connector-curvature="0" />
    <path
       style="fill:#ffffff;fill-opacity:1;fill-rule:evenodd;stroke:#000000;stroke-width:1px;stroke-linecap:butt;stroke-linejoin:miter;stroke-opacity:1"
       d="m 166.76035,36.740568 c -2.49272,1.216798 -3.17509,2.728948 -4.42359,5.815581 -0.30463,-1.28457 -0.30545,-2.277207 -0.10364,-3.390893 -1.34804,0.879714 -1.81107,3.389474 -2.41578,6.090532 -1.04817,-2.620429 -0.9964,-4.309865 0.24405,-6.813894 -1.98566,1.254047 -2.59038,2.705361 -3.63855,4.640447 -0.56774,-2.666573 0.40315,-6.127771 2.90263,-6.893742"
       id="path4186"
       inkscape:connector-curvature="0"
       sodipodi:nodetypes="ccccccc" />
    <path
       style="fill:none;fill-rule:evenodd;stroke:#000000;stroke-width:1px;stroke-linecap:butt;stroke-linejoin:miter;stroke-opacity:1"
       d="m 165.1111,39.742977 c 1.41869,0.448007 2.9867,3.36005 2.9867,3.36005 0,0 1.04535,-3.136047 -0.52266,-4.554734 0,0 1.73047,1.353306 2.41462,2.322528 0.28507,-1.254286 0.22806,-2.964677 -0.11402,-3.648833"
       id="path4188"
       inkscape:connector-curvature="0"
       sodipodi:nodetypes="ccccc" />
    <path
       style="fill:#ffffff;fill-opacity:1;fill-rule:evenodd;stroke:#000000;stroke-width:1px;stroke-linecap:butt;stroke-linejoin:miter;stroke-opacity:1"
       d="m 142.17153,24.189665 c -1.40084,-3.994659 -6.44056,-6.402566 -12.09999,-9.413856 7.04301,-0.423313 10.90343,-0.139876 14.52997,2.839134 0.20869,-5.05596 -2.96697,-6.271931 -7.99131,-10.0504247 6.42944,-0.043123 11.79542,0.3497944 14.63247,5.0591927 1.6378,-4.7047088 0.92874,-5.6700556 -0.48604,-8.443565 5.49466,2.7646858 6.52989,6.862359 7.39269,11.063284 1.77501,-4.501535 3.68456,-5.083002 7.79933,-6.1485076 -2.03384,3.4769226 -1.59798,5.2570756 -1.35553,8.6332286 2.39624,-2.640767 5.48351,-4.435922 9.43216,-4.424447 -3.03159,2.602632 -4.05645,4.201739 -4.82563,6.587999 2.08644,0.79379 3.2889,1.983335 3.84984,4.26312 -4.12604,0.176142 -5.06063,3.427986 -5.06063,3.427986 0,0 -2.66429,-1.540615 -4.55906,-0.976215 -1.24975,-0.645029 -4.52973,-1.575551 -5.78402,0.590942 0,0 -2.71476,-1.298403 -4.5962,-0.899312 0,0 -2.34283,2.786338 0.19293,11.304731 -6.72754,-2.166494 -13.81782,0.794537 -20.71639,2.018088 1.99545,-4.819829 3.62898,-7.506153 7.97846,-9.190266 -3.63233,-3.280477 -8.1179,-4.801656 -14.10427,-5.770877 4.56104,-1.767403 9.28277,-4.766171 15.77117,-0.470235 z"
       id="path4164"
       inkscape:connector-curvature="0"
       sodipodi:nodetypes="cccccccccccccccccccccc" />
  </g>
</svg>
